<svg version="1.1" xmlns="http://www.w3.org/2000/svg" xmlns:xlink="http://www.w3.org/1999/xlink" width="184.55996" height="128.72908" viewBox="0,0,184.55996,128.72908"><g transform="translate(-147.8494,-114.8881)"><g data-paper-data="{&quot;isPaintingLayer&quot;:true}" stroke="none" stroke-width="1" stroke-linecap="butt" stroke-linejoin="miter" stroke-miterlimit="10" stroke-dasharray="" stroke-dashoffset="0" style="mix-blend-mode: normal"><g><path d="M321.38037,161.73344l4.80462,5.56469l3.84752,7.30649l1.32957,7.97621l-1.27986,8.3617l-6.26012,8.01805l-8.13326,7.30667l-6.41504,3.7004l-10.82086,4.12651l-17.05521,2.42594l-33.31344,1.98105l-2.92986,-4.90128l-3.68042,-9.32902l-0.80093,-11.7936l-0.27586,-18.47872l2.38997,-11.70726l4.7621,-10.9871l3.92633,-3.92921l19.24711,0.6475l16.83765,1.06672l13.63019,2.95995l14.82595,5.90182l5.36386,3.78248" fill="#c1b4d8" fill-rule="evenodd"/><path d="M249.36162,147.90419l-2.84041,4.30693l-2.26629,5.02664l-1.22751,3.86091l-1.29239,5.7598l-0.84909,4.74714l-0.54317,4.01101l-0.53326,3.98432l0.07264,9.70793l-0.10557,3.13822l0.78932,6.19004l0.50023,5.92017l2.0158,5.36381l3.12952,4.915l1.87283,3.66504l-8.0976,0.32793l-4.66618,-0.75732l-5.04215,-7.42673l-2.83658,-10.64839l-0.46469,-9.92123l0.94893,-7.44731l-0.1693,-6.83456l2.58041,-11.4197l2.79955,-9.01097l1.81028,-6.34272l14.41467,-1.11598" fill="#897ab8" fill-rule="evenodd"/><path d="M220.36762,178.02138l-0.04791,1.42419l-0.29503,8.77004l-0.57734,1.6065l-3.58715,4.2568l-7.03088,4.19098l-8.80729,0.60422l-9.3306,-2.34004l-10.91913,-2.61861l-13.06704,-5.54248l-13.93443,-6.49718l-1.98944,-0.94242l0.54808,-0.70697l2.56273,-0.51413l7.59745,-3.24639l8.71629,-3.13371l13.39333,-4.12702l13.70812,-2.39045l9.78081,0.85433l6.95789,2.4103l3.85081,3.43141l2.47074,4.51062" fill="#f7ec1e" fill-rule="evenodd"/><path d="M208.69701,179.95508l0.55984,1.14447l-0.77166,5.15197l-1.85398,1.66361l-4.17044,0.83525l-10.61144,-2.158l-12.35729,-4.39296l0.03446,-1.02442l9.97764,-2.76609l9.57023,-1.77923l5.60883,0.18869l3.03028,1.20256l0.98353,1.93416" fill="#fbf5a8" fill-rule="evenodd"/><path d="M267.09958,187.52298l-0.84226,1.2724l-2.53966,1.31535l-5.22641,1.02486l-9.07587,-0.30532l-14.616,-1.79243l-16.69973,-2.1627l-16.73343,-4.16497l10.54841,-1.94644l10.21595,-0.95706l14.28111,-0.11991l16.1794,-0.1561l9.7533,0.92845l3.43387,1.81648l1.40201,2.84875l-0.08069,2.39864" fill="#ef463c" fill-rule="evenodd"/><path d="M268.45452,147.24676l-9.59139,0.17762l-8.70635,0.60762l-14.71014,1.00598l-1.30207,-2.84539l-3.08697,-3.2056l-7.44278,-1.35101l-9.78692,0.07098l-8.13459,1.4273l-1.68259,-0.45683l3.47259,-2.78482l12.83641,-7.17247l16.30236,-6.7557l10.95494,-2.13388l8.59632,-0.31115c0,0 10.5936,2.65868 10.88571,2.86862c0.29214,0.20894 5.14719,4.27448 5.14719,4.27448l2.53072,6.08853l-0.23539,6.99704l-1.76281,3.74185z" fill="#ef463c" fill-rule="evenodd"/><path d="M269.08559,217.50671l2.20563,5.66936l0.31552,6.62235l-3.16333,6.79749l-6.14836,4.69593l-11.34359,1.81963l-11.89226,-2.60131l-15.0869,-5.61043l-9.30317,-5.41585l5.58484,0.18788l5.84089,-1.50447l4.87807,-2.53742l3.0204,-3.70854l1.2902,-2.75018l8.50074,-0.41442l10.99669,-0.43051l14.30464,-0.81951" fill="#ef463c" fill-rule="evenodd"/><path d="M324.04245,192.4403c-0.08986,-0.30319 -1.50003,-5.85374 -1.50003,-5.85374l-0.33641,-7.81573l1.75905,-7.76425l2.11091,-3.41196l3.23138,4.86139l1.80735,8.61564l-1.21354,9.36449l-3.48615,5.686c0,0 -2.28269,-3.37866 -2.37255,-3.68185z" fill="#ef463c" fill-rule="evenodd"/><path d="M245.8245,242.99403c-2.3457,-0.43511 -4.5903,-1.25805 -6.91653,-1.70651c-2.06776,-0.39875 -3.97296,-1.28731 -6.01956,-1.72036c-0.71136,-0.15 -1.38047,-0.51471 -2.05471,-0.81655c-2.08386,-0.93159 -4.17205,-1.85332 -6.2343,-2.83221c-1.36304,-0.64619 -2.65701,-1.44215 -4.02879,-2.06663c-1.83985,-0.83833 -3.72835,-1.56924 -5.58877,-2.36124c-0.38274,-0.16296 -0.7717,-0.34914 -1.09944,-0.6003c-0.86418,-0.66343 -1.84997,-0.98376 -2.89061,-1.2499c-0.99404,-0.25357 -1.95413,-0.59404 -2.99696,-0.67615c-0.43508,-0.03465 -0.88316,-0.3669 -1.25157,-0.65845c-0.66773,-0.52475 -0.15957,-1.20505 -0.10445,-1.80253c0.03911,-0.41892 0.66119,-0.82724 1.08537,-0.76594c0.39929,0.05746 0.82782,0.16793 1.1608,0.38224c1.38765,0.89616 2.84273,1.69154 4.43146,2.08317c1.35448,0.33573 2.73783,0.58638 4.17448,0.65072c1.67638,0.07641 3.23013,-0.1875 4.84025,-0.55057c2.60627,-0.5887 5.0553,-1.52989 7.25326,-3.00883c1.77008,-1.19216 3.25979,-2.70493 3.87705,-4.8734c0.15765,-0.55201 0.40247,-1.07808 0.64954,-1.73014c-0.40927,-0.56408 -0.78433,-1.31211 -1.36535,-1.82694c-0.83458,-0.74048 -1.25281,-1.7221 -1.74122,-2.64004c-0.79913,-1.49671 -1.46864,-3.06911 -2.09184,-4.64996c-0.36342,-0.91574 -0.52809,-1.90984 -0.78405,-2.86698c-0.21603,-0.80572 -0.46228,-1.60545 -0.6501,-2.41722c-0.39722,-1.72533 -0.76315,-3.45861 -1.15027,-5.18661c-0.04006,-0.17745 -0.08683,-0.39314 -0.20906,-0.50732c-0.46661,-0.43593 -0.40057,-0.88197 -0.15308,-1.39794c0.10431,-0.21561 0.14241,-0.5155 0.08821,-0.74846c-0.45495,-1.94239 -0.44965,-3.91433 -0.42825,-5.88873c0.00348,-0.37109 0.00399,-0.74329 -0.00755,-1.11388c-0.01629,-0.55686 -0.57911,-1.07708 -1.23267,-1.13108c-0.54478,-0.04534 -1.091,-0.07773 -1.63743,-0.10411c-0.54242,-0.02625 -1.08732,-0.03858 -1.67598,-0.05838c-0.03833,0.1578 -0.1184,0.30719 -0.10001,0.44489c0.08173,0.63411 -0.05291,1.09684 -0.55529,1.60524c-0.90745,0.92001 -1.60564,2.04417 -2.46776,3.01473c-0.99626,1.12114 -1.93963,2.30609 -3.30717,3.04253c-1.01597,0.54715 -1.94747,1.26023 -2.98368,1.75467c-0.88877,0.42436 -1.86411,0.68571 -2.82126,0.94168c-0.92583,0.24701 -1.87074,0.46637 -2.81971,0.56852c-1.11062,0.11873 -2.23496,0.10992 -3.35335,0.13233c-0.9652,0.01956 -1.93618,0.06194 -2.89736,-0.00842c-0.82639,-0.06182 -1.64427,-0.25743 -2.46144,-0.41499c-1.19986,-0.23247 -2.40192,-0.45902 -3.59241,-0.7322c-1.06343,-0.24289 -2.10956,-0.55424 -3.16819,-0.82099c-0.93261,-0.23549 -1.88003,-0.41745 -2.80353,-0.68565c-1.51309,-0.43912 -2.98823,-1.02505 -4.51823,-1.37769c-3.21189,-0.74141 -6.20372,-2.07576 -9.22025,-3.32989c-3.11224,-1.29437 -6.17877,-2.69827 -9.25417,-4.07645c-2.34301,-1.05037 -4.65241,-2.17766 -7.00856,-3.19445c-1.7989,-0.77692 -3.64993,-1.43153 -5.4749,-2.14729c-1.01122,-0.39722 -2.0148,-0.8132 -3.02391,-1.21336c-0.17771,-0.07102 -0.36672,-0.13341 -0.55414,-0.15372c-0.4466,-0.04904 -0.83959,-0.14531 -0.83765,-0.70856c0.00109,-0.62732 0.4209,-1.17952 0.97585,-1.2579c0.68572,-0.099 1.374,-0.21492 2.06536,-0.2437c0.88775,-0.03717 1.67613,-0.30282 2.45263,-0.72095c0.41064,-0.22032 0.91973,-0.33327 1.3896,-0.35148c0.80243,-0.02904 1.51891,-0.26908 2.18879,-0.67079c1.39178,-0.83268 2.94644,-1.21262 4.47213,-1.68359c0.82502,-0.2544 1.614,-0.62709 2.44081,-0.87543c2.156,-0.64788 4.1315,-1.73007 6.21803,-2.54337c0.9267,-0.36205 1.86162,-0.7008 2.79104,-1.05476c1.04694,-0.39702 2.07484,-0.85272 3.14059,-1.18408c1.15274,-0.35945 2.37747,-0.50935 3.50514,-0.92667c1.18338,-0.43746 2.42622,-0.53073 3.62295,-0.85967c0.64939,-0.17927 1.32454,-0.26161 1.9785,-0.42772c0.68217,-0.17216 1.34169,-0.44414 2.02965,-0.58009c1.25708,-0.24888 2.52852,-0.41922 3.79069,-0.64091c0.40763,-0.07133 0.81447,-0.17872 1.20533,-0.31665c1.05416,-0.37377 2.14907,-0.32293 3.23644,-0.34538c0.99325,-0.02062 1.97284,0.09739 2.98094,-0.09683c0.68683,-0.13198 1.44578,0.1497 2.17626,0.20729c0.43212,0.03355 0.87026,-0.02275 1.30511,-0.01113c0.50981,0.01415 1.01972,0.05532 1.52989,0.08849c1.02228,0.06841 2.04782,0.12893 3.0695,0.21532c0.27734,0.02434 0.55226,0.12064 0.82255,0.20577c1.15931,0.36719 2.32189,0.72648 3.47333,1.11941c1.38392,0.4718 2.7588,0.97431 4.13602,1.46689c0.12162,0.04311 0.2544,0.0816 0.34876,0.16182c0.95549,0.80458 1.94414,1.57526 2.83844,2.44382c0.72668,0.70583 1.38544,1.49743 1.98319,2.31799c0.34616,0.47691 0.53001,1.07943 0.75238,1.63722c0.28426,0.71096 0.5362,1.43084 0.78006,2.09341c-0.00842,0.30989 -0.01282,0.61892 0.01684,0.92709c0.01909,0.20576 0.12806,0.32749 0.33414,0.35844c0.3355,0.05031 0.6528,0.01696 0.96636,-0.08356c-0.00634,0.03981 -0.00945,0.07272 -0.01689,0.1155c1.33263,-0.02621 2.65927,-0.05262 4.04498,-0.08004c-0.51294,-1.64618 -0.29507,-3.1557 0.03901,-4.66933c0.17828,-0.80846 0.27815,-1.63557 0.47032,-2.44057c0.22343,-0.93101 0.54013,-1.83888 0.7546,-2.7712c0.12653,-0.54906 0.5337,-1.17172 -0.21157,-1.65205c0.24275,-0.49412 0.19055,-1.05419 0.80619,-1.4197c0.3594,-0.21404 0.49773,-0.87576 0.6432,-1.36315c0.26596,-0.88656 0.43381,-1.80143 0.69484,-2.69016c0.18639,-0.63309 0.47875,-1.2336 0.68992,-1.85985c0.23342,-0.69254 0.45204,-1.39159 0.63792,-2.09874c0.62391,-2.36636 1.5916,-4.60109 2.58197,-6.82605c0.28901,-0.64965 0.48704,-1.21231 -0.11383,-1.85087c-0.26663,-0.28312 -0.32333,-0.82834 -0.34975,-1.26247c-0.10082,-1.58329 -1.0415,-2.67953 -2.14759,-3.61725c-0.76171,-0.64598 -1.77618,-0.8572 -2.75454,-1.07122c-1.03099,-0.22579 -2.0461,-0.5371 -3.08467,-0.71612c-0.94602,-0.1639 -1.91444,-0.19748 -2.87278,-0.29275c-0.73397,-0.07272 -1.46806,-0.20147 -2.20404,-0.21423c-0.767,-0.0128 -1.53744,0.07635 -2.30493,0.13758c-0.38323,0.03013 -0.77449,0.18006 -1.14421,0.13561c-2.11758,-0.25634 -4.12165,0.57475 -6.21004,0.61055c-0.88605,0.01622 -1.79046,0.19191 -2.6481,0.43421c-1.64553,0.46394 -3.3238,-0.06179 -4.96722,0.25013c-0.17418,0.03216 -0.36938,-0.05445 -0.58531,-0.08973c-0.05972,-0.36621 -0.11542,-0.70328 -0.19336,-1.18217c0.40987,-0.3164 0.87832,-0.67885 1.34877,-1.04124c0.1017,-0.07863 0.21599,-0.14482 0.30607,-0.23484c1.53605,-1.52222 3.26857,-2.75766 5.18927,-3.75765c1.19256,-0.62125 2.27974,-1.44116 3.46119,-2.08881c1.09068,-0.59667 2.12792,-1.30019 3.34775,-1.66138c0.57507,-0.17076 1.07974,-0.56902 1.62726,-0.84276c0.50886,-0.25504 1.03267,-0.47855 1.54806,-0.71936c0.22971,-0.10634 0.45292,-0.2279 0.68449,-0.33017c1.13749,-0.50104 2.28527,-0.98072 3.4125,-1.50411c0.72167,-0.33493 1.40875,-0.74205 2.12206,-1.09627c0.28289,-0.14057 0.62141,-0.18021 0.88611,-0.3454c1.61175,-1.00638 3.45506,-1.46066 5.1789,-2.20012c0.35125,-0.15028 0.71769,-0.27603 1.0405,-0.47328c1.11336,-0.67595 2.35568,-0.93232 3.60313,-1.19253c0.45847,-0.09564 0.88725,-0.34937 1.34698,-0.42295c0.9959,-0.15861 2.00586,-0.22969 3.00535,-0.37617c0.46456,-0.06842 0.91436,-0.23339 1.37244,-0.34705c0.58625,-0.14637 1.17204,-0.39782 1.76065,-0.40603c1.42745,-0.01902 2.73764,-0.62731 4.13706,-0.73532c1.02022,-0.07874 2.04303,-0.11537 3.06375,-0.17909c0.91448,-0.05829 1.82932,-0.12757 2.74407,-0.19385c0.22365,-0.01549 0.4781,-0.11399 0.66674,-0.04061c1.45285,0.56417 3.04926,0.16261 4.50922,0.694c0.34497,0.12567 0.7629,0.04568 1.14617,0.07358c0.50404,0.03697 1.03232,0.00771 1.50685,0.14875c0.82427,0.24385 1.59548,0.75607 2.42808,0.87113c1.58349,0.22036 2.99813,0.67118 4.14027,1.84625c0.20599,0.21205 0.56597,0.27819 0.85787,0.40507c1.76442,0.76075 2.8039,2.31058 3.98685,3.70014c0.18097,0.2122 0.27326,0.50247 0.40274,0.75797c0.37643,0.73707 0.76302,1.46949 1.12013,2.21591c0.21411,0.44645 0.39257,0.91171 0.56403,1.37674c0.26407,0.71628 0.52507,1.43446 0.75472,2.1626c0.07419,0.23363 0.07913,0.50295 0.05877,0.7514c-0.12481,1.56869 -0.21778,3.14245 -0.42131,4.70149c-0.10248,0.786 -0.37757,1.55719 -0.64009,2.31179c-0.29009,0.83072 -0.65437,1.63592 -1.03188,2.56676c1.00543,0.03382 1.9525,0.04767 2.89813,0.1045c0.54019,0.03318 1.07346,0.15318 1.61314,0.20135c1.85039,0.16831 3.70889,0.27386 5.5535,0.495c1.84857,0.22228 3.67415,0.68192 5.52605,0.80525c2.13041,0.14271 4.14345,0.79976 6.21939,1.16377c1.91477,0.33657 3.77534,0.97549 5.6616,1.47519c0.86875,0.23034 1.73602,0.47464 2.61438,0.65727c1.46949,0.30758 2.90234,0.69297 4.19391,1.50086c0.19602,0.12166 0.48554,0.08137 0.70759,0.17289c1.18536,0.48513 2.37715,0.95747 3.53874,1.49483c1.15866,0.53526 2.28591,1.1415 3.50491,1.75684c0.56744,-0.39014 1.12944,-0.11309 1.75419,0.23211c1.65317,0.9151 3.04394,2.16457 4.2732,3.54568c0.9998,1.12325 2.08994,2.14848 3.11271,3.24349c0.6355,0.67975 1.20596,1.41935 1.80631,2.13294c0.06161,0.07211 0.15757,0.13437 0.1808,0.2172c0.45855,1.59732 1.58638,2.84094 2.26911,4.31773c0.29481,0.63527 0.54793,1.29015 0.81329,1.93844c0.06009,0.1471 0.04853,0.34183 0.14185,0.45303c0.96891,1.14923 1.06469,2.67431 1.69444,3.97122c0.17686,0.36415 0.13182,0.89994 0.03071,1.31778c-0.09647,0.39898 -0.07455,0.72891 0.00635,1.11985c0.246,1.19395 0.42046,2.4025 0.62011,3.60589c0.01586,0.09359 0.02646,0.195 0.01134,0.28754c-0.30692,1.8067 -0.48392,3.64779 -0.96236,5.4077c-0.59934,2.20109 -1.49663,4.30611 -3.06796,6.04427c-0.40638,0.45059 -0.78509,0.94114 -1.09674,1.46095c-0.7834,1.3074 -1.82236,2.38908 -2.87534,3.47129c-0.5762,0.59096 -1.01294,1.31969 -1.58245,1.91988c-0.4129,0.43636 -0.93638,0.76895 -1.41713,1.14c-0.60704,0.46685 -1.21788,0.92758 -1.82971,1.38827c-0.25762,0.19245 -0.52006,0.37973 -0.78341,0.56398c-0.15681,0.11079 -0.38601,0.17212 -0.47407,0.32124c-0.8453,1.42238 -2.42151,1.81861 -3.68131,2.65373c-0.61202,0.40665 -1.22734,0.8222 -1.88361,1.14632c-1.7492,0.86868 -3.22185,2.20192 -5.08986,2.8845c-2.32187,0.84941 -4.62427,1.74451 -7.02858,2.33801c-1.11996,0.2775 -2.27258,0.45485 -3.35962,0.82451c-1.50402,0.51072 -3.07045,0.61611 -4.60788,0.90058c-1.16692,0.21589 -2.32652,0.48205 -3.49826,0.66276c-1.93418,0.30014 -3.87353,0.57509 -5.81752,0.80986c-1.61047,0.19496 -3.22762,0.35068 -4.84625,0.46132c-1.73094,0.11787 -3.46722,0.15651 -5.20122,0.24626c-0.72468,0.03766 -1.44773,0.11639 -2.22635,0.18125c0.24611,0.71468 0.35033,1.42358 0.70734,1.96489c0.66542,1.00994 0.57985,2.15571 0.76738,3.24363c0.14958,0.87753 0.22349,1.80353 0.11195,2.68028c-0.21774,1.71365 -0.27744,3.45863 -0.82972,5.123c-0.2628,0.79261 -0.4149,1.62597 -0.72011,2.40015c-0.30513,0.77218 -0.64589,1.56217 -1.13432,2.22112c-1.18123,1.59319 -2.26831,3.27258 -3.96692,4.42212c-2.1091,1.42489 -4.34633,2.40523 -6.89559,2.78673c-2.2305,0.33419 -4.45643,0.68155 -6.70815,0.66483c-2.20467,-0.01714 -4.39912,-0.21903 -6.57979,-0.62258zM326.05996,169.0219c-0.10987,0.11337 -0.24806,0.20578 -0.31643,0.33455c-0.30011,0.56323 -0.62893,1.11749 -0.85898,1.71009c-0.64969,1.6751 -1.39921,3.31383 -1.55822,5.15552c-0.05573,0.64549 -0.12703,1.30747 -0.2317,1.95031c-0.34933,2.14547 -0.34009,4.27999 0.0505,6.41032c0.20794,1.13563 0.60764,2.2517 0.68131,3.39283c0.11241,1.71475 0.70381,3.25951 1.33518,4.80561c0.258,0.62903 0.58463,1.24036 1.09712,1.73987c1.38757,-1.42115 2.16312,-3.09002 2.83664,-4.81935c0.15107,-0.38614 0.39681,-0.76109 0.44121,-1.15882c0.17566,-1.59299 0.39496,-3.17452 0.75374,-4.73834c0.09037,-0.39619 0.05692,-0.82956 0.0298,-1.2427c-0.12478,-1.88226 -0.42055,-3.73825 -0.73717,-5.59895c-0.25812,-1.51754 -0.96596,-2.84308 -1.41613,-4.27303c-0.42565,-1.35608 -1.20382,-2.5239 -2.10687,-3.66791zM287.1596,150.05726c-0.44436,0.56838 -0.73116,1.09303 -1.15647,1.45194c-2.06786,1.74546 -3.24504,4.02117 -4.01465,6.55472c-0.28013,0.9211 -0.53154,1.85118 -0.82449,2.76684c-0.54779,1.70955 -1.2172,3.37598 -1.5394,5.16116c-0.45516,2.52512 -1.04257,5.02579 -1.51568,7.54931c-0.23869,1.26569 -0.3372,2.55811 -0.51826,3.83574c-0.13525,0.95699 -0.24711,1.90277 -0.16296,2.88115c0.06752,0.78872 0.02413,1.60272 -0.08835,2.38838c-0.15989,1.12426 -0.25811,2.22958 -0.05717,3.36498c0.09841,0.55462 0.0236,1.14244 0.01033,1.71532c-0.01017,0.45091 -0.08443,0.90367 -0.06148,1.3517c0.05649,1.11653 0.14903,2.23227 0.23457,3.34778c0.19873,2.56913 0.61875,5.10369 1.2472,7.59923c0.27455,1.08885 0.66717,2.14765 1.00628,3.22065c0.14461,0.46012 0.25067,0.93596 0.44,1.37557c0.40552,0.94317 0.91649,1.84486 1.27143,2.80433c0.75945,2.05169 1.85327,3.88951 3.27448,5.54323c0.20598,0.24206 0.46292,0.51586 0.5112,0.80564c0.10884,0.66103 0.74016,0.75131 1.08105,1.147c0.49012,0.5698 0.97798,0.13596 1.48168,0.00482c0.26747,-0.06905 0.57424,0.03233 0.85193,-0.01336c1.78996,-0.29598 3.5774,-0.60606 5.36301,-0.92121c0.59583,-0.10403 1.19353,-0.20399 1.77796,-0.35542c1.30205,-0.33641 2.59621,-0.70611 3.8938,-1.05868c0.86543,-0.23604 1.73441,-0.45894 2.59901,-0.70001c0.73835,-0.20629 1.4833,-0.40035 2.20628,-0.65519c1.13306,-0.39913 2.28623,-0.77157 3.3634,-1.29365c0.99066,-0.47896 1.8916,-1.14605 2.83745,-1.72057c0.18586,-0.11181 0.39584,-0.1968 0.60488,-0.25381c0.82911,-0.22725 1.67195,-0.59512 2.22432,-1.16187c0.56793,-0.58323 1.23688,-0.8679 1.87275,-1.26975c0.29546,-0.18717 0.55003,-0.43775 0.82554,-0.65661c1.00039,-0.79782 2.02382,-1.56684 2.99624,-2.39561c2.09928,-1.78743 4.06298,-3.70849 5.63647,-5.95686c-0.195,-0.41979 -0.35429,-0.80036 -0.54311,-1.16592c-0.85768,-1.65978 -1.54583,-3.39189 -1.98416,-5.20365c-0.15023,-0.6204 -0.38231,-1.21654 -0.50166,-1.8329c-0.21927,-1.12601 -0.26432,-2.28518 -0.47852,-3.41302c-0.51947,-2.73101 -0.14484,-5.44995 0.12824,-8.1543c0.15609,-1.54663 0.56847,-3.09764 1.09017,-4.56693c0.49959,-1.407 1.28495,-2.71333 1.9526,-4.05964c0.16851,-0.33953 0.3656,-0.66608 0.58087,-1.05707c-0.71028,-0.83635 -1.3317,-1.60768 -1.9975,-2.33848c-0.43131,-0.47377 -0.92554,-0.89162 -1.39502,-1.33166c-0.72552,-0.68078 -1.51089,-1.30754 -2.16427,-2.05093c-0.68421,-0.77844 -1.68952,-1.11343 -2.36384,-1.88855c-0.12522,-0.14429 -0.44651,-0.26016 -0.61057,-0.20164c-0.48209,0.17289 -0.81308,-0.10039 -1.15856,-0.30012c-1.08154,-0.62672 -2.14395,-1.28681 -3.22015,-1.92336c-2.30433,-1.36725 -4.81996,-2.25333 -7.33417,-3.12236c-1.358,-0.46892 -2.78363,-0.74201 -4.17577,-1.11803c-0.46304,-0.12564 -0.90613,-0.33866 -1.37397,-0.44044c-2.7852,-0.60599 -5.56813,-1.2199 -8.36528,-1.76826c-1.28124,-0.25222 -2.59128,-0.36233 -3.75765,-0.51963zM235.94985,148.29648c0.22048,-0.01059 0.44429,-0.00106 0.66251,-0.03374c1.00755,-0.14821 2.01845,-0.45539 3.02005,-0.4267c1.32645,0.03862 2.62045,-0.02891 3.92623,-0.23813c0.85004,-0.1355 1.73662,-0.04864 2.57767,-0.21445c1.23592,-0.24458 2.47013,-0.4382 3.72852,-0.39886c0.51777,0.01542 0.95986,-0.09878 1.32031,-0.46287c0.37804,-0.38151 0.83967,-0.33296 1.09759,0.0009c0.34707,0.44992 0.75789,0.40271 1.19857,0.41954c1.68784,0.06278 3.36519,-0.30603 5.0559,-0.12008c0.40873,0.04477 0.82285,0.07771 1.2326,0.06248c1.59483,-0.05741 3.18956,-0.20087 4.78297,-0.18629c0.98025,0.00896 1.98443,-0.33647 2.95323,0.10235c0.08181,0.03677 0.19298,0.03351 0.28364,0.01555c1.26604,-0.24757 2.51009,0.03942 3.91892,0.12783c0.41425,-0.92259 0.80982,-1.85482 1.24969,-2.76555c0.4549,-0.94124 0.73764,-1.91028 0.68803,-2.96354c-0.00668,-0.15831 0.00273,-0.31909 0.02007,-0.4776c0.09668,-0.88125 0.2503,-1.75958 0.27999,-2.64208c0.02014,-0.59866 -0.00894,-1.25101 -0.22675,-1.79564c-0.6303,-1.57808 -1.3254,-3.13333 -2.07351,-4.65935c-0.6779,-1.38257 -1.73944,-2.48489 -2.99627,-3.34363c-1.10915,-0.75772 -2.25728,-1.51675 -3.49214,-2.01755c-1.6603,-0.6732 -3.39254,-1.23076 -5.14319,-1.59783c-2.26936,-0.47357 -4.60129,-0.515 -6.9227,-0.6011c-2.90502,-0.10773 -5.74008,0.32219 -8.56688,0.89347c-1.98459,0.4005 -3.97693,0.76372 -5.9493,1.21766c-1.65473,0.38058 -3.32335,0.75769 -4.91561,1.33348c-1.80393,0.65172 -3.51067,1.56685 -5.29286,2.28634c-2.35532,0.95135 -4.46111,2.4564 -6.94187,3.12136c-0.09289,0.02489 -0.17579,0.08013 -0.26426,0.12218c-2.10488,1.03181 -4.21166,2.06056 -6.31371,3.09747c-0.86378,0.4252 -1.75338,0.81451 -2.57271,1.31624c-1.5324,0.93801 -3.03834,1.92193 -4.52129,2.93664c-0.62885,0.4311 -1.17192,0.98916 -1.88081,1.59867c0.37278,0.04256 0.53038,0.08688 0.6839,0.07404c1.8844,-0.15873 3.78214,-0.23797 5.64952,-0.51534c2.06451,-0.30776 4.14279,-0.39994 6.20712,-0.64267c1.29986,-0.15238 2.52411,0.39609 3.84917,0.08947c0.89547,-0.20701 1.91899,0.03254 2.86625,0.18948c1.4886,0.24519 2.95367,0.62466 4.4409,0.88081c1.52008,0.26126 2.82721,0.81452 3.9861,1.9081c0.67986,0.64022 1.20969,1.30841 1.57234,2.12807c0.30878,0.69578 0.54233,1.42704 0.82214,2.18088zM234.36596,153.82835c0.64529,-0.05734 1.16986,-0.15475 1.68967,-0.14027c1.01556,0.03016 2.02945,0.16933 3.04475,0.17747c1.68546,0.01468 3.37117,-0.03768 5.05811,-0.06697c0.51159,-0.0088 0.80186,-0.33923 1.02093,-0.7541c0.70949,-1.3409 1.37873,-2.70517 2.44965,-3.81479c0.08291,-0.08526 0.06222,-0.27306 0.12028,-0.57128c-1.72964,0.22797 -3.33592,0.44709 -4.94652,0.64605c-0.50637,0.06201 -1.01986,0.09777 -1.53111,0.09658c-0.92748,-0.00118 -1.85761,-0.0725 -2.78587,-0.0507c-0.63589,0.01563 -1.27359,0.11524 -1.90358,0.22312c-0.2043,0.03515 -0.48405,0.17182 -0.55866,0.33741c-0.55517,1.24504 -1.06798,2.50951 -1.65765,3.91748zM231.5799,166.54287c1.37408,-0.03882 2.74508,-0.13478 4.11823,-0.17564c1.37718,-0.04172 2.75651,-0.02834 4.13462,-0.06802c1.03257,-0.0293 1.10986,-0.12576 1.35492,-1.10507c0.57489,-2.30698 1.15674,-4.61272 1.74253,-6.91632c0.23399,-0.91765 0.48483,-1.83073 0.75396,-2.84126c-0.40677,-0.01368 -0.689,-0.04119 -0.97155,-0.02968c-1.40963,0.05464 -2.81914,0.13529 -4.22927,0.1749c-0.64195,0.01743 -1.28738,-0.01029 -1.92671,-0.07082c-0.50367,-0.04796 -1.00089,-0.16875 -1.49762,-0.27451c-0.39142,-0.08321 -0.77791,-0.19426 -1.2075,-0.30277c-0.11725,0.36226 -0.20824,0.59834 -0.27048,0.84238c-0.21137,0.84037 -0.31309,1.72245 -0.63792,2.51497c-1.04974,2.56215 -1.90217,5.17797 -2.44366,8.0684c0.40679,0.07272 0.74593,0.19319 1.08044,0.18343zM228.46239,179.11616c3.52366,0.0395 6.98601,-0.06115 10.49888,0.06103c0.5658,-1.88804 0.54272,-3.75988 0.8122,-5.58385c0.27228,-1.84789 0.53857,-3.69598 0.82348,-5.65151c-3.63667,0.19684 -7.14767,-0.18943 -10.6831,0.41805c-0.96859,3.57045 -1.86403,7.04831 -1.45147,10.75628zM219.58989,187.78575c-0.73436,-0.12076 -1.36431,-0.222 -1.99309,-0.3282c-0.94919,-0.159 -1.91559,-0.25255 -2.84287,-0.49786c-1.36956,-0.36325 -2.73947,-0.68649 -4.15501,-0.81316c-0.47786,-0.04209 -0.83375,-0.05106 -1.11266,0.47686c-0.24467,0.46203 -0.6879,0.81833 -1.05142,1.21434c-0.45497,0.49698 -1.15864,0.47531 -1.69394,0.8025c-1.70501,1.04226 -3.60182,1.03448 -5.48948,0.96298c-0.8804,-0.03262 -1.74743,-0.31393 -2.62888,-0.40462c-1.15069,-0.11776 -2.30934,-0.14773 -3.36034,-0.73039c-0.21907,-0.12043 -0.49258,-0.13964 -0.73936,-0.20998c-1.11095,-0.31753 -2.28448,-0.50009 -3.31569,-0.98704c-1.39362,-0.65923 -2.80002,-1.26586 -4.25846,-1.75317c-0.97459,-0.32595 -2.04356,-0.46397 -2.92882,-0.94701c-1.91885,-1.04811 -4.02702,-1.43521 -6.0814,-2.02361c-0.33495,-0.09632 -0.69664,-0.1415 -1.04588,-0.14024c-0.54233,0.00077 -1.00617,-0.1309 -1.36061,-0.54005c0.08758,-0.64042 0.35581,-1.11867 1.00123,-1.26905c0.27733,-0.06471 0.57094,-0.07785 0.85752,-0.09022c0.59614,-0.02397 1.2497,0.11909 1.77667,-0.07931c1.06213,-0.40252 2.1108,-0.79148 3.22427,-1.05419c2.38831,-0.56402 4.72838,-1.32977 7.13576,-1.8061c1.22383,-0.24199 2.41762,-0.54302 3.58394,-0.97905c0.3891,-0.145 0.8047,-0.24508 1.21668,-0.29726c1.51742,-0.19509 3.05401,-0.24646 4.54258,-0.65464c0.21007,-0.05797 0.44816,-0.02695 0.67307,-0.02038c1.01759,0.02923 2.03511,0.09048 3.05264,0.09169c1.19664,0.00123 2.40675,-0.16017 3.46361,0.63481c0.19421,0.14561 0.48815,0.1525 0.72709,0.24759c1.11651,0.44979 2.1458,0.99371 2.45866,2.31197c0.02715,0.11498 0.14512,0.207 0.22068,0.3106c0.2009,0.27391 0.40281,0.54785 0.67641,0.92126c3.07496,-0.21473 6.23498,-0.45963 9.39977,-0.84644c0.1648,-1.06206 -0.31541,-1.98573 -0.61507,-2.89332c-0.45496,-1.37708 -1.39408,-2.5193 -2.38418,-3.57418c-0.50132,-0.53416 -1.06146,-1.04528 -1.67873,-1.43425c-2.48484,-1.56343 -5.28719,-2.28406 -8.11197,-2.90338c-0.99918,-0.21972 -2.02731,-0.32234 -3.04594,-0.43966c-1.30869,-0.15009 -2.61879,-0.28821 -3.93237,-0.38243c-0.95725,-0.06822 -1.9244,-0.10976 -2.88341,-0.06598c-1.17946,0.05337 -2.36323,0.14563 -3.52814,0.33156c-1.83694,0.2944 -3.65878,0.67537 -5.48474,1.03017c-1.70206,0.32996 -3.41113,0.63067 -5.09842,1.02716c-1.46939,0.34379 -2.91429,0.79246 -4.36432,1.21495c-1.1398,0.33187 -2.28433,0.65557 -3.40044,1.05627c-1.04923,0.37594 -2.06265,0.84713 -3.09357,1.27371c-1.24697,0.51336 -2.50232,1.00844 -3.73996,1.54213c-0.73502,0.31547 -1.41862,0.76774 -2.17058,1.0216c-1.58079,0.53215 -3.20706,0.89968 -4.75238,1.5671c-1.34427,0.58013 -2.84329,0.76383 -4.12545,1.55017c-0.34631,0.21148 -0.78645,0.26771 -1.18113,0.40051c-1.00291,0.33747 -2.00393,0.67801 -3.00591,1.01751c-0.02508,0.09121 -0.05123,0.18438 -0.07631,0.27559c0.27596,0.18438 0.53138,0.4141 0.83127,0.54126c0.46861,0.19787 0.98187,0.28818 1.44728,0.49194c0.85008,0.36879 1.67523,0.79477 2.5177,1.18132c1.07608,0.49146 2.1619,0.96123 3.23806,1.45069c0.81796,0.37171 1.62196,0.77197 2.44113,1.13772c0.67323,0.30181 1.40617,0.49456 2.0308,0.87277c1.2111,0.73113 2.44922,1.37312 3.81297,1.7602c0.21306,0.0612 0.40915,0.18086 0.61517,0.27284c1.04198,0.4643 2.08496,0.92863 3.12797,1.39196c1.46096,0.65049 2.90104,1.35631 4.39053,1.93171c1.36505,0.52719 2.69789,1.11934 4.15028,1.45937c1.42457,0.33409 2.81902,0.82025 4.26959,1.09517c0.41958,0.07915 0.80465,0.35125 1.2003,0.54667c0.39769,0.19448 0.76943,0.47614 1.18793,0.58727c0.60791,0.16153 1.25605,0.16833 1.87177,0.30611c1.62565,0.36486 3.23716,0.79329 4.86531,1.14323c1.80301,0.38684 3.60999,0.77481 5.43193,1.04522c0.92691,0.13724 1.89275,0.00964 2.84102,0.01753c0.31209,0.00249 0.63075,0.10727 0.93706,0.07355c1.65214,-0.18456 3.27623,-0.48712 4.88378,-0.95234c3.27074,-0.94857 5.80924,-2.91333 7.98068,-5.44775c0.02083,-0.02431 0.0339,-0.05589 0.05373,-0.08024c0.5336,-0.63342 1.0681,-1.2638 1.59873,-1.89832c0.09795,-0.11577 0.27033,-0.27307 0.24561,-0.37095c-0.17805,-0.71539 0.30389,-1.15143 0.74973,-1.67474zM206.72204,178.2257c-0.85479,-0.55605 -1.81299,-0.77439 -2.79661,-0.89153c-0.82618,-0.09783 -1.66072,-0.18494 -2.49136,-0.17987c-1.02177,0.00565 -2.04832,0.06417 -3.06392,0.18409c-1.49479,0.17684 -2.99319,0.37157 -4.46689,0.66519c-1.24912,0.25014 -2.45948,0.6867 -3.70101,0.97912c-1.14974,0.2705 -2.33415,0.38174 -3.43116,0.86913c-0.34735,0.15341 -0.72817,0.23065 -1.09579,0.33234c-1.52712,0.42389 -3.05506,0.84276 -4.58308,1.26362c0.38609,0.30115 0.82032,0.3908 1.19682,0.59057c0.72251,0.38351 1.52515,0.55659 2.19427,1.12941c0.45906,0.39266 1.25221,0.40133 1.9001,0.5642c0.61808,0.15687 1.27129,0.22087 1.8578,0.45372c0.8876,0.35404 1.73142,0.81968 2.59391,1.23591c0.14377,0.06887 0.28183,0.15857 0.43246,0.20165c1.37445,0.39644 2.7511,0.78694 4.12888,1.17349c1.17258,0.32961 2.33942,0.68104 3.52255,0.96498c0.52507,0.12573 1.10134,0.03805 1.62315,0.17167c1.53859,0.39495 2.99266,0.1497 4.47478,-0.33474c1.09157,-0.3555 1.85985,-1.1241 2.79379,-1.76106c-0.13077,-0.06844 -0.20774,-0.13006 -0.29506,-0.15201c-1.96296,-0.48027 -3.92482,-0.96351 -5.89222,-1.43092c-0.77728,-0.18324 -1.57173,-0.30202 -2.34661,-0.49718c-0.82351,-0.20681 -0.97982,-0.76538 -0.42836,-1.42421c0.25545,-0.30658 0.55294,-0.46467 0.98847,-0.50305c0.8249,-0.07231 1.64153,-0.25595 2.4573,-0.41361c0.98801,-0.19189 1.97007,-0.415 2.95894,-0.60285c0.75026,-0.14386 1.50644,-0.25549 2.26209,-0.38116c0.24215,-1.1305 -0.00894,-1.69726 -0.79325,-2.20692zM244.89379,189.43345c1.60033,0.25495 3.18144,0.63533 4.77166,0.95297c0.28026,0.05645 0.56946,0.08519 0.85613,0.09984c1.00176,0.05371 2.00482,0.09846 3.00799,0.14021c0.60549,0.02537 1.21157,0.06277 1.81727,0.05213c1.68284,-0.02643 3.40042,0.31251 5.01167,-0.50078c0.21371,-0.10687 0.50371,-0.0721 0.75941,-0.08852c1.23724,-0.07544 2.34298,-0.46549 3.3949,-1.15951c1.09591,-0.72256 1.78953,-1.7108 2.33619,-2.88108c-0.05173,-0.24688 -0.09315,-0.53243 -0.17089,-0.8092c-0.39571,-1.4131 -1.06036,-2.65415 -2.47049,-3.26891c-0.84901,-0.37076 -1.74397,-0.74406 -2.65073,-0.85561c-2.09256,-0.2565 -4.1495,-0.73893 -6.2804,-0.80762c-3.24034,-0.10401 -6.47547,-0.09477 -9.71208,0.01747c-1.2772,0.04408 -2.55047,0.2684 -3.82806,0.29446c-2.62433,0.0548 -5.25076,0.02347 -7.87591,0.04322c-2.63518,0.02041 -5.27069,0.05082 -7.90557,0.09225c-2.05723,0.03185 -4.11503,0.05067 -6.16932,0.14366c-1.4069,0.06273 -2.80868,0.2407 -4.21188,0.3716c-2.00744,0.18761 -4.02207,0.32095 -6.01817,0.58799c-1.82023,0.24394 -3.62138,0.6346 -5.59446,0.99046c0.52496,0.48592 1.03591,0.49611 1.52815,0.55669c0.37864,0.04676 0.76622,0.0658 1.13319,0.16219c0.55645,0.14479 1.08814,0.40081 1.64869,0.51272c0.87759,0.17561 1.77224,0.26073 2.656,0.40153c0.97834,0.15498 1.99616,0.20723 2.92318,0.51958c1.65118,0.55783 3.38841,0.58025 5.06052,0.99171c1.13525,0.27933 2.31893,0.36818 3.48217,0.52938c0.37644,0.05269 0.7642,0.03671 1.1371,0.10529c1.0899,0.19976 2.16718,0.47714 3.26263,0.63105c1.31751,0.1854 2.64506,0.22106 3.96401,0.51257c1.54833,0.34325 3.15936,0.39945 4.74332,0.57581c0.88025,0.09665 1.76464,0.15942 2.64101,0.28196c1.14135,0.15746 2.27098,0.39558 3.41311,0.53006c1.10821,0.13133 2.23996,0.09837 3.33966,0.27444zM228.13721,197.08038c1.16937,0.03834 2.34125,0.06175 3.50991,0.03203c1.11659,-0.02847 2.2306,-0.12908 3.34444,-0.19466c0.9875,-0.05783 1.97832,-0.18459 2.96037,-0.13955c0.63734,0.03045 1.19928,-0.0477 1.81456,-0.34318c-0.19016,-1.9615 -0.38215,-3.92807 -0.57762,-5.93978c-0.5941,-0.12605 -1.12036,-0.27582 -1.65734,-0.34492c-1.00613,-0.1319 -2.02055,-0.19605 -3.02675,-0.32595c-2.00148,-0.25744 -4.00028,-0.5348 -5.99898,-0.81516c-0.46102,-0.06654 -0.82598,0.01524 -0.96968,0.47967c0.00578,0.60153 -0.04817,1.19406 -0.11412,1.78617c-0.0469,0.41266 -0.17389,0.82662 -0.1516,1.2346c0.05462,1.02342 0.17138,2.04392 0.26811,3.06475c0.03613,0.38343 0.04484,0.77895 0.14657,1.14558c0.0428,0.15553 0.29023,0.35496 0.45214,0.36041zM241.82504,200.4385c0.04489,1.13415 0.15402,2.26246 0.29853,3.37995c0.1009,0.77783 0.43779,1.53058 0.70771,2.28108c0.50961,1.41794 1.02626,2.83511 1.58045,4.23653c0.24714,0.62466 0.60586,1.20405 0.89048,1.81497c0.64202,1.37837 1.41183,2.67598 2.47876,3.76647c0.42563,0.43456 0.67588,0.90724 0.62226,1.60883c0.71644,-0.03093 1.35326,-0.04453 1.98922,-0.09217c0.73624,-0.05428 1.4696,-0.17169 2.20704,-0.20191c1.09207,-0.04331 2.1865,-0.03751 3.27933,-0.04377c0.9017,-0.00569 1.80648,0.04576 2.7048,-0.00806c1.88186,-0.11279 3.7606,-0.28172 5.64126,-0.41857c0.60581,-0.04366 1.21646,-0.02311 1.81812,-0.09192c1.43835,-0.16473 2.86835,-0.34876 4.32094,-0.1338c0.42811,0.06343 0.88105,-0.01639 1.31958,-0.05466c0.92921,-0.0798 1.85466,-0.19675 2.78433,-0.26053c1.49927,-0.10165 3.00242,-0.17015 4.50325,-0.25874c0.50629,-0.02999 1.01882,-0.15583 1.51432,-0.10314c1.16958,0.12139 2.23975,-0.1928 3.36149,-0.52328c-0.15918,-0.20547 -0.27435,-0.32141 -0.34976,-0.45902c-0.29068,-0.52007 -0.50862,-1.09072 -0.85991,-1.5638c-1.01075,-1.36275 -1.88023,-2.7908 -2.32584,-4.44571c-0.03288,-0.12318 -0.06442,-0.25631 -0.13395,-0.36071c-0.8168,-1.23916 -1.41232,-2.60196 -1.82742,-4.00371c-0.54986,-1.85754 -1.21869,-3.68806 -1.49667,-5.6265c-0.22217,-1.54534 -0.53982,-3.07789 -0.79111,-4.62021c-0.07635,-0.46683 -0.06817,-0.94783 -0.10727,-1.42141c-0.04577,-0.54285 -0.10258,-1.08506 -0.15135,-1.62801c-0.04974,-0.54398 -0.13646,-1.0892 -0.13616,-1.6335c0.00044,-1.11361 0.09893,-2.22693 0.06629,-3.33866c-0.09653,-3.31712 -0.01715,-6.62832 0.31788,-9.92492c0.16758,-1.6503 0.5546,-3.28021 0.87566,-4.91234c0.42826,-2.17183 0.87542,-4.34002 1.33942,-6.50364c0.26326,-1.22284 0.44904,-2.46229 1.04966,-3.60074c0.35474,-0.67045 0.62402,-1.41782 0.77114,-2.1623c0.42349,-2.14898 1.16287,-4.17026 2.23143,-6.07241c0.20326,-0.36137 0.5364,-0.65734 0.6911,-1.03235c0.38657,-0.93253 1.17704,-1.49827 1.91841,-2.2998c-0.58861,-0.11085 -1.08546,-0.24263 -1.59109,-0.29166c-2.3337,-0.22659 -4.66994,-0.43726 -7.00758,-0.63597c-0.51184,-0.04323 -1.03217,0.01731 -1.5442,-0.01993c-2.58924,-0.18516 -5.1758,-0.42026 -7.76731,-0.56747c-1.04464,-0.05816 -2.09799,0.08351 -3.14808,0.09821c-2.43159,0.03627 -4.86254,0.02352 -7.29291,0.08284c-1.57514,0.03706 -3.15375,0.11803 -4.7201,0.28046c-0.53719,0.05597 -1.13213,0.31211 -1.54611,0.66139c-0.70539,0.59462 -1.31191,1.31363 -1.91689,2.01669c-0.92052,1.07066 -1.70101,2.23207 -2.2575,3.5461c-0.69789,1.65047 -1.44511,3.28027 -2.16468,4.921c-0.06388,0.14393 -0.07749,0.31057 -0.11175,0.46651c-0.2763,1.25342 -0.55356,2.5058 -0.82886,3.75926c-0.04034,0.18775 -0.07867,0.37557 -0.11404,0.56448c-0.22431,1.19513 -0.44069,2.39254 -0.67293,3.5854c-0.12833,0.66206 -0.30633,1.31344 -0.41774,1.97807c-0.16881,1.00289 -0.29882,2.01209 -0.44575,3.01872c-0.12383,0.85532 -0.29349,1.7051 -0.36042,2.56433c-0.06683,0.85624 0.09891,1.7293 -0.31708,2.55478c-0.08997,0.17607 0.06398,0.47742 0.11427,0.76728c0.46964,-0.01122 0.88741,0.00284 1.30006,-0.03931c0.85738,-0.08622 1.7093,-0.27769 2.56527,-0.29192c2.86622,-0.04766 5.73323,-0.05927 8.59917,-0.0389c1.56853,0.01074 3.13796,0.08355 4.70333,0.18824c0.76173,0.05064 1.51715,0.22914 2.27292,0.36763c0.49823,0.0908 0.98854,0.23837 1.48918,0.31725c1.08884,0.17171 2.05398,0.68945 3.07657,1.04603c2.27852,0.79606 3.46203,2.43678 3.75404,4.79093c0.03862,0.30947 0.11641,0.61426 0.14276,0.75323c-0.23389,0.37935 -0.43705,0.61866 -0.54044,0.89634c-0.92428,2.46132 -2.77335,3.77089 -5.26706,4.28533c-0.50075,0.10322 -1.09694,0.03914 -1.49273,0.29398c-0.44901,0.29007 -0.87455,0.32878 -1.34626,0.34193c-0.86533,0.02492 -1.73165,0.04981 -2.59851,0.06067c-2.95883,0.03454 -5.90248,-0.02547 -8.83448,-0.58036c-2.13762,-0.4041 -4.32173,-0.55662 -6.48638,-0.81155c-0.34583,-0.04065 -0.69747,-0.02747 -1.04028,-0.039c-0.06349,0.19197 -0.14372,0.31635 -0.13566,0.43368c0.13786,1.82066 0.27269,3.64223 0.43864,5.46084c0.119,1.31074 0.35733,2.61349 0.4072,3.92691zM241.83566,208.06417c-0.49929,-1.63571 -1.20365,-3.09422 -1.35333,-4.71217c-0.15152,-1.62301 -0.38839,-3.23689 -0.59307,-4.8857c-3.99323,-0.17936 -7.85943,0.6241 -11.91111,0.51681c0.58551,3.14747 1.20528,6.22805 2.06714,9.25073c3.92118,0.35804 7.78889,0.0449 11.79037,-0.16968zM238.70652,217.8605c0.13308,-0.05956 0.31822,-0.0013 0.47937,-0.00288c1.21836,-0.02005 2.43696,-0.04709 3.65499,-0.05714c0.57248,-0.00475 1.14476,0.0265 1.71697,0.02975c0.72126,0.00425 1.44393,-0.00345 2.3986,-0.00736c-0.79239,-1.19132 -1.41145,-2.15167 -2.05927,-3.08998c-0.82241,-1.19132 -1.54183,-2.44022 -2.08001,-3.78207c-0.43845,-1.09436 -0.40578,-1.17331 -1.56858,-1.13938c-3.07889,0.09353 -6.15466,0.2432 -9.23192,0.37782c-0.33568,0.01472 -0.66812,0.08158 -1.00375,0.12432c0.43717,1.57859 1.34048,2.83367 2.02092,4.20032c0.72542,1.45721 2.04795,2.32617 3.04775,3.44942c0.89071,0.20206 1.7674,0.28559 2.62494,-0.1028zM256.12487,241.72863c1.11448,-0.11459 2.22259,-0.30745 3.32248,-0.52359c0.65368,-0.12809 1.31496,-0.30396 1.91951,-0.57779c1.26797,-0.57269 2.50338,-1.21852 3.74625,-1.84809c0.1649,-0.0835 0.32359,-0.22024 0.42871,-0.3708c0.74358,-1.07561 1.7729,-1.90047 2.42407,-3.08424c0.51563,-0.93219 1.09825,-1.83311 1.36282,-2.85679c0.36707,-1.42346 0.94554,-2.79579 1.00826,-4.30353c0.04997,-1.18799 0.31782,-2.36865 0.32265,-3.55316c0.00525,-1.04842 -0.09229,-2.13431 -0.37676,-3.13644c-0.32028,-1.12741 -0.90226,-2.17857 -1.42017,-3.37966c-0.95442,0.05594 -1.815,0.11804 -2.67573,0.15512c-1.31465,0.05683 -2.62986,0.07062 -3.94246,0.15553c-1.27648,0.08213 -2.54677,0.27753 -3.82355,0.33864c-1.7959,0.08567 -3.59945,0.042 -5.39212,0.15079c-1.7957,0.10969 -3.57924,0.4229 -5.37374,0.4966c-2.37358,0.09625 -4.75244,0.05224 -7.12886,0.05434c-0.34817,-0.00071 -0.7022,-0.1547 -1.04059,-0.11905c-1.17885,0.12443 -2.35488,0.28398 -3.52562,0.46472c-0.41742,0.065 -0.59735,0.38713 -0.72917,0.79593c-0.40433,1.25211 -0.94157,2.46974 -1.75357,3.49702c-1.5875,2.01076 -3.59933,3.45894 -6.06973,4.23232c-1.49961,0.46884 -2.98464,0.9802 -4.4769,1.46831c-1.31317,0.42909 -2.63555,0.80484 -4.03458,0.81181c-0.23117,0.00123 -0.46296,0.05046 -0.695,0.07768c-0.01321,0.06559 -0.02643,0.13119 -0.0396,0.19578c1.11402,0.52375 2.22481,1.0544 3.34213,1.56926c1.27301,0.58613 2.5624,1.13179 3.82268,1.73951c1.92588,0.92828 3.79622,1.96075 5.78713,2.77014c1.27034,0.517 2.50134,1.10272 3.84169,1.44198c0.8969,0.22628 1.74909,0.68119 2.65487,0.82173c1.88533,0.28955 3.64086,1.04701 5.53038,1.36071c1.69447,0.28213 3.3669,0.74362 5.07516,1.03222c2.6395,0.446 5.27172,0.39447 7.90934,0.123z" fill="#30419a" fill-rule="nonzero"/><path d="M278.65432,155.27624c-0.7295,-0.08658 -0.87669,-0.73789 -0.96781,-1.24124c-0.05225,-0.29092 0.33317,-0.7132 0.60584,-0.99619c0.27264,-0.28199 0.95825,-0.25893 1.23949,-0.05336c0.27445,0.19934 0.2589,0.72111 0.09847,1.20699c-0.17387,0.52845 -0.50988,0.85034 -0.97599,1.0838z" fill="#30419a" fill-rule="evenodd"/><path d="M274.39475,172.62083c-1.064,0.19033 -1.50409,0.06647 -1.71854,-0.45904c-0.21249,-0.52444 -0.11544,-1.17855 0.21055,-1.41072c0.37314,-0.2656 1.10082,-0.21411 1.51123,0.10787c0.45231,0.35541 0.45737,0.79983 -0.00324,1.76189z" fill="#30419a" fill-rule="evenodd"/><path d="M272.42079,194.89306c0.52769,0.25589 1.00316,0.488 1.52692,0.74176c-0.30321,0.68519 -0.27933,1.46244 -1.14839,1.59829c-0.42848,0.06663 -1.0163,-0.33536 -1.18965,-0.83347c-0.24624,-0.71068 0.32463,-1.02466 0.81111,-1.50658z" fill="#30419a" fill-rule="evenodd"/><path d="M277.68268,213.39543c-0.25503,-0.09263 -0.45929,-0.17754 -0.67029,-0.24067c-0.42203,-0.12526 -0.76356,-0.26382 -0.68616,-0.83954c0.10111,-0.74502 0.24154,-0.99344 0.78432,-1.15628c0.36793,-0.11069 0.76965,-0.15521 0.92685,0.22829c0.1562,0.38347 0.20879,0.8425 0.17482,1.25759c-0.01993,0.23546 -0.30527,0.44899 -0.52954,0.75062z" fill="#30419a" fill-rule="evenodd"/><g><path d="M313.4996,185.29879l-1.33024,3.9405l-2.96353,4.90313l-4.20673,3.46052l-5.27638,1.02318l-7.58834,-1.45596l-4.02388,-5.03814l-1.21373,-8.44558l2.06304,-4.93343l4.87318,-5.36619l5.1575,-1.9507l5.78373,0.19457l4.35284,1.20804l3.65474,4.11421l0.7178,8.34585" fill="#ef463c" fill-rule="evenodd"/><path d="M308.1004,185.51138l-0.7981,2.96384l-2.89665,3.00431l-4.20654,1.75956l-3.73589,-0.12568l-2.3264,-2.07939l-1.19485,-6.03258l1.87361,-5.25097l4.27941,-2.55756l5.08612,0.1711l3.40025,2.81592l0.51904,5.33147" fill="#ffffff" fill-rule="evenodd"/><path d="M314.649,183.75957c-0.30379,1.59469 -0.45119,3.15061 -0.91538,4.60583c-0.5795,1.81954 -1.33113,3.58027 -2.60079,5.09544c-0.88707,1.05777 -1.77676,2.10445 -2.75305,3.07818c-0.59838,0.59622 -1.31933,0.96919 -2.07756,1.34991c-1.48484,0.7435 -3.03411,1.17165 -4.64544,1.48165c-0.8037,0.15607 -1.57411,0.15516 -2.38333,0.0589c-0.98662,-0.11724 -1.99104,-0.06198 -2.98711,-0.10649c-1.73641,-0.07643 -3.38534,-0.58215 -4.85292,-1.45199c-1.46852,-0.87187 -2.62545,-2.14248 -3.41257,-3.69883c-0.45314,-0.89574 -0.96505,-1.76945 -1.32597,-2.70011c-0.38748,-1.0036 -0.75559,-2.01755 -0.76774,-3.14359c-0.01053,-1.08497 -0.20422,-2.16809 -0.31586,-3.25146c-0.01664,-0.15965 -0.06886,-0.3325 -0.02897,-0.47724c0.48169,-1.70777 0.67719,-3.56325 1.78681,-4.99075c0.79587,-1.02382 1.22472,-2.2611 2.0812,-3.21284c1.06957,-1.18871 2.14517,-2.37822 3.5671,-3.18487c0.80376,-0.45523 1.59957,-0.94175 2.3347,-1.49835c1.13557,-0.86031 2.48896,-1.11695 3.79243,-1.52535c0.05764,-0.01807 0.1306,-0.01562 0.18906,0.00136c1.22684,0.35245 2.49382,-0.01216 3.71858,0.19414c1.09837,0.18603 2.18224,0.47564 3.25779,0.77497c1.01605,0.28332 2.00114,0.68367 3.022,0.94314c0.54662,0.13946 0.97081,0.37885 1.3795,0.75181c0.42325,0.38645 0.9772,0.63521 1.37678,1.04088c0.83194,0.84845 1.61161,1.82322 1.73378,3.01c0.08895,0.86548 0.35369,1.68084 0.43604,2.53409c0.1419,1.4626 0.26479,2.92556 0.39092,4.32159zM298.21383,197.73488c1.94078,0.24739 3.83214,-0.11822 5.64832,-0.62845c1.25551,-0.35099 2.54416,-0.88396 3.43257,-1.98171c0.16077,-0.19871 0.2498,-0.46586 0.43355,-0.63378c1.03962,-0.95258 1.95426,-1.99742 2.57185,-3.28339c0.4121,-0.85863 0.94198,-1.64926 1.10913,-2.6322c0.17989,-1.06455 0.52392,-2.10057 0.76854,-3.15594c0.10872,-0.46561 0.22107,-0.9501 0.20995,-1.42275c-0.04584,-1.84959 -0.45352,-3.68033 -0.27877,-5.54351c0.01076,-0.1117 -0.07715,-0.23473 -0.12429,-0.35038c-0.13016,-0.32456 -0.27755,-0.6427 -0.39355,-0.97178c-0.58986,-1.67978 -1.52852,-3.0141 -3.36462,-3.4881c-0.27676,-0.07135 -0.53871,-0.19622 -0.8142,-0.27553c-1.00785,-0.28905 -2.02474,-0.54739 -3.02582,-0.85922c-0.98133,-0.30417 -1.99691,-0.36335 -2.99784,-0.53109c-1.07855,-0.18037 -2.11634,-0.17425 -3.10611,0.21869c-1.18852,0.47131 -2.36779,0.99495 -3.47381,1.63113c-0.78973,0.4547 -1.51879,1.06854 -2.15237,1.72961c-0.74659,0.77834 -1.37891,1.66958 -2.03039,2.53517c-1.02125,1.35843 -2.02595,2.73043 -2.28211,4.48581c-0.03125,0.21507 -0.19282,0.40775 -0.25708,0.62271c-0.09004,0.29714 -0.19841,0.60367 -0.20267,0.9087c-0.00725,0.6021 0.13618,1.21627 0.06527,1.80722c-0.20171,1.68317 0.27838,3.23519 0.90134,4.73398c0.46094,1.11013 1.05748,2.17478 1.69451,3.19578c0.59245,0.94846 1.04658,2.08237 2.31688,2.39225c0.02682,0.0059 0.04453,0.04452 0.06881,0.06635c0.60306,0.5736 1.33123,0.84824 2.14915,0.9538c1.04804,0.13531 2.08958,0.31543 3.13375,0.47663z" fill="#30419a" fill-rule="nonzero"/><path d="M291.40288,186.01926c0.14772,-1.5359 0.27656,-2.74826 0.90764,-3.84065c0.0797,-0.1384 0.1638,-0.28866 0.18903,-0.4439c0.18611,-1.13038 0.84098,-2.09691 1.61772,-2.76017c1.1311,-0.96552 2.05194,-2.22427 3.71607,-2.58652c1.75484,-0.38221 3.42242,-0.49021 5.18526,-0.12873c1.43295,0.29334 2.75477,0.76705 4.00258,1.50743c0.65628,0.38929 1.16129,0.87354 1.36757,1.64191c0.08176,0.30592 0.2787,0.5787 0.40687,0.87317c0.1032,0.2336 0.2739,0.48348 0.2571,0.71505c-0.05774,0.76449 0.21323,1.45399 0.39135,2.16738c0.05384,0.21393 0.09128,0.43932 0.09588,0.6596c0.04233,1.89449 -0.56906,3.5909 -1.60789,5.14485c-0.42673,0.63901 -0.90625,1.24123 -1.36138,1.86228c-0.90298,1.23334 -2.16594,1.9843 -3.51941,2.60014c-1.41951,0.64564 -2.90874,1.04379 -4.47599,0.99507c-1.6552,-0.05168 -3.13701,-0.58781 -4.35021,-1.76226c-0.29555,-0.2861 -0.60666,-0.55571 -0.89394,-0.84954c-0.78545,-0.80286 -1.31667,-1.72725 -1.38374,-2.88616c-0.02125,-0.34991 -0.13674,-0.69399 -0.20207,-1.04238c-0.13294,-0.71788 -0.26285,-1.43665 -0.34244,-1.86657zM298.56861,192.72098c0.82409,-0.04832 1.59564,0.03767 2.27992,-0.16744c0.78034,-0.2349 1.50794,-0.68669 2.20995,-1.12133c0.59365,-0.36625 1.19474,-0.77527 1.65331,-1.29014c0.54599,-0.61499 0.98553,-1.33762 1.39989,-2.05509c0.70978,-1.23083 1.26651,-2.52184 1.11911,-3.99963c-0.06068,-0.60538 -0.03533,-1.23989 -0.21742,-1.80533c-0.11765,-0.36916 -0.23669,-0.69735 -0.23926,-1.09666c-0.00256,-0.66746 -0.30409,-1.22191 -0.78951,-1.6935c-0.99305,-0.96694 -2.20846,-1.45107 -3.53474,-1.73283c-1.34217,-0.28529 -2.66186,-0.19761 -3.95121,0.23729c-1.81971,0.61517 -3.01539,1.95372 -3.82975,3.61628c-0.4437,0.90559 -0.67974,1.91423 -0.9964,2.88013c-0.03681,0.11283 0.03337,0.25727 0.01324,0.37966c-0.14338,0.84166 0.10824,1.63056 0.24584,2.44765c0.2379,1.40479 0.59101,2.68639 1.58182,3.80934c0.87614,0.99202 1.9141,1.42716 3.05521,1.59162z" fill="#30419a" fill-rule="nonzero"/></g></g><g><g><path d="M203.49209,158.09372l-10.32282,-0.68446l-2.97426,0.46326l-1.64087,0.92035l-1.49572,1.0373l-2.15981,0.79083l-2.75187,0.54478l-3.49608,-0.68093l-0.98773,-0.70861l-0.68326,-1.93707l-0.51222,0.77121l-1.68262,1.03101l-2.85372,0.24119l-3.52777,-0.8691l-2.79111,-2.72038l0.13493,-4.01073l1.03758,-3.00381l2.23166,-2.92662l-0.66856,-3.47444l1.04795,-3.34166l2.59008,-2.42729c0,0 3.81384,0.1283 3.92678,0.1321c0.11194,0.00377 4.36095,2.81121 4.36095,2.81121l5.10802,6.21225l5.37205,3.89582l3.55291,1.99558l3.83164,1.82986l4.98189,3.26935z" fill="#ffffff" fill-rule="evenodd"/><path d="M168.08685,145.87641c-0.89451,-1.07068 -0.73121,-2.3259 -0.39547,-3.50228c0.36879,-1.29633 0.88576,-2.56567 1.47984,-3.77738c1.00461,-2.05338 3.64873,-3.11308 5.85115,-2.49368c2.3323,0.65479 4.3052,1.88081 5.91975,3.67611c0.79662,0.88729 1.54468,1.81996 2.28768,2.75447c1.82964,2.30182 3.73545,4.48113 6.27058,6.09628c2.24028,1.42713 4.54978,2.67048 6.97008,3.74347c1.35363,0.59885 2.71248,1.22089 3.96918,1.99458c1.41451,0.87105 2.91466,1.57589 4.32945,2.43894c0.37842,0.23185 0.81073,0.37847 1.21552,0.57019c0.17335,0.08187 0.35899,0.15516 0.50404,0.2751c0.28817,0.23782 0.4804,0.53145 0.31391,0.93008c-0.15453,0.37001 -0.45166,0.57714 -0.83813,0.52512c-1.39657,-0.18506 -2.78816,-0.39897 -4.18199,-0.60595c-0.82534,-0.12282 -1.64552,-0.3095 -2.47511,-0.36543c-1.41562,-0.09465 -2.84204,-0.04658 -4.25465,-0.17115c-1.93834,-0.17127 -3.66396,0.62116 -5.46343,1.08092c-0.28866,0.07434 -0.53211,0.35131 -0.78104,0.55305c-1.16035,0.94252 -2.37017,1.80933 -3.85535,2.14659c-0.71489,0.16306 -1.45997,0.27207 -2.1912,0.26648c-1.09236,-0.00773 -2.18762,-0.10761 -3.27541,-0.22125c-1.41184,-0.14755 -2.42976,-0.82116 -2.73085,-2.28111c-0.10754,-0.01562 -0.19124,-0.05546 -0.2211,-0.03045c-1.09235,0.94381 -2.36464,1.25821 -3.77962,1.14457c-0.70649,-0.05679 -1.41806,-0.05171 -2.12749,-0.08058c-2.67078,-0.11086 -4.51812,-1.52977 -5.83751,-3.74138c-0.46131,-0.77195 -0.55145,-1.66148 -0.46899,-2.5362c0.19613,-2.08258 0.76719,-4.06751 1.86886,-5.85347c0.53657,-0.87045 1.22506,-1.64674 1.89733,-2.53564zM200.15158,156.59556c-0.81049,-0.50454 -1.42814,-0.88252 -2.03944,-1.27029c-2.23059,-1.4178 -4.43575,-2.87777 -6.69601,-4.24654c-2.22991,-1.34874 -4.62744,-2.44397 -6.53502,-4.27314c-0.90336,-0.86686 -1.74741,-1.80177 -2.5578,-2.75556c-0.89704,-1.05476 -1.67456,-2.21255 -2.59539,-3.2441c-1.21974,-1.36678 -2.70471,-2.34426 -4.45861,-2.97159c-1.40683,-0.50459 -2.65765,-0.47162 -3.80028,0.50951c-0.40392,0.34762 -0.80629,0.76833 -1.03131,1.24103c-0.45844,0.95713 -0.81355,1.96576 -1.17339,2.96623c-0.12811,0.3579 -0.18143,0.75333 -0.2033,1.13581c-0.06578,1.12242 0.60282,1.88934 1.73085,2.02634c0.25512,0.03059 0.51981,0.01449 0.76692,0.07483c0.40285,0.1006 0.69726,0.50973 0.62542,0.86051c-0.07687,0.38163 -0.31099,0.64891 -0.71714,0.67627c-0.35298,0.02315 -0.71908,0.04985 -1.06094,-0.01968c-1.07127,-0.21814 -1.79282,0.26187 -2.36129,1.09923c-0.12635,0.18686 -0.25957,0.36948 -0.37517,0.5637c-0.77574,1.31766 -1.39289,2.7097 -1.60401,4.22646c-0.11656,0.84756 -0.26262,1.8282 0.04065,2.56882c0.69353,1.69127 2.0221,2.8566 3.89644,3.11577c1.20708,0.16668 2.4454,0.1483 3.66988,0.15448c0.81435,0.00338 1.50237,-0.34268 1.98365,-1.02689c0.31426,-0.44869 0.64039,-0.89297 0.90555,-1.36933c0.22257,-0.39974 0.4606,-0.72392 0.96422,-0.61493c0.51655,0.11143 0.58312,0.5119 0.59374,0.96951c0.01433,0.64485 0.04258,1.29216 0.12917,1.93043c0.11401,0.83431 0.38999,1.16677 1.22743,1.25698c1.34191,0.1442 2.70171,0.292 4.04282,0.22205c0.83495,-0.04395 1.69142,-0.40036 2.45854,-0.77778c0.71221,-0.35125 1.31189,-0.92642 1.97559,-1.38236c0.39636,-0.27183 0.78878,-0.60482 1.23447,-0.73691c2.1586,-0.63578 4.29793,-1.35326 6.62588,-1.07483c1.35633,0.16169 2.74178,0.11225 4.33787,0.16594z" fill="#30419a" fill-rule="nonzero"/></g><g><path d="M214.4536,209.15214l-4.10753,4.14024l-5.10612,4.85507l-2.20309,4.27835l-0.45645,4.6753l-0.79089,3.46337l-1.45255,2.0143l-1.9191,1.39827l-1.91801,0.23565l-3.29913,-0.97347l-0.42536,-2.94096l-2.60324,0.58781l-3.24812,-0.25936l-1.49209,-3.50215l0.82644,-4.54979l1.74357,-1.74236l-2.83902,-1.29619l-1.2605,-2.59385l-0.67603,-4.41222l1.96832,-2.86144l4.27072,-1.16907l6.13353,0.20634l4.20179,1.98039l2.45503,0.4568l2.58303,0.01285l3.42325,-0.48518l5.64501,-1.98733l0.54655,0.46864" fill="#ffffff" fill-rule="evenodd"/><path d="M191.75662,231.73078c-0.99594,0.07055 -2.04728,0.15225 -3.09998,0.21489c-1.0557,0.06254 -1.90425,-0.53032 -2.80282,-0.94477c-0.15966,-0.07241 -0.26075,-0.33896 -0.32812,-0.53734c-0.12585,-0.36344 -0.13688,-0.77904 -0.31598,-1.10625c-0.58345,-1.06722 -0.76887,-2.27714 -0.61862,-3.38271c0.22325,-1.63942 0.09329,-3.48683 1.75884,-4.72454c-0.38321,-0.23802 -0.66486,-0.4316 -0.96255,-0.5947c-0.92253,-0.5053 -1.5371,-1.24238 -1.82772,-2.26974c-0.4471,-1.58093 -0.95107,-3.13675 -1.03091,-4.80838c-0.0966,-1.97637 0.69534,-3.3295 2.31925,-4.45954c1.87796,-1.3056 3.92186,-1.53601 6.07133,-1.51372c1.2573,0.01228 2.521,0.01277 3.76946,0.13882c0.78584,0.07747 1.5787,0.30325 2.31733,0.59425c1.01708,0.40142 1.99461,0.90758 2.97042,1.40567c1.52378,0.77567 3.15951,0.87072 4.80483,0.76998c1.12196,-0.06932 2.23508,-0.29202 3.34692,-0.47674c0.37734,-0.06335 0.75274,-0.1878 1.10509,-0.34104c2.09362,-0.90512 4.18277,-1.8264 6.27086,-2.74571c0.35139,-0.15427 0.69581,-0.19071 0.99166,0.08639c0.33372,0.3114 0.29738,0.7074 0.11997,1.07364c-0.28155,0.57686 -0.60052,1.13545 -0.90665,1.69948c-0.0299,0.05603 -0.07179,0.11165 -0.12204,0.14798c-2.15322,1.5765 -3.96303,3.56277 -6.11139,5.14343c-1.31327,0.96739 -2.35883,2.18593 -3.34454,3.46951c-0.2334,0.30533 -0.48209,0.61914 -0.78496,0.84809c-1.16536,0.88332 -1.67344,2.0669 -1.75264,3.49905c-0.09658,1.74074 -0.17831,3.48598 -0.37859,5.21622c-0.28708,2.49576 -1.28831,4.6273 -3.36373,6.1814c-0.79544,0.59459 -1.6591,0.83769 -2.61277,0.84163c-0.70947,0.00215 -1.41883,-0.05874 -2.1282,-0.05959c-0.68835,-0.00114 -1.25482,-0.26434 -1.73011,-0.73959c-0.31842,-0.31989 -0.6743,-0.62703 -0.90266,-1.00692c-0.28709,-0.47792 -0.46286,-1.02314 -0.72097,-1.61916zM194.09882,230.75298c-0.6218,0.25124 -0.59191,0.79055 -0.51711,1.30335c0.08291,0.56911 1.12573,1.45467 1.73564,1.4972c0.60995,0.04153 1.22467,0.06021 1.8374,0.0488c0.76088,-0.01343 1.43528,-0.25189 2.03391,-0.76605c1.6146,-1.3885 2.34292,-3.20004 2.53021,-5.2579c0.15126,-1.67086 0.2267,-3.34827 0.33806,-5.02247c0.11427,-1.73114 0.80096,-3.16786 2.16847,-4.2605c0.19947,-0.15938 0.40145,-0.33369 0.5485,-0.54086c1.17485,-1.64143 2.57497,-3.04915 4.19455,-4.25838c0.95452,-0.71331 1.83542,-1.52815 2.71601,-2.334c0.43971,-0.40044 0.80223,-0.88553 1.13912,-1.26341c-0.01313,0.00356 -0.16025,0.03463 -0.30009,0.08696c-0.57351,0.21384 -1.12753,0.50237 -1.71841,0.63758c-1.81495,0.41421 -3.63393,0.79927 -5.4421,1.24973c-2.00191,0.49897 -4.09716,0.32243 -6.02238,-0.68487c-1.00002,-0.52192 -2.0201,-1.01249 -3.05679,-1.4556c-0.49416,-0.21173 -1.04344,-0.36129 -1.57754,-0.39726c-1.35072,-0.09047 -2.7071,-0.10208 -4.0634,-0.1457c-1.879,-0.06121 -3.63505,0.23792 -5.19139,1.44127c-0.82697,0.63956 -1.32707,1.31813 -1.35665,2.40575c-0.04221,1.52244 0.46824,2.91539 0.78682,4.36092c0.27856,1.26708 1.074,1.95121 2.21023,2.32062c0.54438,0.1764 1.12873,0.23508 1.69879,0.3323c0.22183,0.03848 0.45154,0.02119 0.67344,0.05768c0.4428,0.07293 0.69887,0.34269 0.68158,0.79737c-0.01713,0.44968 -0.29775,0.70139 -0.73309,0.76378c-0.18907,0.02866 -0.38705,-0.00502 -0.57885,0.01555c-1.0897,0.12143 -2.29249,1.28465 -2.36278,2.36289c-0.08649,1.32184 -0.2074,2.65553 -0.12765,3.97295c0.08956,1.47184 0.47475,1.91905 1.93568,1.9752c0.58057,0.02253 1.16438,0.00815 1.74071,0.06756c0.79367,0.08273 1.40101,-0.06593 1.89413,-0.80477c0.52155,-0.78091 1.19303,-0.63525 1.59781,0.24086c0.17432,0.38008 0.35377,0.75632 0.58719,1.25345z" fill="#30419a" fill-rule="nonzero"/></g><g fill="#000000" fill-rule="evenodd" font-family="&quot;Helvetica Neue&quot;, Helvetica, Arial, sans-serif" font-weight="400" font-size="16" text-anchor="start"/><g><path d="M159.69647,118.47282l-0.92483,0.78235l-1.69504,-0.05702l-0.93779,-1.80655l0.45052,-1.52471l2.09382,0.07044l1.06039,1.1363l-0.04707,1.39921" fill="#ffffff" fill-rule="evenodd"/><path d="M160.19572,117.31395c-0.06926,2.05884 -2.0388,3.23128 -3.78897,2.40397c-0.25905,-0.12178 -0.52007,-0.24462 -0.76739,-0.38802c-0.62521,-0.36123 -1.02876,-0.85707 -0.98159,-1.63493c0.03854,-0.64007 0.00596,-1.27752 0.47646,-1.82001c0.81924,-0.94499 2.26376,-1.2636 3.51341,-0.72628c0.05819,0.02497 0.11295,0.06283 0.17324,0.08487c1.02841,0.3918 1.59709,1.0653 1.37483,2.0804zM158.53272,116.95883c-0.72993,-0.43079 -1.48286,-0.59419 -1.82251,-0.37249c-0.44601,0.29017 -0.45357,0.72316 -0.34447,1.16808c0.67478,0.46395 1.33791,0.79843 2.1351,0.15187c0.00982,-0.29183 0.02122,-0.63064 0.03187,-0.94746z" fill="#30419a" fill-rule="nonzero"/></g></g></g></g></svg>