<svg version="1.1" xmlns="http://www.w3.org/2000/svg" xmlns:xlink="http://www.w3.org/1999/xlink" width="856.93789" height="644.64428" viewBox="0,0,856.93789,644.64428"><g transform="translate(187.00465,159.98031)"><g data-paper-data="{&quot;isPaintingLayer&quot;:true}" fill-rule="nonzero" stroke="none" stroke-linecap="butt" stroke-linejoin="miter" stroke-miterlimit="10" stroke-dasharray="" stroke-dashoffset="0" style="mix-blend-mode: normal"><path d="M-124.59229,27.75133l-0.15858,-0.03072l-3.61633,-1.52759l-4.53827,-2.47543l-0.14787,-0.07175l-0.00753,-0.01301l-6.3173,-3.44581l-2.36374,-1.61371l-0.449,-0.17352l-0.23376,-0.2926l-0.19573,-0.13362l-6.23504,-6.51564l-0.99125,-2.64074l-1.68929,-2.11446l-0.24172,-3.02991l-1.06816,-2.84566l0.63118,-2.63178l-0.22431,-2.81172l2.877,-8.54706l0.12043,-0.20411l0.08734,-0.36418l0.33278,-0.34781l1.45445,-2.46493l3.19172,-4.35236l-0.02959,-0.19029l-9.92733,-3.26305l-4.728,-6.10767l-5.08616,-5.8128l-1.40838,-11.26736l0.38737,-1.34736l-0.28256,-2.14753l2.11764,-4.23525l0.2694,-0.93704l1.84179,-3.46687l0.36309,-0.54464l0.48623,-0.97244l0.37239,-0.31548l0.22868,-0.34302l0.38971,-0.9353l1.24781,-1.21408l1.40593,-1.71156l1.98654,-1.58922l1.82336,-1.77407l1.87273,-1.18277l1.35949,-1.08759l0.97641,-0.27068l0.07295,-0.03648l0.022,-0.59169l-0.99904,-5.87475l1.32612,-2.92209l0.07936,-2.13444l2.34208,-3.20118l0.94502,-2.08233l1.74588,-1.59562l1.67182,-2.28506l2.35511,-1.3953l0.8841,-0.808l3.38302,-1.99162l13.013,-6.00601l0.32628,-0.11276l0.3022,-0.16688l21.02102,-9.00901l0.55143,-0.17374l0.51846,-0.25586l39.89816,-14.96182l35.89482,-13.95911l0.59343,-0.16502l0.56206,-0.25196l30.03003,-10.01l1.25777,-0.28401l1.22466,-0.40358l18.01801,-4.00399l3.89797,-0.46605l0.70372,0.06307l2.2191,-0.3481l3.32823,0.84527l2.73123,0.24478l1.57957,0.85003l3.36662,0.85501l1.63628,1.83723l3.41666,1.83863l2.54237,4.85221l2.36218,2.65227l0.61202,3.02411l1.43198,2.73299l-0.16082,3.54803l1.0866,5.36906l-1.49229,3.58151l-0.1114,2.45773l-2.07371,2.78655l-0.68991,1.65578l-1.96539,1.91226l-2.05007,2.75478l-1.94178,1.12919l-0.50639,0.49271l-0.09947,0.06282l1.72639,3.0052l-0.0772,1.05518l5.4561,-1.47463l2.08199,-0.34517l2.07056,-0.40814l17.28823,-1.64647l1.12772,-0.54969l1.86538,0.26464l0.73969,-0.07045l3.92569,0.01852l8.81428,1.9073l8.37668,5.94746l30.0041,-10.56963l1.00808,-0.24566l0.97272,-0.36112l65.06503,-17.01699l0.46008,-0.07243l0.44235,-0.14577l3.24033,-0.72008l28.707,-10.3939l1.07516,-0.27193l1.03853,-0.38905l34.03398,-9.00901l1.15663,-0.18559l1.1306,-0.30661l6.006,-1.00104l3.91732,-0.25689l0.3309,0.04761l1.85777,-0.24627l3.78769,1.05853l2.95,0.42444l1.2128,0.73892l2.98551,0.83434l1.73091,2.03921l3.76778,2.29557l2.12747,4.64966l2.0624,2.42973l0.60375,3.39724l1.43563,3.13762l-0.3144,3.17148l0.8947,5.03439l-1.79338,4.03108l-0.05295,0.53409l99.21832,-26.79056l1.05744,-0.17505l1.03075,-0.2939l49.20917,-8.85764l0.80426,-0.0632l0.78845,-0.17083l18.85896,-2.15334l3.49148,-0.04896l1.67238,-0.19923l4.50811,1.32436l3.10186,0.6106l0.77404,0.52804l2.51064,0.73756l1.84691,2.23509l4.24865,2.89837l1.49483,3.76821l0.67531,0.03973l0.2472,0.03949l2.98034,-0.21807l2.88307,1.65624l6.18431,2.376l2.96121,2.87781l0.95344,0.54773l0.49274,0.85772l3.73568,3.63047l0.93752,4.50437l2.29183,3.98947l-0.38014,5.19531l0.20156,0.96842l-0.34873,1.04281l-0.30133,4.11822l-0.5153,0.99624l26.24568,-4.27254l1.39068,-0.08592l1.37777,-0.20771l20.01999,-1.00098l0.95687,0.04761l0.29155,-0.07879l0.4231,0.11435l2.24936,0.11191l8.71957,2.30182l1.08076,0.84295l1.98033,0.53522l2.00113,2.3171l1.50649,-0.38967l4.65901,0.70983l3.1565,0.19098l0.83073,0.41649l2.57925,0.39297l2.13222,1.96919l4.60851,2.31053l2.26869,4.04082l1.9893,1.8372l1.14964,3.75368l1.9219,3.42316l-0.04426,2.70753l1.25835,4.1086l4.83985,0.43998l3.85485,0.74267l1.57967,0.66548l3.09105,0.30647l2.43078,2.01974l1.2094,0.50948l2.41692,2.50362l2.67652,2.22392l0.59807,1.16814l2.19502,2.27375l0.53563,3.05967l0.78117,1.52577l1.02746,3.78889l1.00094,6.00601l0.25328,3.86312l0.1616,0.60542l1.07428,0.57755l5.30534,2.50132l0.30602,0.51546l0.70327,0.37809l3.62869,6.91877l3.00494,5.06158l0.0053,0.67799l0.31492,0.60045l-0.26418,5.88043l0.06116,7.81236l-0.442,0.66496l-0.0269,0.59886l-3.49984,4.70684l-2.31707,3.48584l-0.53582,0.35093l-0.4227,0.56848l-4.00101,2.32882l-2.58468,1.69283l-0.97863,0.38122l-0.2298,0.13375l-0.74281,0.24512l-1.70675,0.66486l-2.99381,0.83434l0.3962,1.37813l-0.57486,4.59863l0.31614,3.05211l-0.91039,1.70164l-0.23939,1.91496l-2.0206,2.30922l-2.18624,4.08635l-4.64221,3.71749l-1.00995,1.15422l-0.743,0.24955l-0.64417,0.51585l-3.50565,1.76686l-0.614,0.23616l0.22067,3.03989l3.03182,0.96467l0.56825,0.115l0.11496,0.10238l1.2048,0.38335l8.59375,7.42188l0.32802,1.21368l0.93885,0.83615l2.79513,11.00564l-0.19592,1.24905l0.04017,0.14861l-0.15126,0.55968l-0.39869,2.54176l2.25563,1.61611l0.93648,2.52916l0.56487,0.52437l1.68386,5.54876l2.01349,5.43783l-0.1329,0.75919l0.78318,2.58076l-2.84716,9.20928l-0.38482,2.19819l-4.96793,5.14613l-0.99229,1.16822l-0.53455,0.41338l-1.39176,1.44169l-1.03788,0.43723l-0.14127,0.10925l-11.03754,6.89844l1.87751,6.94679l2.27913,6.7856l1.12589,0.35824l8.59375,7.42188l1.36527,5.05147l1.45904,-0.24318l0.01151,-0.00075l0.97359,-0.33942l2.04818,0.14127l0.88405,-0.05797l1.58772,0.22845l6.80818,0.46955l1.52832,1.19432l8.69912,5.30011l1.06682,2.33161l0.50258,0.39275l2.19488,5.50273l2.46491,5.38719l-0.06292,0.63473l0.94996,2.38162l-2.17269,9.95215l-0.19135,1.93017l-4.36125,5.24894l-0.93103,1.30622l-0.65235,0.59945l-1.31204,1.5791l-0.61801,0.31642l0.0519,0.09713l2.77364,3.63131l0.25441,2.0353l0.9667,1.80904l-0.16849,4.53135l0.24905,0.23977l1.43545,5.05941l1.95596,4.88184l-0.19563,1.32261l0.89069,3.13934l-2.46073,7.47502l-0.42505,2.87358l-7.66769,8.37517l-1.36019,0.61587l-0.74779,0.55686l-10.01004,6.00601l-1.80629,0.85202l-1.77131,0.92256l-2.07664,0.83065l4.12653,3.10967l0.00316,0.00225l0.00038,0.00042l2.7414,2.06585l0.59352,1.72978l2.32394,3.09861l0.70109,1.15949l0.28812,0.25916l0.14844,0.46284l0.8936,1.47789l2.96871,8.51564l-0.11635,1.68696l0.67769,2.11316l-1.07803,3.69146l-0.2646,3.83653l-1.36645,1.74858l-0.36086,1.23567l1.60535,1.38644l0.71794,2.65637l0.54899,0.61641l1.13993,5.6326l1.49939,5.54774l-0.21536,0.79685l0.54582,2.697l-3.62811,8.70747l-0.60859,2.2518l-5.40592,4.66875l1.828,6.44299l-3.55057,10.78565l-0.43953,0.4988l-0.43996,1.62784l-4.16149,3.59402l-0.92128,1.04549l-2.10027,1.56403l-1.41071,1.21834l-0.7815,0.24866l-1.33829,0.80297l-0.27544,4.13158l-0.00318,0.16736l0.59929,-0.01104l1.31835,-0.3374l1.80563,0.27984l0.16774,-0.00309l0.7799,0.14996l8.4678,1.31236l2.00031,1.85689l7.01636,4.74133l1.13552,2.8261l0.82043,0.76161l1.5876,5.23156l2.03831,5.07297l-0.16198,1.10256l1.74508,1.20336l0.92885,2.37627l0.47045,0.41163l1.89013,5.6274l2.1612,5.52896l-0.09669,0.61758l0.81235,2.41857l-2.73639,9.8706l-0.29508,1.88475l-4.63119,4.97347l-1.0045,1.25562l-0.70064,0.57553l-1.40185,1.50546l-0.93667,0.4146l-11.36956,7.57974l3.01532,2.40817l1.5341,4.91738l2.79712,4.32552l-0.0891,4.35471l0.21674,0.6947l-0.25356,1.10519l-0.10635,5.19806l-2.20434,4.87367l-0.78363,3.41566l-2.48019,2.31425l-0.5711,0.77812l-2.62773,2.91971l-0.57441,0.71239l-2.83684,3.64742l-0.18803,0.10406l-0.1478,0.1833l-0.83344,0.44232l-1.1659,1.29545l-0.52853,0.87799l-1.42442,1.02688l-1.5854,1.44271l-2.21926,1.3001l-2.08641,1.5041l-1.96055,0.86669l-1.51513,0.8876l-1.01672,0.1284l-57.15623,18.72352l-0.87549,0.19293l-0.84377,0.30289l-52.052,13.01305l-0.44617,0.06529l-0.42961,0.137l-33.03304,7.00703l-1.21976,0.13392l-0.06162,0.01961l-1.31112,0.13111l-1.30979,0.1438l-0.06434,-0.00639l-1.221,0.1221h-8.72609l-0.7931,0.33046l-1.63285,-0.33046h-1.86101l-3.90625,-0.39062l-6.70597,-2.13372l-0.56812,-0.11498l-0.11492,-0.10235l-1.20474,-0.38333l-8.59375,-7.42187l-0.32803,-1.21373l-0.9389,-0.8362l-2.35391,-9.26852l-6.13388,1.30111l-0.08361,0.00918l-0.08031,0.02501l-39.03904,8.00807l-0.75305,0.07758l-0.73505,0.1811l-20.73341,2.96191l-5.71942,0.95318l-1.8514,0.12139l-1.72233,0.40758l-7.4841,-1.29962l-1.78584,-0.25698l-0.12198,-0.07431l-1.7957,-0.31182l-2.21329,-2.1308l-5.56595,-3.39124l-0.05722,-0.12507l-0.99939,0.14277l-1.77138,0.07485l-1.76416,0.17641h-7.00703l-0.88999,-0.089l-21.87171,1.98831l-3.92557,-0.03537l-1.7914,-0.39569l-3.36757,-0.21267l-1.87178,-0.94463l-1.77526,-0.39213l-2.37847,-1.70412l-2.69394,-1.35953l-1.23892,0.65749l-3.77337,1.08308l-6.49094,1.18015l-9.29573,3.01129l-1.22511,0.26575l-0.19425,0.06281l-0.18428,0.0193l-2.23287,0.48434l-2.5172,0.01315l-4.03487,0.42259l-1.27665,-0.39484l-1.18945,0.00621l-3.32733,-1.40317l-1.31594,-0.407l-53.63624,7.88763l-0.93438,0.04333l-0.92175,0.15915l-56.05603,4.00404l-1.81391,-0.05146l-1.81404,0.04669l-27.02703,-2.00198l-1.64647,-0.28875l-0.19248,0.00042l-1.01071,-0.21143l-1.01706,-0.17836l-0.17861,-0.07175l-1.63618,-0.34226l-4.3079,-1.36039l-0.50411,0.10325l-1.65126,0.1696l-1.63635,0.27898l-99.76069,6.91414l-1.5455,-0.04711l-1.54464,0.06984l-55.05509,-3.00301l-1.02141,-0.15872l-1.03294,-0.03865l-28.70186,-3.95891l-8.6808,-0.96447l-1.08546,-0.23172l-0.06016,-0.00602l-0.06521,-0.02074l-2.62839,-0.5611l-2.16979,-0.9656l-3.73036,-1.18694l-1.13026,-0.97613l-1.20884,-0.53795l-2.35851,-2.54293l-3.89614,-3.36486l-0.31885,-1.17974l-1.14813,-1.23792l-0.35928,-2.32504l-6.06922,0.2529l-3.91912,-0.22767l-2.21533,-0.60455l-3.79331,-0.57097l-1.34432,-0.83107l-1.34718,-0.36764l-2.65518,-2.10667l-4.31172,-2.66555l-0.5282,-1.17452l-1.40018,-1.11093l-2.11675,-6.70938l-2.09551,-4.65962l0.15695,-1.48494l-0.44926,-1.42402l1.12653,-4.98339l0.73951,-6.9964l1.15116,-1.3673l0.28395,-1.25613l3.69518,-3.47014l2.18295,-2.59283l1.2471,-0.62833l0.70768,-0.66458l0.01089,-0.33131l2.80954,-3.87491l-1.34341,0.15844l-2.61972,-0.77294l-4.38098,-0.5147l-1.37208,-1.18274l-2.5181,-0.74296l-4.06654,-4.93304l-3.38334,-2.91646l-0.70172,-2.03904l-1.37166,-1.66392l-0.7182,-4.40873l-2.08038,-6.04514l0.68263,-2.53512l-0.29126,-1.78792l1.85084,-4.00403l0.71018,-2.63743l1.23135,-1.56277l0.97205,-2.1029l2.36253,-2.12921l1.01543,-1.28874l3.01497,-2.51422l12.12216,-8.21179l-1.14543,-1.09884l-2.45459,-2.02599l-4.40653,-0.36907l-6.33511,-0.44469l-0.1228,-0.0962l-0.20283,-0.01699l-6.4534,-5.19769l-5.00657,-3.92228l-0.06436,-0.16194l-0.13572,-0.10931l-2.26922,-5.94143l-3.06058,-7.70034l0.04366,-0.1988l-0.05566,-0.14573l1.44561,-6.18398l1.00183,-4.56227l0.09611,-0.1345l0.04119,-0.17619l3.02853,-4.11946l2.07752,-2.9072l0.18336,-0.16808l0.05238,-0.07126l0.948,-0.84576l1.71012,-1.56761l25.06015,-18.74729l-1.51544,-1.46432l-1.00661,-3.57283l-2.73524,-4.93026l0.32093,-3.63896l-0.63916,-2.26861l1.14378,-3.45318l0.17201,-1.95037l1.23956,-2.31129l0.3573,-1.07871l-2.6547,-0.47281l-1.06757,0.00937l-0.50726,-0.28986l-3.93416,-0.70069l-2.12735,-2.06585l-1.95574,1.12897l-1.10664,0.36078l-2.34163,1.35152l-2.85106,0.34136l-2.27481,0.74161l-2.24392,-0.20059l-3.90472,0.46751l-1.9201,-0.98822l-3.24119,-0.28974l-4.59437,-3.74297l-3.55642,-1.83038l-1.41533,-2.22005l-2.04119,-1.66293l-1.40617,-3.74447l-3.18568,-4.99695l0.08759,-3.25293l-0.75919,-2.02163l0.9166,-3.8243l0.06063,-2.25206l1.00009,-2.17361l0.66925,-2.79233l1.61363,-2.16934l0.48651,-1.05741l2.3432,-3.14973l31.03106,-34.03406l1.33265,-1.19706l1.26361,-1.26973l4.31082,-3.54445l0.59823,-2.20203l0.98956,-4.26399l0.26833,-0.36621l0.07688,-0.28298l-0.27731,-0.49202l-1.70192,-1.45114l-1.45044,-4.14195l-3.10057,-5.5012l0.22149,-2.72045l-0.61869,-1.76675l1.1035,-4.18797l0.21514,-2.64243l0.96099,-1.82117l0.6136,-2.3287l1.90573,-2.44568l0.72841,-1.38041l0.66116,-0.79469l-1.46135,-1.31855l-3.94202,-2.61584l-0.8317,-1.69138l-1.39938,-1.26263l-1.4378,-4.5072l-2.93759,-5.97404l0.31213,-2.25624l-0.48682,-1.52605l1.31935,-4.49197l0.41137,-2.97365l0.90243,-1.49945l0.5668,-1.92975l2.19603,-2.66086l0.98507,-1.63676l2.67639,-2.87199l8.92864,-7.84637l6.11239,-8.73203l1.06682,-1.24018l0.09352,-0.15857l0.71204,-0.77789l0.68772,-0.79948l0.14633,-0.11171l1.10455,-1.2067l1.56276,-1.39826l-0.19072,-0.36874l-0.04116,-0.56263l-0.78744,-1.37072l0.34359,-4.69571l-0.34356,-4.69571l0.78745,-1.37072l0.04117,-0.56263l2.44675,-4.73038l-3.35389,-8.38472l-0.37314,-1.29355l-0.04731,-0.09242l-0.32425,-1.19566l-0.34336,-1.19031l-0.00752,-0.10356l-0.35237,-1.29937l-0.54936,-3.29625l-0.09856,-0.19054l-0.05228,-0.71448l-0.30079,-1.80473l-0.25686,-3.91732l0.09212,-0.6402l-0.31083,-4.24802l1.2302,-2.14145l0.27291,-1.89667l3.05126,-5.00802z" fill="#000000" stroke-width="0.5"/><path d="M164.13444,69.31073c0,0.25 -0.25,0.25 -0.25,0.25c-0.66666,0 -1.33536,0 -2.00202,0c0,0 -0.25,0 -0.25,-0.25c0,-0.25 0.25,-0.25 0.25,-0.25c0.66666,0 1.33334,0 2,0h0.00202c0,0 0.25,0 0.25,0.25z" fill="#ffffff" stroke-width="0.5"/><path d="M259.00136,64.55476c-0.24905,0.02186 -0.2709,-0.22718 -0.2709,-0.22718l-0.01913,-0.21795c-0.09175,-1.04528 -0.48848,-1.75927 -0.95637,-2.69511c0,0 -0.1118,-0.22361 0.11181,-0.33541c0.22361,-0.1118 0.33541,0.11182 0.33541,0.11182c0.49507,0.99021 0.90963,1.7629 1.00724,2.87499l0.01913,0.21795c0,0 0.02186,0.24904 -0.22719,0.2709z" fill="#ffffff" stroke-width="0.5"/><path d="M252.79672,139.55756c-0.17677,-0.17678 0.00001,-0.35356 0.00001,-0.35356c0.58926,-0.58925 1.4128,-1.41277 2.00206,-2.00201c0,0 0.17678,-0.17678 0.35356,0c0.17677,0.17678 -0.00001,0.35356 -0.00001,0.35356c-0.58926,0.58925 -1.17853,1.1785 -1.76779,1.76775l-0.23427,0.23427c0,0 -0.17678,0.17678 -0.35356,0z" fill="#ffffff" stroke-width="0.5"/><path d="M90.63456,216.63465c-0.17678,-0.17677 0,-0.35356 0,-0.35356c0.2357,-0.2357 0.76533,-0.76533 1.00103,-1.00103c0,0 0.17678,-0.17677 0.35356,0c0.17678,0.17677 0,0.35355 0,0.35355c-0.2357,0.2357 -0.47141,0.47141 -0.7071,0.70711l-0.29393,0.29393c0,0 -0.17678,0.17677 -0.35356,0z" fill="#ffffff" stroke-width="0.5"/><path d="M58.95611,124.54255c-0.17677,0.17678 -0.35355,0 -0.35355,0c-0.58926,-0.58925 -1.41276,-1.41276 -2.00202,-2.00201c0,0 -0.17677,-0.17678 0,-0.35356c0.17677,-0.17678 0.35356,0 0.35356,0c0.58926,0.58925 1.17851,1.17851 1.76776,1.76776l0.23425,0.23426c0,0 0.17677,0.17677 0,0.35355z" fill="#ffffff" stroke-width="0.5"/><path d="M131.85239,148.6398c-0.25,0 -0.25,-0.25 -0.25,-0.25c0,-1 0,-2.00301 0,-3.00301c0,0 0,-0.25 0.25,-0.25c0.25,0 0.25,0.25 0.25,0.25c0,1 0,2 0,3v0.00301c0,0 0,0.25 -0.25,0.25z" fill="#ffffff" stroke-width="0.5"/><path d="M183.12846,197.32989c0.10894,0.22502 -0.11607,0.33396 -0.11607,0.33396l-0.26117,0.12645c-1.1271,0.54569 -3.81645,1.63463 -5.05644,0.69161c-0.53064,-0.40356 -0.82069,-2.32455 -1.03451,-2.96599c0,0 -0.07906,-0.23717 0.15811,-0.31623c0.23717,-0.07906 0.31623,0.15812 0.31623,0.15812c0.17058,0.51173 0.47745,2.43303 0.86283,2.72611c1.05862,0.80508 3.57011,-0.27606 4.53589,-0.74365l0.26117,-0.12645c0,0 0.22502,-0.10895 0.33396,0.11607z" fill="#ffffff" stroke-width="0.5"/><path d="M269.12822,143.17676c0.20801,0.13868 0.06934,0.34668 0.06934,0.34668c-0.64715,0.97073 -1.35483,2.03227 -2.00198,3.00301c0,0 -0.13867,0.20802 -0.34668,0.06934c-0.20801,-0.13868 -0.06934,-0.34669 -0.06934,-0.34669c0.64715,-0.97073 1.29428,-1.94146 1.94143,-2.91219l0.06054,-0.09081c0,0 0.13868,-0.20801 0.34669,-0.06934z" fill="#ffffff" stroke-width="0.5"/><path d="M290.7616,89.33072c0,-0.25 0.25,-0.25 0.25,-0.25c0.66667,0 1.33531,0 2.00198,0c0,0 0.25,0 0.25,0.25c0,0.25 -0.25,0.25 -0.25,0.25c-0.66667,0 -1.33333,0 -2,0h-0.00198c0,0 -0.25,0 -0.25,-0.25z" fill="#ffffff" stroke-width="0.5"/><path d="M197.66872,70.323c-0.01128,-0.24975 0.23846,-0.26103 0.23846,-0.26103l0.15895,-0.00718c1.32933,-0.06006 2.51794,-0.56146 3.77726,-0.98123c0,0 0.23717,-0.07906 0.31623,0.15811c0.07906,0.23717 -0.15811,0.31623 -0.15811,0.31623c-1.30531,0.4351 -2.53302,0.94404 -3.91281,1.00638l-0.15895,0.00718c0,0 -0.24974,0.01129 -0.26103,-0.23846z" fill="#ffffff" stroke-width="0.5"/><path d="M148.61943,108.34978c0,-0.13807 0.11193,-0.25 0.25,-0.25c0.13807,0 0.25,0.11193 0.25,0.25c0,0.13807 -0.11193,0.25 -0.25,0.25c-0.13807,0 -0.25,-0.11193 -0.25,-0.25z" fill="#ffffff" stroke-width="0.5"/><path d="M136.60742,156.39781c0,-0.13807 0.11193,-0.25 0.25,-0.25c0.13807,0 0.25,0.11193 0.25,0.25c0,0.13807 -0.11193,0.25 -0.25,0.25c-0.13807,0 -0.25,-0.11193 -0.25,-0.25z" fill="#ffffff" stroke-width="0.5"/><path d="M171.64242,142.38378c0,-0.13807 0.11193,-0.25 0.25,-0.25c0.13807,0 0.25,0.11193 0.25,0.25c0,0.13807 -0.11193,0.25 -0.25,0.25c-0.13807,0 -0.25,-0.11193 -0.25,-0.25z" fill="#ffffff" stroke-width="0.5"/><path d="M157.62844,83.32471c0,-0.13807 0.11193,-0.25 0.25,-0.25c0.13807,0 0.25,0.11193 0.25,0.25c0,0.13807 -0.11193,0.25 -0.25,0.25c-0.13807,0 -0.25,-0.11193 -0.25,-0.25z" fill="#ffffff" stroke-width="0.5"/><path d="M51.5223,67.30872c0,-0.13807 0.11193,-0.25 0.25,-0.25c0.13807,0 0.25,0.11193 0.25,0.25c0,0.13807 -0.11193,0.25 -0.25,0.25c-0.13807,0 -0.25,-0.11193 -0.25,-0.25z" fill="#ffffff" stroke-width="0.5"/><path d="M67.96512,89.5075c-0.17678,0.17678 -0.35355,0.00001 -0.35355,0.00001c-0.58926,-0.58925 -1.41276,-1.41272 -2.00202,-2.00198c0,0 -0.17678,-0.17677 0,-0.35355c0.17678,-0.17678 0.35355,-0.00001 0.35355,-0.00001c0.58926,0.58925 1.17853,1.17849 1.76779,1.76774l0.23423,0.23423c0,0 0.17678,0.17678 0,0.35356z" fill="#ffffff" stroke-width="0.5"/><path d="M204.06305,162.6119c-0.20808,0.13858 -0.34665,-0.0695 -0.34665,-0.0695l-0.0619,-0.09294c-1.47825,-2.21957 -1.98204,-3.37244 -1.98204,-6.05165c0,0 0,-0.25 0.25,-0.25c0.25,0 0.25,0.25 0.25,0.25c0,2.60994 0.45432,3.60653 1.89819,5.77448l0.0619,0.09295c0,0 0.13858,0.20808 -0.0695,0.34665z" fill="#ffffff" stroke-width="0.5"/><path d="M255.7265,213.45488c0,-0.13807 0.11193,-0.25 0.25,-0.25c0.13807,0 0.25,0.11193 0.25,0.25c0,0.13807 -0.11193,0.25 -0.25,0.25c-0.13807,0 -0.25,-0.11193 -0.25,-0.25z" fill="#ffffff" stroke-width="0.5"/><path d="M242.71355,247.48895c0,-0.13807 0.11193,-0.25 0.25,-0.25c0.13807,0 0.25,0.11193 0.25,0.25c0,0.13807 -0.11193,0.25 -0.25,0.25c-0.13807,0 -0.25,-0.11193 -0.25,-0.25z" fill="#ffffff" stroke-width="0.5"/><path d="M165.63641,229.47092c0,-0.13807 0.11193,-0.25 0.25,-0.25c0.13807,0 0.25,0.11193 0.25,0.25c0,0.13807 -0.11193,0.25 -0.25,0.25c-0.13807,0 -0.25,-0.11193 -0.25,-0.25z" fill="#ffffff" stroke-width="0.5"/><path d="M99.04297,230.36006c0.11181,0.2236 -0.1118,0.33541 -0.1118,0.33541c-0.59628,0.29815 -1.40573,0.70288 -2.00201,1.00103c0,0 -0.22361,0.1118 -0.33542,-0.1118c-0.11181,-0.2236 0.1118,-0.33541 0.1118,-0.33541c0.59628,-0.29815 1.19257,-0.59629 1.78885,-0.89444l0.21317,-0.10658c0,0 0.2236,-0.11181 0.33541,0.1118z" fill="#ffffff" stroke-width="0.5"/><path d="M165.63641,234.47589c0,-0.13807 0.11193,-0.25 0.25,-0.25c0.13807,0 0.25,0.11193 0.25,0.25c0,0.13807 -0.11193,0.25 -0.25,0.25c-0.13807,0 -0.25,-0.11193 -0.25,-0.25z" fill="#ffffff" stroke-width="0.5"/><path d="M264.23457,247.48895c0,0.25 -0.25,0.25 -0.25,0.25c-0.66667,0 -1.3354,0 -2.00207,0c0,0 -0.25,0 -0.25,-0.25c0,-0.25 0.25,-0.25 0.25,-0.25c0.66667,0 1.33333,0 2,0h0.00207c0,0 0.25,0 0.25,0.25z" fill="#ffffff" stroke-width="0.5"/><path d="M322.7936,232.47393c0,-0.13807 0.11193,-0.25 0.25,-0.25c0.13807,0 0.25,0.11193 0.25,0.25c0,0.13807 -0.11193,0.25 -0.25,0.25c-0.13807,0 -0.25,-0.11193 -0.25,-0.25z" fill="#ffffff" stroke-width="0.5"/><path d="M352.82363,221.46286c0,-0.13807 0.11193,-0.25 0.25,-0.25c0.13807,0 0.25,0.11193 0.25,0.25c0,0.13807 -0.11193,0.25 -0.25,0.25c-0.13807,0 -0.25,-0.11193 -0.25,-0.25z" fill="#ffffff" stroke-width="0.5"/><path d="M294.76554,274.51597c0,-0.13807 0.11193,-0.25 0.25,-0.25c0.13807,0 0.25,0.11193 0.25,0.25c0,0.13807 -0.11193,0.25 -0.25,0.25c-0.13807,0 -0.25,-0.11193 -0.25,-0.25z" fill="#ffffff" stroke-width="0.5"/><path d="M209.68047,293.53493c0,-0.13807 0.11193,-0.25 0.25,-0.25c0.13807,0 0.25,0.11193 0.25,0.25c0,0.13807 -0.11193,0.25 -0.25,0.25c-0.13807,0 -0.25,-0.11193 -0.25,-0.25z" fill="#ffffff" stroke-width="0.5"/><path d="M143.61441,298.53999c0,-0.13807 0.11193,-0.25 0.25,-0.25c0.13807,0 0.25,0.11193 0.25,0.25c0,0.13807 -0.11193,0.25 -0.25,0.25c-0.13807,0 -0.25,-0.11193 -0.25,-0.25z" fill="#ffffff" stroke-width="0.5"/><path d="M88.05834,299.54094c0,0.25 -0.25,0.25 -0.25,0.25c-0.66666,0 -1.33531,0 -2.00198,0c0,0 -0.25,0 -0.25,-0.25c0,-0.25 0.25,-0.25 0.25,-0.25c0.66666,0 1.33334,0 2,0h0.00198c0,0 0.25,0 0.25,0.25z" fill="#ffffff" stroke-width="0.5"/><path d="M106.00313,278.69669c-0.17678,0.17678 -0.35355,0.00001 -0.35355,0.00001c-0.23571,-0.2357 -0.76528,-0.76524 -1.00098,-1.00094c0,0 -0.17679,-0.17677 -0.00001,-0.35355c0.17678,-0.17678 0.35356,-0.00001 0.35356,-0.00001c0.23571,0.2357 0.47141,0.4714 0.70712,0.70709l0.29386,0.29384c0,0 0.17678,0.17678 0.00001,0.35356z" fill="#ffffff" stroke-width="0.5"/><path d="M215.68648,255.49692c0,-0.13807 0.11193,-0.25 0.25,-0.25c0.13807,0 0.25,0.11193 0.25,0.25c0,0.13807 -0.11193,0.25 -0.25,0.25c-0.13807,0 -0.25,-0.11193 -0.25,-0.25z" fill="#ffffff" stroke-width="0.5"/><path d="M280.75156,220.46191c0,-0.13807 0.11193,-0.25 0.25,-0.25c0.13807,0 0.25,0.11193 0.25,0.25c0,0.13807 -0.11193,0.25 -0.25,0.25c-0.13807,0 -0.25,-0.11193 -0.25,-0.25z" fill="#ffffff" stroke-width="0.5"/><path d="M313.78459,185.42681c0,-0.13807 0.11193,-0.25 0.25,-0.25c0.13807,0 0.25,0.11193 0.25,0.25c0,0.13807 -0.11193,0.25 -0.25,0.25c-0.13807,0 -0.25,-0.11193 -0.25,-0.25z" fill="#ffffff" stroke-width="0.5"/><path d="M292.76357,186.42785c0,-0.25 0.25,-0.25 0.25,-0.25c0.66667,0 1.3353,0 2.00197,0c0,0 0.25,0 0.25,0.25c0,0.25 -0.25,0.25 -0.25,0.25c-0.66667,0 -1.33333,0 -2,0h-0.00197c0,0 -0.25,0 -0.25,-0.25z" fill="#ffffff" stroke-width="0.5"/><path d="M198.66945,245.48688c0,-0.25 0.25,-0.25 0.25,-0.25c0.66666,0 1.33535,0 2.00202,0c0,0 0.25,0 0.25,0.25c0,0.25 -0.25,0.25 -0.25,0.25c-0.66666,0 -1.33334,0 -2,0h-0.00202c0,0 -0.25,0 -0.25,-0.25z" fill="#ffffff" stroke-width="0.5"/><path d="M194.80366,283.74859c-0.22361,-0.1118 -0.11181,-0.33541 -0.11181,-0.33541c0.29813,-0.59629 0.70285,-1.40577 1.00098,-2.00206c0,0 0.1118,-0.22361 0.33541,-0.11181c0.22361,0.1118 0.11181,0.33541 0.11181,0.33541c-0.29813,0.59629 -0.59627,1.19258 -0.8944,1.78887l-0.10659,0.21319c0,0 -0.1118,0.22361 -0.33541,0.11181z" fill="#ffffff" stroke-width="0.5"/><path d="M189.66044,292.53398c0,-0.13807 0.11193,-0.25 0.25,-0.25c0.13807,0 0.25,0.11193 0.25,0.25c0,0.13807 -0.11193,0.25 -0.25,0.25c-0.13807,0 -0.25,-0.11193 -0.25,-0.25z" fill="#ffffff" stroke-width="0.5"/><path d="M127.59841,286.52797c0,-0.13807 0.11193,-0.25 0.25,-0.25c0.13807,0 0.25,0.11193 0.25,0.25c0,0.13807 -0.11193,0.25 -0.25,0.25c-0.13807,0 -0.25,-0.11193 -0.25,-0.25z" fill="#ffffff" stroke-width="0.5"/><path d="M182.65345,311.55294c0,-0.13807 0.11193,-0.25 0.25,-0.25c0.13807,0 0.25,0.11193 0.25,0.25c0,0.13807 -0.11193,0.25 -0.25,0.25c-0.13807,0 -0.25,-0.11193 -0.25,-0.25z" fill="#ffffff" stroke-width="0.5"/><path d="M231.70248,317.55895c0,-0.13807 0.11193,-0.25 0.25,-0.25c0.13807,0 0.25,0.11193 0.25,0.25c0,0.13807 -0.11193,0.25 -0.25,0.25c-0.13807,0 -0.25,-0.11193 -0.25,-0.25z" fill="#ffffff" stroke-width="0.5"/><path d="M288.75954,283.52498c0,-0.13807 0.11193,-0.25 0.25,-0.25c0.13807,0 0.25,0.11193 0.25,0.25c0,0.13807 -0.11193,0.25 -0.25,0.25c-0.13807,0 -0.25,-0.11193 -0.25,-0.25z" fill="#ffffff" stroke-width="0.5"/><path d="M298.76957,275.51691c0,-0.13807 0.11193,-0.25 0.25,-0.25c0.13807,0 0.25,0.11193 0.25,0.25c0,0.13807 -0.11193,0.25 -0.25,0.25c-0.13807,0 -0.25,-0.11193 -0.25,-0.25z" fill="#ffffff" stroke-width="0.5"/><path d="M245.71655,259.50095c0,-0.13807 0.11193,-0.25 0.25,-0.25c0.13807,0 0.25,0.11193 0.25,0.25c0,0.13807 -0.11193,0.25 -0.25,0.25c-0.13807,0 -0.25,-0.11193 -0.25,-0.25z" fill="#ffffff" stroke-width="0.5"/><path d="M266.73758,220.46191c0,-0.13807 0.11193,-0.25 0.25,-0.25c0.13807,0 0.25,0.11193 0.25,0.25c0,0.13807 -0.11193,0.25 -0.25,0.25c-0.13807,0 -0.25,-0.11193 -0.25,-0.25z" fill="#ffffff" stroke-width="0.5"/><path d="M314.78562,183.42485c0,-0.13807 0.11193,-0.25 0.25,-0.25c0.13807,0 0.25,0.11193 0.25,0.25c0,0.13807 -0.11193,0.25 -0.25,0.25c-0.13807,0 -0.25,-0.11193 -0.25,-0.25z" fill="#ffffff" stroke-width="0.5"/><path d="M328.79961,146.38777c0,-0.13807 0.11193,-0.25 0.25,-0.25c0.13807,0 0.25,0.11193 0.25,0.25c0,0.13807 -0.11193,0.25 -0.25,0.25c-0.13807,0 -0.25,-0.11193 -0.25,-0.25z" fill="#ffffff" stroke-width="0.5"/><path d="M310.82358,94.19706c0.13867,-0.20801 0.34669,-0.06934 0.34669,-0.06934c0.97073,0.64715 2.03228,1.35487 3.003,2.00202c0,0 0.20801,0.13868 0.06933,0.34669c-0.13867,0.20801 -0.34668,0.06934 -0.34668,0.06934c-0.97073,-0.64715 -1.94144,-1.29431 -2.91217,-1.94146l-0.09084,-0.06056c0,0 -0.20801,-0.13868 -0.06933,-0.34669z" fill="#ffffff" stroke-width="0.5"/><path d="M325.29557,68.30971c0,0.25 -0.25,0.25 -0.25,0.25c-0.33333,0 -0.66761,0 -1.00094,0c0,0 -0.25,0 -0.25,-0.25c0,-0.25 0.25,-0.25 0.25,-0.25c0.33333,0 0.66667,0 1,0h0.00094c0,0 0.25,0 0.25,0.25z" fill="#ffffff" stroke-width="0.5"/><path d="M366.83761,68.30971c0,-0.13807 0.11193,-0.25 0.25,-0.25c0.13807,0 0.25,0.11193 0.25,0.25c0,0.13807 -0.11193,0.25 -0.25,0.25c-0.13807,0 -0.25,-0.11193 -0.25,-0.25z" fill="#ffffff" stroke-width="0.5"/><path d="M387.85864,108.34978c0,-0.13807 0.11193,-0.25 0.25,-0.25c0.13807,0 0.25,0.11193 0.25,0.25c0,0.13807 -0.11193,0.25 -0.25,0.25c-0.13807,0 -0.25,-0.11193 -0.25,-0.25z" fill="#ffffff" stroke-width="0.5"/><path d="M368.83968,143.38477c0,-0.13807 0.11193,-0.25 0.25,-0.25c0.13807,0 0.25,0.11193 0.25,0.25c0,0.13807 -0.11193,0.25 -0.25,0.25c-0.13807,0 -0.25,-0.11193 -0.25,-0.25z" fill="#ffffff" stroke-width="0.5"/><path d="M325.79756,154.37393c0.02186,-0.24904 0.2709,-0.22718 0.2709,-0.22718l0.21797,0.01913c1.11211,0.0976 1.88477,0.51219 2.87498,1.00729c0,0 0.22361,0.11181 0.1118,0.33541c-0.11181,0.2236 -0.33541,0.1118 -0.33541,0.1118c-0.93584,-0.46792 -1.64978,-0.86468 -2.69507,-0.95641l-0.21798,-0.01914c0,0 -0.24904,-0.02186 -0.22719,-0.2709z" fill="#ffffff" stroke-width="0.5"/><path d="M354.8256,198.43987c0,-0.13807 0.11193,-0.25 0.25,-0.25c0.13807,0 0.25,0.11193 0.25,0.25c0,0.13807 -0.11193,0.25 -0.25,0.25c-0.13807,0 -0.25,-0.11193 -0.25,-0.25z" fill="#ffffff" stroke-width="0.5"/><path d="M374.33214,227.54697c-0.07812,0.23748 -0.3156,0.15937 -0.3156,0.15937l-0.25529,-0.08398c-2.55116,-0.83916 -5.08684,-1.38292 -7.71906,-1.90942c-0.03201,-0.00575 -0.0619,-0.01759 -0.08843,-0.03428c-0.06457,-0.03714 -0.13887,-0.1116 -0.11366,-0.25316c0.00095,-0.00568 0.00208,-0.0113 0.0034,-0.01685c0.03154,-0.13897 0.12818,-0.1789 0.20177,-0.18834c0.01347,-0.00224 0.0273,-0.00341 0.04141,-0.00341c0.01857,0 0.03667,0.00203 0.05409,0.00587c2.65136,0.53034 5.2068,1.07933 7.77671,1.92464l0.25529,0.08398c0,0 0.23748,0.07811 0.15937,0.3156z" fill="#ffffff" stroke-width="0.5"/><path d="M329.80064,260.5019c0,-0.13807 0.11193,-0.25 0.25,-0.25c0.13807,0 0.25,0.11193 0.25,0.25c0,0.13807 -0.11193,0.25 -0.25,0.25c-0.13807,0 -0.25,-0.11193 -0.25,-0.25z" fill="#ffffff" stroke-width="0.5"/><path d="M303.77455,288.52995c0,-0.25 0.25,-0.25 0.25,-0.25c0.33333,0 0.6677,0 1.00103,0c0,0 0.25,0 0.25,0.25c0,0.25 -0.25,0.25 -0.25,0.25c-0.33333,0 -0.66667,0 -1,0h-0.00103c0,0 -0.25,0 -0.25,-0.25z" fill="#ffffff" stroke-width="0.5"/><path d="M345.81659,294.53596c0,-0.13807 0.11193,-0.25 0.25,-0.25c0.13807,0 0.25,0.11193 0.25,0.25c0,0.13807 -0.11193,0.25 -0.25,0.25c-0.13807,0 -0.25,-0.11193 -0.25,-0.25z" fill="#ffffff" stroke-width="0.5"/><path d="M372.84362,315.55697c0,-0.13807 0.11193,-0.25 0.25,-0.25c0.13807,0 0.25,0.11193 0.25,0.25c0,0.13807 -0.11193,0.25 -0.25,0.25c-0.13807,0 -0.25,-0.11193 -0.25,-0.25z" fill="#ffffff" stroke-width="0.5"/><path d="M414.88566,274.51597c0,-0.13807 0.11193,-0.25 0.25,-0.25c0.13807,0 0.25,0.11193 0.25,0.25c0,0.13807 -0.11193,0.25 -0.25,0.25c-0.13807,0 -0.25,-0.11193 -0.25,-0.25z" fill="#ffffff" stroke-width="0.5"/><path d="M425.89673,223.46492c0,-0.13807 0.11193,-0.25 0.25,-0.25c0.13807,0 0.25,0.11193 0.25,0.25c0,0.13807 -0.11193,0.25 -0.25,0.25c-0.13807,0 -0.25,-0.11193 -0.25,-0.25z" fill="#ffffff" stroke-width="0.5"/><path d="M463.43371,156.39781c0,0.25 -0.25,0.25 -0.25,0.25c-0.66667,0 -1.33531,0 -2.00198,0c0,0 -0.25,0 -0.25,-0.25c0,-0.25 0.25,-0.25 0.25,-0.25c0.66667,0 1.33333,0 2,0h0.00198c0,0 0.25,0 0.25,0.25z" fill="#ffffff" stroke-width="0.5"/><path d="M451.92273,125.36676c0,-0.13807 0.11193,-0.25 0.25,-0.25c0.13807,0 0.25,0.11193 0.25,0.25c0,0.13807 -0.11193,0.25 -0.25,0.25c-0.13807,0 -0.25,-0.11193 -0.25,-0.25z" fill="#ffffff" stroke-width="0.5"/><path d="M459.93071,87.32876c0,-0.13807 0.11193,-0.25 0.25,-0.25c0.13807,0 0.25,0.11193 0.25,0.25c0,0.13807 -0.11193,0.25 -0.25,0.25c-0.13807,0 -0.25,-0.11193 -0.25,-0.25z" fill="#ffffff" stroke-width="0.5"/><path d="M421.8927,65.30669c0,-0.13807 0.11193,-0.25 0.25,-0.25c0.13807,0 0.25,0.11193 0.25,0.25c0,0.13807 -0.11193,0.25 -0.25,0.25c-0.13807,0 -0.25,-0.11193 -0.25,-0.25z" fill="#ffffff" stroke-width="0.5"/><path d="M411.88266,46.28769c0,-0.13807 0.11193,-0.25 0.25,-0.25c0.13807,0 0.25,0.11193 0.25,0.25c0,0.13807 -0.11193,0.25 -0.25,0.25c-0.13807,0 -0.25,-0.11193 -0.25,-0.25z" fill="#ffffff" stroke-width="0.5"/><path d="M373.84465,44.28568c0,-0.13807 0.11193,-0.25 0.25,-0.25c0.13807,0 0.25,0.11193 0.25,0.25c0,0.13807 -0.11193,0.25 -0.25,0.25c-0.13807,0 -0.25,-0.11193 -0.25,-0.25z" fill="#ffffff" stroke-width="0.5"/><path d="M336.80758,9.25068c0,-0.13807 0.11193,-0.25 0.25,-0.25c0.13807,0 0.25,0.11193 0.25,0.25c0,0.13807 -0.11193,0.25 -0.25,0.25c-0.13807,0 -0.25,-0.11193 -0.25,-0.25z" fill="#ffffff" stroke-width="0.5"/><path d="M309.78056,-9.76838c0,-0.13807 0.11193,-0.25 0.25,-0.25c0.13807,0 0.25,0.11193 0.25,0.25c0,0.13807 -0.11193,0.25 -0.25,0.25c-0.13807,0 -0.25,-0.11193 -0.25,-0.25z" fill="#ffffff" stroke-width="0.5"/><path d="M278.74959,-18.77739c0,-0.13807 0.11193,-0.25 0.25,-0.25c0.13807,0 0.25,0.11193 0.25,0.25c0,0.13807 -0.11193,0.25 -0.25,0.25c-0.13807,0 -0.25,-0.11193 -0.25,-0.25z" fill="#ffffff" stroke-width="0.5"/><path d="M219.6924,-33.82342c0.03101,-0.24807 0.27908,-0.21706 0.27908,-0.21706c2.64607,0.33076 5.362,0.67027 8.00807,1.00104c0,0 0.24807,0.03101 0.21706,0.27907c-0.03101,0.24807 -0.27908,0.21706 -0.27908,0.21706c-2.64607,-0.33076 -5.29215,-0.66154 -7.93822,-0.9923l-0.06985,-0.00873c0,0 -0.24807,-0.03101 -0.21706,-0.27908z" fill="#ffffff" stroke-width="0.5"/><path d="M161.63242,-33.7924c0,-0.13807 0.11193,-0.25 0.25,-0.25c0.13807,0 0.25,0.11193 0.25,0.25c0,0.13807 -0.11193,0.25 -0.25,0.25c-0.13807,0 -0.25,-0.11193 -0.25,-0.25z" fill="#ffffff" stroke-width="0.5"/><path d="M122.59339,-22.78138c0,-0.13807 0.11193,-0.25 0.25,-0.25c0.13807,0 0.25,0.11193 0.25,0.25c0,0.13807 -0.11193,0.25 -0.25,0.25c-0.13807,0 -0.25,-0.11193 -0.25,-0.25z" fill="#ffffff" stroke-width="0.5"/><path d="M87.55834,-16.77537c0,-0.13807 0.11193,-0.25 0.25,-0.25c0.13807,0 0.25,0.11193 0.25,0.25c0,0.13807 -0.11193,0.25 -0.25,0.25c-0.13807,0 -0.25,-0.11193 -0.25,-0.25z" fill="#ffffff" stroke-width="0.5"/><path d="M51.5223,-13.77237c0,-0.13807 0.11193,-0.25 0.25,-0.25c0.13807,0 0.25,0.11193 0.25,0.25c0,0.13807 -0.11193,0.25 -0.25,0.25c-0.13807,0 -0.25,-0.11193 -0.25,-0.25z" fill="#ffffff" stroke-width="0.5"/><path d="M3.47425,14.25564c0,-0.13807 0.11193,-0.25 0.25,-0.25c0.13807,0 0.25,0.11193 0.25,0.25c0,0.13807 -0.11193,0.25 -0.25,0.25c-0.13807,0 -0.25,-0.11193 -0.25,-0.25z" fill="#ffffff" stroke-width="0.5"/><path d="M-18.04776,48.28972c0,0.25 -0.25,0.25 -0.25,0.25c-1.33334,0 -2.67065,0 -4.00398,0c0,0 -0.25,0 -0.25,-0.25c0,-0.25 0.25,-0.25 0.25,-0.25c1.33334,0 2.66666,0 4,0h0.00399c0,0 0.25,0 0.25,0.25z" fill="#ffffff" stroke-width="0.5"/><path d="M-41.32079,112.60375c-0.25,0 -0.25,-0.25 -0.25,-0.25c0,-0.66666 0,-1.33535 0,-2.00201c0,0 0,-0.25 0.25,-0.25c0.25,0 0.25,0.25 0.25,0.25c0,0.66666 0,1.33334 0,2v0.00202c0,0 0,0.25 -0.25,0.25z" fill="#ffffff" stroke-width="0.5"/><path d="M-49.57877,180.42184c0,-0.13807 0.11193,-0.25 0.25,-0.25c0.13807,0 0.25,0.11193 0.25,0.25c0,0.13807 -0.11193,0.25 -0.25,0.25c-0.13807,0 -0.25,-0.11193 -0.25,-0.25z" fill="#ffffff" stroke-width="0.5"/><path d="M-32.56178,229.47092c0,-0.13807 0.11193,-0.25 0.25,-0.25c0.13807,0 0.25,0.11193 0.25,0.25c0,0.13807 -0.11193,0.25 -0.25,0.25c-0.13807,0 -0.25,-0.11193 -0.25,-0.25z" fill="#ffffff" stroke-width="0.5"/><path d="M-27.12999,284.34914c0.17678,0.17678 0,0.35355 0,0.35355c-0.58925,0.58926 -1.41277,1.4128 -2.00201,2.00206c0,0 -0.17677,0.17678 -0.35356,0c-0.17678,-0.17678 -0.00001,-0.35355 -0.00001,-0.35355c0.58925,-0.58926 1.1785,-1.17853 1.76775,-1.76779l0.23427,-0.23428c0,0 0.17677,-0.17678 0.35356,0z" fill="#ffffff" stroke-width="0.5"/><path d="M-4.53373,319.56102c0,-0.13807 0.11193,-0.25 0.25,-0.25c0.13807,0 0.25,0.11193 0.25,0.25c0,0.13807 -0.11193,0.25 -0.25,0.25c-0.13807,0 -0.25,-0.11193 -0.25,-0.25z" fill="#ffffff" stroke-width="0.5"/><path d="M24.49527,377.61901c0,-0.13807 0.11193,-0.25 0.25,-0.25c0.13807,0 0.25,0.11193 0.25,0.25c0,0.13807 -0.11193,0.25 -0.25,0.25c-0.13807,0 -0.25,-0.11193 -0.25,-0.25z" fill="#ffffff" stroke-width="0.5"/><path d="M73.54435,383.62501c0,-0.13807 0.11193,-0.25 0.25,-0.25c0.13807,0 0.25,0.11193 0.25,0.25c0,0.13807 -0.11193,0.25 -0.25,0.25c-0.13807,0 -0.25,-0.11193 -0.25,-0.25z" fill="#ffffff" stroke-width="0.5"/><path d="M148.98123,389.85463c-0.2236,0.11181 -0.33541,-0.1118 -0.33541,-0.1118c-0.29816,-0.59628 -0.70287,-1.40569 -1.00103,-2.00197c0,0 -0.11181,-0.22361 0.1118,-0.33541c0.2236,-0.11181 0.33542,0.1118 0.33542,0.1118c0.29816,0.59628 0.5963,1.19256 0.89446,1.78884l0.10657,0.21313c0,0 0.11181,0.22361 -0.1118,0.33542z" fill="#ffffff" stroke-width="0.5"/><path d="M198.66945,380.62202c0,-0.13807 0.11193,-0.25 0.25,-0.25c0.13807,0 0.25,0.11193 0.25,0.25c0,0.13807 -0.11193,0.25 -0.25,0.25c-0.13807,0 -0.25,-0.11193 -0.25,-0.25z" fill="#ffffff" stroke-width="0.5"/><path d="M248.71956,388.63009c0,-0.13807 0.11193,-0.25 0.25,-0.25c0.13807,0 0.25,0.11193 0.25,0.25c0,0.13807 -0.11193,0.25 -0.25,0.25c-0.13807,0 -0.25,-0.11193 -0.25,-0.25z" fill="#ffffff" stroke-width="0.5"/><path d="M301.91077,396.86167c-0.22361,-0.11181 -0.1118,-0.33541 -0.1118,-0.33541c0.29816,-0.59628 0.70288,-1.40569 1.00103,-2.00197c0,0 0.11181,-0.22361 0.33541,-0.1118c0.22361,0.11181 0.1118,0.33542 0.1118,0.33542c-0.29816,0.59628 -0.5963,1.19256 -0.89446,1.78884l-0.10657,0.21314c0,0 -0.11181,0.2236 -0.33542,0.11179z" fill="#ffffff" stroke-width="0.5"/><path d="M328.22534,397.81588c-0.17678,0.17677 -0.35355,-0.00002 -0.35355,-0.00002c-0.23569,-0.23572 -0.76525,-0.76531 -1.00094,-1.00103c0,0 -0.17677,-0.17678 0.00001,-0.35355c0.17678,-0.17677 0.35356,0.00002 0.35356,0.00002c0.23569,0.23572 0.47138,0.47142 0.70707,0.70714l0.29387,0.29389c0,0 0.17676,0.17679 -0.00002,0.35356z" fill="#ffffff" stroke-width="0.5"/><path d="M379.85066,381.62304c0,-0.13807 0.11193,-0.25 0.25,-0.25c0.13807,0 0.25,0.11193 0.25,0.25c0,0.13807 -0.11193,0.25 -0.25,0.25c-0.13807,0 -0.25,-0.11193 -0.25,-0.25z" fill="#ffffff" stroke-width="0.5"/><path d="M417.88867,354.59602c0,-0.13807 0.11193,-0.25 0.25,-0.25c0.13807,0 0.25,0.11193 0.25,0.25c0,0.13807 -0.11193,0.25 -0.25,0.25c-0.13807,0 -0.25,-0.11193 -0.25,-0.25z" fill="#ffffff" stroke-width="0.5"/><path d="M446.91776,295.53699c0,-0.13807 0.11193,-0.25 0.25,-0.25c0.13807,0 0.25,0.11193 0.25,0.25c0,0.13807 -0.11193,0.25 -0.25,0.25c-0.13807,0 -0.25,-0.11193 -0.25,-0.25z" fill="#ffffff" stroke-width="0.5"/><path d="M412.88369,275.51691c0,-0.13807 0.11193,-0.25 0.25,-0.25c0.13807,0 0.25,0.11193 0.25,0.25c0,0.13807 -0.11193,0.25 -0.25,0.25c-0.13807,0 -0.25,-0.11193 -0.25,-0.25z" fill="#ffffff" stroke-width="0.5"/><path d="M365.97488,289.30737c0.22361,-0.1118 0.3354,0.11181 0.3354,0.11181c0.29813,0.59629 0.70281,1.40568 1.00094,2.00197c0,0 0.1118,0.22361 -0.11181,0.33541c-0.22361,0.1118 -0.3354,-0.11181 -0.3354,-0.11181c-0.29813,-0.59629 -0.59627,-1.19258 -0.8944,-1.78887l-0.10654,-0.2131c0,0 -0.1118,-0.22361 0.11181,-0.33541z" fill="#ffffff" stroke-width="0.5"/><path d="M331.80261,288.52995c0,-0.25 0.25,-0.25 0.25,-0.25c0.33333,0 0.66769,0 1.00103,0c0,0 0.25,0 0.25,0.25c0,0.25 -0.25,0.25 -0.25,0.25c-0.33333,0 -0.66667,0 -1,0h-0.00103c0,0 -0.25,0 -0.25,-0.25z" fill="#ffffff" stroke-width="0.5"/><path d="M255.7265,309.55098c0,-0.13807 0.11193,-0.25 0.25,-0.25c0.13807,0 0.25,0.11193 0.25,0.25c0,0.13807 -0.11193,0.25 -0.25,0.25c-0.13807,0 -0.25,-0.11193 -0.25,-0.25z" fill="#ffffff" stroke-width="0.5"/><path d="M186.65743,302.54393c0,-0.25 0.25,-0.25 0.25,-0.25c0.33334,0 0.6677,0 1.00104,0c0,0 0.25,0 0.25,0.25c0,0.25 -0.25,0.25 -0.25,0.25c-0.33334,0 -0.66666,0 -1,0h-0.00104c0,0 -0.25,0 -0.25,-0.25z" fill="#ffffff" stroke-width="0.5"/><path d="M128.59939,301.54299c0,-0.13807 0.11193,-0.25 0.25,-0.25c0.13807,0 0.25,0.11193 0.25,0.25c0,0.13807 -0.11193,0.25 -0.25,0.25c-0.13807,0 -0.25,-0.11193 -0.25,-0.25z" fill="#ffffff" stroke-width="0.5"/><path d="M76.03349,255.41785c0.07906,0.23717 -0.15811,0.31623 -0.15811,0.31623c-0.94868,0.31624 -2.05433,0.6848 -3.00301,1.00103c0,0 -0.23717,0.07906 -0.31623,-0.15811c-0.07906,-0.23717 0.15811,-0.31623 0.15811,-0.31623c0.94868,-0.31624 1.89736,-0.63247 2.84604,-0.9487l0.15696,-0.05232c0,0 0.23717,-0.07906 0.31623,0.15811z" fill="#ffffff" stroke-width="0.5"/><path d="M63.90512,221.24397c0.21888,0.1208 0.09807,0.33969 0.09807,0.33969l-0.06299,0.11411c-0.96241,1.74368 0.19663,2.91411 1.06874,4.65834c0,0 0.11181,0.2236 -0.1118,0.33541c-0.22361,0.11181 -0.33541,-0.11181 -0.33541,-0.11181c-0.94517,-1.89034 -2.13651,-3.17187 -1.05928,-5.12356l0.06298,-0.11411c0,0 0.12081,-0.21887 0.33968,-0.09807z" fill="#ffffff" stroke-width="0.5"/><path d="M89.81035,137.12876c0.25,0 0.25,0.25 0.25,0.25c0,0.66666 0,1.33535 0,2.00202c0,0 0,0.25 -0.25,0.25c-0.25,0 -0.25,-0.25 -0.25,-0.25c0,-0.66666 0,-1.33334 0,-2v-0.00202c0,0 0,-0.25 0.25,-0.25z" fill="#ffffff" stroke-width="0.5"/><path d="M135.84254,86.07811c0.24962,-0.01385 0.26346,0.23577 0.26346,0.23577l0.00518,0.0934c0.08098,1.46021 1.14948,2.57719 1.95523,3.78581c0,0 0.13868,0.20801 -0.06933,0.34669c-0.20801,0.13868 -0.34669,-0.06934 -0.34669,-0.06934c-0.86326,-1.29488 -1.95104,-2.4596 -2.03844,-4.03547l-0.00518,-0.0934c0,0 -0.01385,-0.24961 0.23577,-0.26346z" fill="#ffffff" stroke-width="0.5"/><path d="M163.80539,52.05652c0.23717,-0.07905 0.31623,0.15812 0.31623,0.15812l0.15695,0.47086c0.94867,2.84606 1.89737,5.6921 2.84606,8.53815c0,0 0.07905,0.23717 -0.15812,0.31623c-0.23717,0.07905 -0.31623,-0.15811 -0.31623,-0.15811c-0.94869,-2.84605 -1.89738,-5.6921 -2.84605,-8.53815l-0.15695,-0.47086c0,0 -0.07905,-0.23718 0.15812,-0.31623z" fill="#ffffff" stroke-width="0.5"/><path d="M242.1393,46.11091c0.17677,0.17678 0,0.35356 0,0.35356l-0.23423,0.23423c-0.58926,0.58925 -1.17851,1.1785 -1.76774,1.76778c0,0 -0.17676,0.17679 -0.35355,0.00002c-0.17678,-0.17677 -0.00002,-0.35356 -0.00002,-0.35356c0.58923,-0.58928 1.17849,-1.17854 1.76775,-1.7678l0.23423,-0.23423c0,0 0.17678,-0.17678 0.35356,0z" fill="#ffffff" stroke-width="0.5"/><path d="M318.28527,42.24289c0.0408,0.24665 -0.20584,0.28745 -0.20584,0.28745l-0.45542,0.07535c-0.44612,-0.05013 0.45206,2.00281 0.65178,2.60195c0,0 0.07906,0.23717 -0.15811,0.31623c-0.23717,0.07906 -0.31623,-0.15811 -0.31623,-0.15811c-0.33695,-1.0108 -1.46661,-2.89252 -0.25905,-3.25336l0.45542,-0.07535c0,0 0.24665,-0.0408 0.28746,0.20584z" fill="#ffffff" stroke-width="0.5"/><path d="M354.8256,64.30571c0,-0.13807 0.11193,-0.25 0.25,-0.25c0.13807,0 0.25,0.11193 0.25,0.25c0,0.13807 -0.11193,0.25 -0.25,0.25c-0.13807,0 -0.25,-0.11193 -0.25,-0.25z" fill="#ffffff" stroke-width="0.5"/><path d="M384.86122,96.28522c0.05255,-0.24442 0.29696,-0.19187 0.29696,-0.19187l0.03383,0.00728c1.52425,0.32769 1.40524,2.66125 2.13929,4.12932c0,0 0.11181,0.2236 -0.1118,0.33541c-0.22361,0.11181 -0.33541,-0.1118 -0.33541,-0.1118c-0.6495,-1.29897 -0.65777,-3.61916 -1.79717,-3.86411l-0.03384,-0.00727c0,0 -0.24442,-0.05254 -0.19187,-0.29696z" fill="#ffffff" stroke-width="0.5"/><path d="M341.81265,146.38777c0,-0.13807 0.11193,-0.25 0.25,-0.25c0.13807,0 0.25,0.11193 0.25,0.25c0,0.13807 -0.11193,0.25 -0.25,0.25c-0.13807,0 -0.25,-0.11193 -0.25,-0.25z" fill="#ffffff" stroke-width="0.5"/><path d="M286.78396,192.32205c0.11181,-0.2236 0.33541,-0.1118 0.33541,-0.1118c0.59628,0.29816 1.40569,0.70288 2.00197,1.00103c0,0 0.22361,0.11181 0.1118,0.33541c-0.11181,0.2236 -0.33542,0.1118 -0.33542,0.1118c-0.59628,-0.29816 -1.19256,-0.59631 -1.78884,-0.89446l-0.21313,-0.10657c0,0 -0.2236,-0.11181 -0.1118,-0.33541z" fill="#ffffff" stroke-width="0.5"/><path d="M235.70651,237.47891c0,-0.13807 0.11193,-0.25 0.25,-0.25c0.13807,0 0.25,0.11193 0.25,0.25c0,0.13807 -0.11193,0.25 -0.25,0.25c-0.13807,0 -0.25,-0.11193 -0.25,-0.25z" fill="#ffffff" stroke-width="0.5"/><path d="M190.66147,256.49795c0,-0.13807 0.11193,-0.25 0.25,-0.25c0.13807,0 0.25,0.11193 0.25,0.25c0,0.13807 -0.11193,0.25 -0.25,0.25c-0.13807,0 -0.25,-0.11193 -0.25,-0.25z" fill="#ffffff" stroke-width="0.5"/><path d="M215.68648,260.5019c0,-0.13807 0.11193,-0.25 0.25,-0.25c0.13807,0 0.25,0.11193 0.25,0.25c0,0.13807 -0.11193,0.25 -0.25,0.25c-0.13807,0 -0.25,-0.11193 -0.25,-0.25z" fill="#ffffff" stroke-width="0.5"/><path d="M272.74358,255.49692c0,-0.13807 0.11193,-0.25 0.25,-0.25c0.13807,0 0.25,0.11193 0.25,0.25c0,0.13807 -0.11193,0.25 -0.25,0.25c-0.13807,0 -0.25,-0.11193 -0.25,-0.25z" fill="#ffffff" stroke-width="0.5"/><path d="M218.74548,250.33426c0.15768,-0.194 0.35169,-0.03631 0.35169,-0.03631l0.15673,0.12739c0.96401,0.78357 2.00762,1.03402 2.86537,1.89181c0,0 0.17677,0.17678 -0.00001,0.35356c-0.17678,0.17677 -0.35356,-0.00001 -0.35356,-0.00001c-0.82884,-0.82888 -1.87804,-1.08587 -2.82718,-1.85736l-0.15673,-0.12739c0,0 -0.194,-0.15769 -0.03632,-0.35169z" fill="#ffffff" stroke-width="0.5"/><path d="M128.71072,233.26685c0.20801,-0.13868 0.34669,0.06934 0.34669,0.06934c0.64715,0.97072 1.35486,2.03228 2.00202,3.003c0,0 0.13867,0.20802 -0.06934,0.34669c-0.20801,0.13868 -0.34669,-0.06934 -0.34669,-0.06934c-0.64715,-0.97072 -1.29431,-1.94144 -1.94146,-2.91216l-0.06056,-0.09083c0,0 -0.13867,-0.20802 0.06934,-0.34669z" fill="#ffffff" stroke-width="0.5"/><path d="M207.81665,190.20827c0.2236,-0.11181 0.33542,0.1118 0.33542,0.1118c0.29816,0.59628 0.70287,1.40569 1.00103,2.00197c0,0 0.11181,0.22361 -0.1118,0.33541c-0.2236,0.11181 -0.33541,-0.1118 -0.33541,-0.1118c-0.29816,-0.59628 -0.59631,-1.19256 -0.89446,-1.78884l-0.10657,-0.21313c0,0 -0.11181,-0.22361 0.1118,-0.33542z" fill="#ffffff" stroke-width="0.5"/><path d="M321.79257,192.43386c0,-0.13807 0.11193,-0.25 0.25,-0.25c0.13807,0 0.25,0.11193 0.25,0.25c0,0.13807 -0.11193,0.25 -0.25,0.25c-0.13807,0 -0.25,-0.11193 -0.25,-0.25z" fill="#ffffff" stroke-width="0.5"/><path d="M293.7646,219.46088c0,-0.13807 0.11193,-0.25 0.25,-0.25c0.13807,0 0.25,0.11193 0.25,0.25c0,0.13807 -0.11193,0.25 -0.25,0.25c-0.13807,0 -0.25,-0.11193 -0.25,-0.25z" fill="#ffffff" stroke-width="0.5"/><path d="M195.66644,245.48688c0,-0.13807 0.11193,-0.25 0.25,-0.25c0.13807,0 0.25,0.11193 0.25,0.25c0,0.13807 -0.11193,0.25 -0.25,0.25c-0.13807,0 -0.25,-0.11193 -0.25,-0.25z" fill="#ffffff" stroke-width="0.5"/><path d="M221.19142,243.49118c-0.00627,0.24992 -0.25619,0.24366 -0.25619,0.24366l-0.22705,-0.00569c-0.67556,-0.01694 -1.35111,-0.03346 -2.02661,-0.05231c-2.92434,-0.71868 -5.8471,-1.35818 -8.80012,-1.94875c0,0 -0.24515,-0.04903 -0.19612,-0.29417c0.04903,-0.24515 0.29417,-0.19612 0.29417,-0.19612c2.94229,0.58842 5.85922,1.20991 8.7691,1.94355c0.65741,0.01441 1.31476,0.03148 1.97213,0.04796l0.22705,0.00569c0,0 0.24992,0.00627 0.24365,0.25619z" fill="#ffffff" stroke-width="0.5"/><path d="M289.78696,246.37611c0.11181,-0.2236 0.33541,-0.1118 0.33541,-0.1118c0.59628,0.29816 1.40569,0.70288 2.00197,1.00104c0,0 0.2236,0.11181 0.11179,0.33541c-0.11181,0.2236 -0.33541,0.1118 -0.33541,0.1118c-0.59628,-0.29816 -1.19256,-0.5963 -1.78884,-0.89446l-0.21313,-0.10658c0,0 -0.2236,-0.11181 -0.1118,-0.33541z" fill="#ffffff" stroke-width="0.5"/><path d="M304.80198,215.34505c0.11181,-0.2236 0.33541,-0.1118 0.33541,-0.1118c0.59628,0.29816 1.40569,0.70287 2.00197,1.00103c0,0 0.2236,0.11181 0.11179,0.33542c-0.11181,0.2236 -0.33541,0.1118 -0.33541,0.1118c-0.59628,-0.29816 -1.19256,-0.59631 -1.78884,-0.89446l-0.21313,-0.10657c0,0 -0.2236,-0.11181 -0.1118,-0.33541z" fill="#ffffff" stroke-width="0.5"/><path d="M294.76554,220.46191c0,-0.13807 0.11193,-0.25 0.25,-0.25c0.13807,0 0.25,0.11193 0.25,0.25c0,0.13807 -0.11193,0.25 -0.25,0.25c-0.13807,0 -0.25,-0.11193 -0.25,-0.25z" fill="#ffffff" stroke-width="0.5"/><path d="M388.85967,217.45892c0,-0.13807 0.11193,-0.25 0.25,-0.25c0.13807,0 0.25,0.11193 0.25,0.25c0,0.13807 -0.11193,0.25 -0.25,0.25c-0.13807,0 -0.25,-0.11193 -0.25,-0.25z" fill="#ffffff" stroke-width="0.5"/><path d="M387.02864,170.17463c0.23717,-0.07906 0.31623,0.15812 0.31623,0.15812c0.31621,0.94869 0.68473,2.05431 1.00094,3.003c0,0 0.07905,0.23717 -0.15812,0.31623c-0.23717,0.07906 -0.31622,-0.15812 -0.31622,-0.15812c-0.31621,-0.94869 -0.63242,-1.89738 -0.94863,-2.84607l-0.05231,-0.15694c0,0 -0.07905,-0.23717 0.15812,-0.31623z" fill="#ffffff" stroke-width="0.5"/><path d="M382.85366,162.40382c0,-0.13807 0.11193,-0.25 0.25,-0.25c0.13807,0 0.25,0.11193 0.25,0.25c0,0.13807 -0.11193,0.25 -0.25,0.25c-0.13807,0 -0.25,-0.11193 -0.25,-0.25z" fill="#ffffff" stroke-width="0.5"/><path d="M408.87966,126.36778c0,-0.13807 0.11193,-0.25 0.25,-0.25c0.13807,0 0.25,0.11193 0.25,0.25c0,0.13807 -0.11193,0.25 -0.25,0.25c-0.13807,0 -0.25,-0.11193 -0.25,-0.25z" fill="#ffffff" stroke-width="0.5"/><path d="M406.12665,101.09274c0.25,0 0.25,0.25 0.25,0.25c0,1 0,2.00301 0,3.00301c0,0 0,0.25 -0.25,0.25c-0.25,0 -0.25,-0.25 -0.25,-0.25c0,-1 0,-2 0,-3v-0.00301c0,0 0,-0.25 0.25,-0.25z" fill="#ffffff" stroke-width="0.5"/><path d="M349.91501,86.13206c0.19565,-0.15563 0.35127,0.04004 0.35127,0.04004c0.10375,0.13044 0.29205,0.36717 0.3958,0.49761c1.54998,1.9487 1.94062,6.10872 2.65193,8.59834c0,0 0.06868,0.24038 -0.1717,0.30906c-0.24038,0.06868 -0.30906,-0.1717 -0.30906,-0.1717c-0.68941,-2.41294 -1.07071,-6.54892 -2.56249,-8.42445c-0.10375,-0.13044 -0.20749,-0.26088 -0.31124,-0.39132l-0.08455,-0.1063c0,0 -0.15562,-0.19566 0.04003,-0.35128z" fill="#ffffff" stroke-width="0.5"/><path d="M182.15246,124.36577c0,0.25 -0.25,0.25 -0.25,0.25c-0.66667,0 -1.33535,0 -2.00202,0c0,0 -0.25,0 -0.25,-0.25c0,-0.25 0.25,-0.25 0.25,-0.25c0.66667,0 1.33333,0 2,0h0.00202c0,0 0.25,0 0.25,0.25z" fill="#ffffff" stroke-width="0.5"/><path d="M185.65645,117.35877c0,-0.13807 0.11193,-0.25 0.25,-0.25c0.13807,0 0.25,0.11193 0.25,0.25c0,0.13807 -0.11193,0.25 -0.25,0.25c-0.13807,0 -0.25,-0.11193 -0.25,-0.25z" fill="#ffffff" stroke-width="0.5"/><path d="M139.68364,111.52955c-0.17678,-0.17677 0,-0.35355 0,-0.35355c0.58925,-0.58926 1.41272,-1.41275 2.00197,-2.00202c0,0 0.17677,-0.17678 0.35355,0c0.17678,0.17677 0,0.35355 0,0.35355c-0.58925,0.58926 -1.1785,1.17852 -1.76775,1.76779l-0.23422,0.23423c0,0 -0.17677,0.17678 -0.35355,0z" fill="#ffffff" stroke-width="0.5"/><path d="M112.58339,108.34977c0,-0.13807 0.11193,-0.25 0.25,-0.25c0.13807,0 0.25,0.11193 0.25,0.25c0,0.13807 -0.11193,0.25 -0.25,0.25c-0.13807,0 -0.25,-0.11193 -0.25,-0.25z" fill="#ffffff" stroke-width="0.5"/><path d="M75.54632,87.32901c-0.00026,-0.25 0.24974,-0.25026 0.24974,-0.25026h0.00103c0.27557,-0.00028 0.62861,0.26688 0.82356,0.07211c0.23583,-0.23561 -0.2339,-0.7646 0.00206,-1.00009c0.27728,-0.27674 1.78162,-0.07305 2.1766,-0.07305c0,0 0.25,0 0.25,0.25c0,0.25 -0.25,0.25 -0.25,0.25c-0.2174,0 -1.73586,-0.16041 -1.8234,-0.07305c-0.23591,0.23545 0.23391,0.76434 -0.00188,0.99991c-0.09101,0.09092 -1.00156,0.07399 -1.17644,0.07417h-0.00103c0,0 -0.25,0.00026 -0.25026,-0.24974z" fill="#ffffff" stroke-width="0.5"/><path d="M106.07508,44.26052c0.02515,0.24873 -0.22359,0.27388 -0.22359,0.27388l-0.1187,0.012c-1.80028,0.182 -1.87661,0.23467 -2.68584,1.85309c0,0 -0.11181,0.22361 -0.33541,0.1118c-0.22361,-0.11181 -0.1118,-0.33541 -0.1118,-0.33541c0.85838,-1.71672 1.17313,-1.93388 3.08276,-2.12694l0.1187,-0.012c0,0 0.24873,-0.02515 0.27388,0.22359z" fill="#ffffff" stroke-width="0.5"/><path d="M109.60678,25.37847c-0.1118,-0.22361 0.1118,-0.33541 0.1118,-0.33541c0.59628,-0.29814 1.40569,-0.70284 2.00197,-1.00099c0,0 0.22361,-0.1118 0.33541,0.1118c0.1118,0.22361 -0.1118,0.33541 -0.1118,0.33541c-0.59628,0.29814 -1.19257,0.59628 -1.78885,0.89443l-0.21312,0.10656c0,0 -0.22361,0.1118 -0.33541,-0.1118z" fill="#ffffff" stroke-width="0.5"/><path d="M80.61192,36.44086c-0.16316,-0.18942 0.02626,-0.35258 0.02626,-0.35258l0.33415,-0.28783c1.35506,-1.16723 2.64895,0.3884 3.97167,1.27022c0,0 0.20801,0.13868 0.06934,0.34669c-0.13868,0.20801 -0.34669,0.06934 -0.34669,0.06934c-1.1323,-0.75487 -2.32507,-2.20578 -3.368,-1.30741l-0.33415,0.28783c0,0 -0.18942,0.16316 -0.35258,-0.02626z" fill="#ffffff" stroke-width="0.5"/><path d="M98.93116,31.49629c-0.22361,0.1118 -0.33541,-0.11181 -0.33541,-0.11181c-0.29814,-0.59629 -0.70285,-1.40573 -1.00099,-2.00202c0,0 -0.1118,-0.22361 0.11181,-0.33541c0.22361,-0.1118 0.33541,0.11181 0.33541,0.11181c0.29814,0.59629 0.59627,1.19258 0.89441,1.78886l0.10657,0.21315c0,0 0.1118,0.22361 -0.11181,0.33541z" fill="#ffffff" stroke-width="0.5"/><path d="M173.14345,30.27169c0,0.25 -0.25,0.25 -0.25,0.25c-0.66667,0 -1.33535,0 -2.00202,0c0,0 -0.25,0 -0.25,-0.25c0,-0.25 0.25,-0.25 0.25,-0.25c0.66667,0 1.33333,0 2,0h0.00202c0,0 0.25,0 0.25,0.25z" fill="#ffffff" stroke-width="0.5"/><path d="M216.68746,12.25367c0,-0.13807 0.11193,-0.25 0.25,-0.25c0.13807,0 0.25,0.11193 0.25,0.25c0,0.13807 -0.11193,0.25 -0.25,0.25c-0.13807,0 -0.25,-0.11193 -0.25,-0.25z" fill="#ffffff" stroke-width="0.5"/><path d="M249.85869,-37.01902c0.22361,-0.11181 0.33541,0.1118 0.33541,0.1118c0.29815,0.59628 0.70288,1.40574 1.00103,2.00202c0,0 0.11181,0.22361 -0.1118,0.33541c-0.22361,0.11181 -0.33541,-0.1118 -0.33541,-0.1118c-0.29815,-0.59628 -0.5963,-1.19256 -0.89444,-1.78885l-0.10659,-0.21317c0,0 -0.11181,-0.22361 0.1118,-0.33541z" fill="#ffffff" stroke-width="0.5"/><path d="M302.17067,-51.60901c-0.20142,0.14809 -0.34951,-0.05332 -0.34951,-0.05332c-0.49364,-0.67139 -1.0522,-1.43105 -1.54584,-2.10244c-1.44525,-1.96563 -4.21284,3.83767 -5.05177,5.09602c0,0 -0.13868,0.20801 -0.34669,0.06933c-0.20801,-0.13868 -0.06933,-0.34669 -0.06933,-0.34669c0.99209,-1.48809 3.9253,-7.76061 5.87062,-5.11486c0.49364,0.67139 0.98729,1.34277 1.48093,2.01416l0.06491,0.08828c0,0 0.14809,0.20142 -0.05332,0.34951z" fill="#ffffff" stroke-width="0.5"/><path d="M356.07663,-45.55442c-0.25,0 -0.25,-0.25 -0.25,-0.25c0,-2 0,-4.00601 0,-6.00601c0,0 0,-0.25 0.25,-0.25c0.25,0 0.25,0.25 0.25,0.25c0,2 0,4 0,6v0.00601c0,0 0,0.25 -0.25,0.25z" fill="#ffffff" stroke-width="0.5"/><path d="M393.3637,-34.79339c0,0.25 -0.25,0.25 -0.25,0.25c-0.33333,0 -0.6677,0 -1.00103,0c0,0 -0.25,0 -0.25,-0.25c0,-0.25 0.25,-0.25 0.25,-0.25c0.33333,0 0.66667,0 1,0h0.00103c0,0 0.25,0 0.25,0.25z" fill="#ffffff" stroke-width="0.5"/><path d="M448.3456,-39.62177c-0.17664,0.17691 -0.35355,0.00026 -0.35355,0.00026l-0.23588,-0.23553c-1.66522,-1.66273 -2.24676,-1.69335 -4.59245,-1.69335c0,0 -0.25,0 -0.25,-0.25c0,-0.25 0.25,-0.25 0.25,-0.25c2.42183,0 3.21452,0.11091 4.94574,1.83953l0.23588,0.23553c0,0 0.17691,0.17664 0.00026,0.35355z" fill="#ffffff" stroke-width="0.5"/><path d="M434.90574,-19.77838c0,-0.25 0.25,-0.25 0.25,-0.25c1,0 2.003,0 3.003,0c0,0 0.25,0 0.25,0.25c0,0.25 -0.25,0.25 -0.25,0.25c-1,0 -2,0 -3,0h-0.003c0,0 -0.25,0 -0.25,-0.25z" fill="#ffffff" stroke-width="0.5"/><path d="M331.829,-10.88117c0.1118,-0.22361 0.33541,-0.1118 0.33541,-0.1118c0.59628,0.29814 1.40569,0.70284 2.00197,1.00099c0,0 0.22361,0.1118 0.1118,0.33541c-0.1118,0.22361 -0.33541,0.1118 -0.33541,0.1118c-0.59628,-0.29814 -1.19257,-0.59628 -1.78885,-0.89443l-0.21312,-0.10656c0,0 -0.22361,-0.1118 -0.1118,-0.33541z" fill="#ffffff" stroke-width="0.5"/><path d="M269.08517,-6.53439c-0.23099,0.09563 -0.32661,-0.13536 -0.32661,-0.13536l-0.13336,-0.32215c-0.14541,-0.35123 -0.25434,-0.63611 -0.33717,-0.94272l-0.04534,0.01877l-0.18911,-0.4568c-0.0136,-0.03083 -0.02116,-0.06494 -0.02116,-0.1008c0,-0.13807 0.11193,-0.25 0.25,-0.25c0.06903,0 0.13153,0.02798 0.17677,0.07322c0.11785,0.11785 0.58927,0.58924 0.70712,0.70709c0,0 0.17678,0.17677 0.00001,0.35355c-0.07157,0.07158 -0.14315,0.08519 -0.20299,0.07605c0.03826,0.10573 0.07667,0.21646 0.12384,0.33039l0.13336,0.32215c0,0 0.09563,0.23099 -0.13536,0.32661z" fill="#ffffff" stroke-width="0.5"/><path d="M314.03459,-19.02739c0.25,0 0.25,0.25 0.25,0.25c0,1.33333 0,2.6707 0,4.00403c0,0 0,0.25 -0.25,0.25c-0.25,0 -0.25,-0.25 -0.25,-0.25c0,-1.33333 0,-2.66667 0,-4v-0.00403c0,0 0,-0.25 0.25,-0.25z" fill="#ffffff" stroke-width="0.5"/><path d="M324.79557,36.27769c0,-0.13807 0.11193,-0.25 0.25,-0.25c0.13807,0 0.25,0.11193 0.25,0.25c0,0.13807 -0.11193,0.25 -0.25,0.25c-0.13807,0 -0.25,-0.11193 -0.25,-0.25z" fill="#ffffff" stroke-width="0.5"/><path d="M356.82766,46.28769c0,-0.13807 0.11193,-0.25 0.25,-0.25c0.13807,0 0.25,0.11193 0.25,0.25c0,0.13807 -0.11193,0.25 -0.25,0.25c-0.13807,0 -0.25,-0.11193 -0.25,-0.25z" fill="#ffffff" stroke-width="0.5"/><path d="M392.8637,34.27567c0,-0.13807 0.11193,-0.25 0.25,-0.25c0.13807,0 0.25,0.11193 0.25,0.25c0,0.13807 -0.11193,0.25 -0.25,0.25c-0.13807,0 -0.25,-0.11193 -0.25,-0.25z" fill="#ffffff" stroke-width="0.5"/><path d="M423.36734,50.40348c-0.1118,0.22361 -0.33541,0.11181 -0.33541,0.11181c-1.19258,-0.59627 -2.81146,-1.4057 -4.00403,-2.00197c0,0 -0.22361,-0.1118 -0.11181,-0.33541c0.1118,-0.22361 0.33541,-0.11181 0.33541,-0.11181c1.19258,0.59627 2.38515,1.19255 3.57773,1.78882l0.42631,0.21315c0,0 0.22361,0.1118 0.11181,0.33541z" fill="#ffffff" stroke-width="0.5"/><path d="M455.92676,64.3057c0,-0.13807 0.11193,-0.25 0.25,-0.25c0.13807,0 0.25,0.11193 0.25,0.25c0,0.13807 -0.11193,0.25 -0.25,0.25c-0.13807,0 -0.25,-0.11193 -0.25,-0.25z" fill="#ffffff" stroke-width="0.5"/><path d="M475.94675,106.34776c0,-0.13807 0.11193,-0.25 0.25,-0.25c0.13807,0 0.25,0.11193 0.25,0.25c0,0.13807 -0.11193,0.25 -0.25,0.25c-0.13807,0 -0.25,-0.11193 -0.25,-0.25z" fill="#ffffff" stroke-width="0.5"/><path d="M508.97979,125.36676c0,-0.25 0.25,-0.25 0.25,-0.25c1,0 2.003,0 3.003,0c0,0 0.25,0 0.25,0.25c0,0.25 -0.25,0.25 -0.25,0.25c-1,0 -2,0 -3,0h-0.003c0,0 -0.25,0 -0.25,-0.25z" fill="#ffffff" stroke-width="0.5"/><path d="M480.4244,163.29301c0.1118,0.22361 -0.11181,0.33541 -0.11181,0.33541c-0.59629,0.29813 -1.40577,0.70285 -2.00206,1.00099c0,0 -0.22361,0.1118 -0.33541,-0.11181c-0.1118,-0.22361 0.11181,-0.33541 0.11181,-0.33541c0.59629,-0.29813 1.19258,-0.59626 1.78887,-0.89439l0.21319,-0.10659c0,0 0.22361,-0.1118 0.33541,0.11181z" fill="#ffffff" stroke-width="0.5"/><path d="M432.90371,173.41087c0.00392,-0.24997 0.25389,-0.24605 0.25389,-0.24605l0.21915,0.00344c1.54841,0.0243 2.51743,0.33625 3.89277,1.02396c0,0 0.2236,0.11181 0.1118,0.33541c-0.11181,0.2236 -0.33541,0.1118 -0.33541,0.1118c-1.31976,-0.65991 -2.19254,-0.94793 -3.677,-0.97123l-0.21915,-0.00344c0,0 -0.24997,-0.00392 -0.24605,-0.25389z" fill="#ffffff" stroke-width="0.5"/><path d="M421.8927,198.43985c0,-0.13807 0.11193,-0.25 0.25,-0.25c0.13807,0 0.25,0.11193 0.25,0.25c0,0.13807 -0.11193,0.25 -0.25,0.25c-0.13807,0 -0.25,-0.11193 -0.25,-0.25z" fill="#ffffff" stroke-width="0.5"/><path d="M417.88866,224.46585c0,-0.13807 0.11193,-0.25 0.25,-0.25c0.13807,0 0.25,0.11193 0.25,0.25c0,0.13807 -0.11193,0.25 -0.25,0.25c-0.13807,0 -0.25,-0.11193 -0.25,-0.25z" fill="#ffffff" stroke-width="0.5"/><path d="M401.87271,272.5139c0,-0.13807 0.11193,-0.25 0.25,-0.25c0.13807,0 0.25,0.11193 0.25,0.25c0,0.13807 -0.11193,0.25 -0.25,0.25c-0.13807,0 -0.25,-0.11193 -0.25,-0.25z" fill="#ffffff" stroke-width="0.5"/><path d="M402.94687,294.71274c-0.17678,-0.17678 0,-0.35355 0,-0.35355c0.2357,-0.2357 0.76533,-0.76533 1.00103,-1.00103c0,0 0.17678,-0.17678 0.35355,0c0.17678,0.17678 0,0.35355 0,0.35355c-0.2357,0.2357 -0.4714,0.4714 -0.70711,0.70711l-0.29392,0.29392c0,0 -0.17678,0.17678 -0.35355,0z" fill="#ffffff" stroke-width="0.5"/><path d="M380.35066,308.54994c0,0.25 -0.25,0.25 -0.25,0.25c-0.66667,0 -1.3353,0 -2.00197,0c0,0 -0.25,0 -0.25,-0.25c0,-0.25 0.25,-0.25 0.25,-0.25c0.66667,0 1.33333,0 2,0h0.00197c0,0 0.25,0 0.25,0.25z" fill="#ffffff" stroke-width="0.5"/><path d="M340.81162,332.57397c0,-0.25 0.25,-0.25 0.25,-0.25c0.66667,0 1.3353,0 2.00197,0c0,0 0.25,0 0.25,0.25c0,0.25 -0.25,0.25 -0.25,0.25c-0.66667,0 -1.33333,0 -2,0h-0.00197c0,0 -0.25,0 -0.25,-0.25z" fill="#ffffff" stroke-width="0.5"/><path d="M295.76657,330.572c0,-0.13807 0.11193,-0.25 0.25,-0.25c0.13807,0 0.25,0.11193 0.25,0.25c0,0.13807 -0.11193,0.25 -0.25,0.25c-0.13807,0 -0.25,-0.11193 -0.25,-0.25z" fill="#ffffff" stroke-width="0.5"/><path d="M253.72453,335.57697c0,-0.13807 0.11193,-0.25 0.25,-0.25c0.13807,0 0.25,0.11193 0.25,0.25c0,0.13807 -0.11193,0.25 -0.25,0.25c-0.13807,0 -0.25,-0.11193 -0.25,-0.25z" fill="#ffffff" stroke-width="0.5"/><path d="M208.68044,328.54817c0.02186,-0.24904 0.2709,-0.22718 0.2709,-0.22718l0.21795,0.01913c1.1121,0.09761 1.88478,0.51218 2.87499,1.00724c0,0 0.22361,0.1118 0.11181,0.33541c-0.1118,0.22361 -0.33541,0.11181 -0.33541,0.11181c-0.93585,-0.46789 -1.64982,-0.86463 -2.69511,-0.95638l-0.21795,-0.01913c0,0 -0.24904,-0.02186 -0.22718,-0.2709z" fill="#ffffff" stroke-width="0.5"/><path d="M184.65546,331.57302c0,-0.25 0.25,-0.25 0.25,-0.25c0.66667,0 1.3353,0 2.00197,0c0,0 0.25,0 0.25,0.25c0,0.25 -0.25,0.25 -0.25,0.25c-0.66667,0 -1.33333,0 -2,0h-0.00197c0,0 -0.25,0 -0.25,-0.25z" fill="#ffffff" stroke-width="0.5"/><path d="M149.62788,333.51435c0.06064,-0.24254 0.30317,-0.1819 0.30317,-0.1819c1.29352,0.32339 2.71047,0.67764 4.00399,1.00103c0,0 0.24254,0.06064 0.1819,0.30317c-0.06064,0.24254 -0.30317,0.1819 -0.30317,0.1819c-1.29352,-0.32339 -2.58704,-0.64678 -3.88056,-0.97017l-0.12343,-0.03086c0,0 -0.24254,-0.06064 -0.1819,-0.30317z" fill="#ffffff" stroke-width="0.5"/><path d="M98.57682,335.51633c0.06064,-0.24254 0.30317,-0.1819 0.30317,-0.1819c1.29352,0.32339 2.71047,0.67764 4.00399,1.00103c0,0 0.24254,0.06064 0.1819,0.30317c-0.06064,0.24254 -0.30317,0.1819 -0.30317,0.1819c-1.29352,-0.32339 -2.58704,-0.64678 -3.88056,-0.97017l-0.12343,-0.03086c0,0 -0.24254,-0.06064 -0.1819,-0.30317z" fill="#ffffff" stroke-width="0.5"/><path d="M69.61354,320.38518c0.17678,-0.17678 0.35355,0 0.35355,0c0.2357,0.2357 0.76533,0.76533 1.00103,1.00103c0,0 0.17678,0.17678 0,0.35355c-0.17678,0.17678 -0.35355,0 -0.35355,0c-0.2357,-0.2357 -0.4714,-0.4714 -0.70711,-0.70711l-0.29392,-0.29392c0,0 -0.17678,-0.17678 0,-0.35355z" fill="#ffffff" stroke-width="0.5"/><path d="M49.52033,316.558c0,-0.13807 0.11193,-0.25 0.25,-0.25c0.13807,0 0.25,0.11193 0.25,0.25c0,0.13807 -0.11193,0.25 -0.25,0.25c-0.13807,0 -0.25,-0.11193 -0.25,-0.25z" fill="#ffffff" stroke-width="0.5"/><path d="M38.00831,286.52775c0.00023,0.25 -0.24977,0.25023 -0.24977,0.25023h-0.00103c-0.35383,0.00033 -0.75023,0.39711 -0.75023,0.75094c0,0 0,0.25 -0.25,0.25c-0.25,0 -0.25,-0.25 -0.25,-0.25c0,-1.17839 0.07138,-1.24983 1.24976,-1.25094h0.00103c0,0 0.25,-0.00023 0.25023,0.24977z" fill="#ffffff" stroke-width="0.5"/><path d="M35.5063,231.4729c0,-0.25 0.25,-0.25 0.25,-0.25c1,0 2.003,0 3.003,0c0,0 0.25,0 0.25,0.25c0,0.25 -0.25,0.25 -0.25,0.25c-1,0 -2,0 -3,0h-0.003c0,0 -0.25,0 -0.25,-0.25z" fill="#ffffff" stroke-width="0.5"/><path d="M40.51132,212.45385c0,-0.13807 0.11193,-0.25 0.25,-0.25c0.13807,0 0.25,0.11193 0.25,0.25c0,0.13807 -0.11193,0.25 -0.25,0.25c-0.13807,0 -0.25,-0.11193 -0.25,-0.25z" fill="#ffffff" stroke-width="0.5"/><path d="M85.55636,175.41687c0,-0.13807 0.11193,-0.25 0.25,-0.25c0.13807,0 0.25,0.11193 0.25,0.25c0,0.13807 -0.11193,0.25 -0.25,0.25c-0.13807,0 -0.25,-0.11193 -0.25,-0.25z" fill="#ffffff" stroke-width="0.5"/><path d="M104.64859,197.26205c0.17678,-0.17677 0.35355,0.00001 0.35355,0.00001c0.2357,0.23571 0.76529,0.76532 1.00099,1.00103c0,0 0.17677,0.17678 -0.00001,0.35355c-0.17678,0.17677 -0.35355,-0.00001 -0.35355,-0.00001c-0.2357,-0.23571 -0.47139,-0.47142 -0.70709,-0.70712l-0.2939,-0.29391c0,0 -0.17677,-0.17678 0.00001,-0.35355z" fill="#ffffff" stroke-width="0.5"/><path d="M136.60741,184.42588c0,-0.13807 0.11193,-0.25 0.25,-0.25c0.13807,0 0.25,0.11193 0.25,0.25c0,0.13807 -0.11193,0.25 -0.25,0.25c-0.13807,0 -0.25,-0.11193 -0.25,-0.25z" fill="#ffffff" stroke-width="0.5"/><path d="M115.58639,155.39679c0,-0.25 0.25,-0.25 0.25,-0.25c0.33333,0 0.66765,0 1.00099,0c0,0 0.25,0 0.25,0.25c0,0.25 -0.25,0.25 -0.25,0.25c-0.33333,0 -0.66667,0 -1,0h-0.00099c0,0 -0.25,0 -0.25,-0.25z" fill="#ffffff" stroke-width="0.5"/><path d="M72.74607,162.64932c-0.2455,-0.04724 -0.19825,-0.29274 -0.19825,-0.29274l0.02418,-0.12563c0.25816,-1.34146 0.95306,-1.47353 2.11154,-2.05276c0,0 0.22361,-0.1118 0.33541,0.11181c0.1118,0.22361 -0.11181,0.33541 -0.11181,0.33541c-1.03857,0.51927 -1.62367,0.55436 -1.84415,1.70003l-0.02418,0.12563c0,0 -0.04724,0.2455 -0.29274,0.19825z" fill="#ffffff" stroke-width="0.5"/><path d="M39.58359,164.58265c-0.17686,-0.17669 -0.00017,-0.35355 -0.00017,-0.35355l0.29426,-0.29453c0.53887,-0.53938 0.34708,-1.34648 0.709,-1.70769c0.27728,-0.27674 1.78162,-0.07305 2.1766,-0.07305c0,0 0.25,0 0.25,0.25c0,0.25 -0.25,0.25 -0.25,0.25c-0.2174,0 -1.73586,-0.16041 -1.8234,-0.07305c-0.18375,0.18338 -0.23529,1.23354 -0.70849,1.70718l-0.29426,0.29453c0,0 -0.17669,0.17686 -0.35355,0.00017z" fill="#ffffff" stroke-width="0.5"/><path d="M25.4963,156.39781c0,-0.13807 0.11193,-0.25 0.25,-0.25c0.13807,0 0.25,0.11193 0.25,0.25c0,0.13807 -0.11193,0.25 -0.25,0.25c-0.13807,0 -0.25,-0.11193 -0.25,-0.25z" fill="#ffffff" stroke-width="0.5"/><path d="M11.95588,108.46157c-0.11181,0.22361 -0.33541,0.1118 -0.33541,0.1118c-0.59628,-0.29815 -1.40574,-0.70288 -2.00202,-1.00103c0,0 -0.22361,-0.11181 -0.1118,-0.33541c0.11181,-0.22361 0.33541,-0.1118 0.33541,-0.1118c0.59628,0.29815 1.19256,0.5963 1.78885,0.89444l0.21317,0.10659c0,0 0.22361,0.11181 0.1118,0.33541z" fill="#ffffff" stroke-width="0.5"/><path d="M42.51329,73.31471c0,-0.13807 0.11193,-0.25 0.25,-0.25c0.13807,0 0.25,0.11193 0.25,0.25c0,0.13807 -0.11193,0.25 -0.25,0.25c-0.13807,0 -0.25,-0.11193 -0.25,-0.25z" fill="#ffffff" stroke-width="0.5"/><path d="M56.02298,49.24988c0.04081,0.24665 -0.20584,0.28745 -0.20584,0.28745l-0.45542,0.07535c-0.44612,-0.05013 0.45206,2.00281 0.65178,2.60195c0,0 0.07906,0.23717 -0.15811,0.31623c-0.23717,0.07906 -0.31623,-0.15811 -0.31623,-0.15811c-0.33694,-1.0108 -1.46661,-2.89253 -0.25905,-3.25336l0.45542,-0.07535c0,0 0.24665,-0.04081 0.28745,0.20584z" fill="#ffffff" stroke-width="0.5"/><path d="M55.64856,14.47052c-0.21488,-0.12777 -0.08711,-0.34265 -0.08711,-0.34265c0.4259,-0.71628 0.94514,-1.58952 1.37104,-2.30579c1.54109,-2.59178 2.96871,-5.20544 4.64184,-7.71511c0,0 0.13868,-0.20801 0.34669,-0.06934c0.20801,0.13868 0.06934,0.34669 0.06934,0.34669c-1.66837,2.50254 -3.09133,5.10878 -4.6281,7.6933c-0.4259,0.71628 -0.8518,1.43255 -1.27771,2.14883l-0.09333,0.15696c0,0 -0.12777,0.21488 -0.34265,0.08711z" fill="#ffffff" stroke-width="0.5"/><path d="M44.01255,20.23196c0.0297,0.24823 -0.21853,0.27793 -0.21853,0.27793l-0.81906,-0.06414c-0.32337,1.29353 -0.64675,2.58705 -0.97012,3.88058c0,0 -0.06063,0.24254 -0.30317,0.1819c-0.24254,-0.06063 -0.1819,-0.30317 -0.1819,-0.30317c0.32337,-1.29353 0.64675,-2.58705 0.97012,-3.88058l1.24473,-0.31106c0,0 0.24823,-0.0297 0.27793,0.21853z" fill="#ffffff" stroke-width="0.5"/><path d="M24.60659,-10.97738c0.20801,-0.13868 0.34669,0.06934 0.34669,0.06934c0.64715,0.97072 1.35486,2.03228 2.00202,3.003c0,0 0.13868,0.20801 -0.06934,0.34669c-0.20801,0.13868 -0.34669,-0.06934 -0.34669,-0.06934c-0.64715,-0.97072 -1.29431,-1.94145 -1.94146,-2.91217l-0.06056,-0.09083c0,0 -0.13868,-0.20801 0.06934,-0.34669z" fill="#ffffff" stroke-width="0.5"/><path d="M12.69245,-14.52671c-0.24665,-0.04081 -0.20584,-0.28745 -0.20584,-0.28745l0.07535,-0.45542c0.36083,-1.20756 2.24256,-0.07789 3.25336,0.25905c0,0 0.23717,0.07906 0.15811,0.31623c-0.07906,0.23717 -0.31623,0.15811 -0.31623,0.15811c-0.59914,-0.19972 -2.65207,-1.0979 -2.60195,-0.65178l-0.07535,0.45542c0,0 -0.04081,0.24665 -0.28745,0.20584z" fill="#ffffff" stroke-width="0.5"/><path d="M-44.3238,17.50865c-0.25,0 -0.25,-0.25 -0.25,-0.25c0,-0.66667 0,-1.3353 0,-2.00197c0,0 0,-0.25 0.25,-0.25c0.25,0 0.25,0.25 0.25,0.25c0,0.66667 0,1.33333 0,2v0.00197c0,0 0,0.25 -0.25,0.25z" fill="#ffffff" stroke-width="0.5"/><path d="M-53.22669,79.54708c-0.22636,0.10612 -0.33248,-0.12024 -0.33248,-0.12024l-0.06121,-0.13058c-0.22531,-0.4806 -0.43168,-0.912 -0.59016,-1.37998l-0.04654,0.02182l-0.21,-0.44795c-0.01656,-0.03342 -0.02588,-0.07106 -0.02588,-0.11089c0,-0.13807 0.11193,-0.25 0.25,-0.25c0.05253,0 0.10128,0.0162 0.14152,0.04388c0.83205,0.5547 2.07728,1.38486 2.90933,1.93956c0,0 0.20801,0.13868 0.06934,0.34669c-0.13868,0.20801 -0.34669,0.06934 -0.34669,0.06934c-0.70675,-0.47117 -1.4135,-0.94234 -2.12026,-1.41352c0.1684,0.30884 0.28263,0.67139 0.42206,0.96881l0.06121,0.13058c0,0 0.10612,0.22636 -0.12024,0.33248z" fill="#ffffff" stroke-width="0.5"/><path d="M-45.57478,132.37379c0,-0.13807 0.11193,-0.25 0.25,-0.25c0.13807,0 0.25,0.11193 0.25,0.25c0,0.13807 -0.11193,0.25 -0.25,0.25c-0.13807,0 -0.25,-0.11193 -0.25,-0.25z" fill="#ffffff" stroke-width="0.5"/><path d="M-33.56277,176.41781c0,-0.13807 0.11193,-0.25 0.25,-0.25c0.13807,0 0.25,0.11193 0.25,0.25c0,0.13807 -0.11193,0.25 -0.25,0.25c-0.13807,0 -0.25,-0.11193 -0.25,-0.25z" fill="#ffffff" stroke-width="0.5"/><path d="M-46.57577,208.44989c0,-0.13807 0.11193,-0.25 0.25,-0.25c0.13807,0 0.25,0.11193 0.25,0.25c0,0.13807 -0.11193,0.25 -0.25,0.25c-0.13807,0 -0.25,-0.11193 -0.25,-0.25z" fill="#ffffff" stroke-width="0.5"/><path d="M-55.58478,254.49589c0,-0.25 0.25,-0.25 0.25,-0.25c1,0 2.003,0 3.003,0c0,0 0.25,0 0.25,0.25c0,0.25 -0.25,0.25 -0.25,0.25c-1,0 -2,0 -3,0h-0.003c0,0 -0.25,0 -0.25,-0.25z" fill="#ffffff" stroke-width="0.5"/><path d="M-36.56578,309.55096c0,-0.13807 0.11193,-0.25 0.25,-0.25c0.13807,0 0.25,0.11193 0.25,0.25c0,0.13807 -0.11193,0.25 -0.25,0.25c-0.13807,0 -0.25,-0.11193 -0.25,-0.25z" fill="#ffffff" stroke-width="0.5"/><path d="M-33.56277,348.59c0,-0.13807 0.11193,-0.25 0.25,-0.25c0.13807,0 0.25,0.11193 0.25,0.25c0,0.13807 -0.11193,0.25 -0.25,0.25c-0.13807,0 -0.25,-0.11193 -0.25,-0.25z" fill="#ffffff" stroke-width="0.5"/><path d="M-33.56277,370.61206c0,-0.13807 0.11193,-0.25 0.25,-0.25c0.13807,0 0.25,0.11193 0.25,0.25c0,0.13807 -0.11193,0.25 -0.25,0.25c-0.13807,0 -0.25,-0.11193 -0.25,-0.25z" fill="#ffffff" stroke-width="0.5"/><path d="M7.47828,391.63309c0,-0.13807 0.11193,-0.25 0.25,-0.25c0.13807,0 0.25,0.11193 0.25,0.25c0,0.13807 -0.11193,0.25 -0.25,0.25c-0.13807,0 -0.25,-0.11193 -0.25,-0.25z" fill="#ffffff" stroke-width="0.5"/><path d="M54.5253,388.63007c0,-0.13807 0.11193,-0.25 0.25,-0.25c0.13807,0 0.25,0.11193 0.25,0.25c0,0.13807 -0.11193,0.25 -0.25,0.25c-0.13807,0 -0.25,-0.11193 -0.25,-0.25z" fill="#ffffff" stroke-width="0.5"/><path d="M95.56636,400.6421c0,-0.13807 0.11193,-0.25 0.25,-0.25c0.13807,0 0.25,0.11193 0.25,0.25c0,0.13807 -0.11193,0.25 -0.25,0.25c-0.13807,0 -0.25,-0.11193 -0.25,-0.25z" fill="#ffffff" stroke-width="0.5"/><path d="M160.63144,387.62905c0,-0.13807 0.11193,-0.25 0.25,-0.25c0.13807,0 0.25,0.11193 0.25,0.25c0,0.13807 -0.11193,0.25 -0.25,0.25c-0.13807,0 -0.25,-0.11193 -0.25,-0.25z" fill="#ffffff" stroke-width="0.5"/><path d="M221.1915,405.64707c0,0.25 -0.25,0.25 -0.25,0.25c-0.33333,0 -0.6677,0 -1.00103,0c0,0 -0.25,0 -0.25,-0.25c0,-0.25 0.25,-0.25 0.25,-0.25c0.33333,0 0.66667,0 1,0h0.00103c0,0 0.25,0 0.25,0.25z" fill="#ffffff" stroke-width="0.5"/><path d="M265.20911,394.7479c-0.11181,0.2236 -0.33541,0.1118 -0.33541,0.1118c-0.59628,-0.29815 -1.40569,-0.70288 -2.00197,-1.00103c0,0 -0.2236,-0.11181 -0.1118,-0.33541c0.11181,-0.2236 0.33541,-0.1118 0.33541,-0.1118c0.59628,0.29815 1.19256,0.59631 1.78884,0.89446l0.21313,0.10657c0,0 0.2236,0.11181 0.1118,0.33541z" fill="#ffffff" stroke-width="0.5"/><path d="M328.04857,373.86507c-0.25,0 -0.25,-0.25 -0.25,-0.25c0,-0.66667 0,-1.3354 0,-2.00206c0,0 0,-0.25 0.25,-0.25c0.25,0 0.25,0.25 0.25,0.25c0,0.66667 0,1.33333 0,2v0.00206c0,0 0,0.25 -0.25,0.25z" fill="#ffffff" stroke-width="0.5"/><path d="M362.83367,375.61704c0,-0.13807 0.11193,-0.25 0.25,-0.25c0.13807,0 0.25,0.11193 0.25,0.25c0,0.13807 -0.11193,0.25 -0.25,0.25c-0.13807,0 -0.25,-0.11193 -0.25,-0.25z" fill="#ffffff" stroke-width="0.5"/><path d="M370.84165,316.558c0,-0.13807 0.11193,-0.25 0.25,-0.25c0.13807,0 0.25,0.11193 0.25,0.25c0,0.13807 -0.11193,0.25 -0.25,0.25c-0.13807,0 -0.25,-0.11193 -0.25,-0.25z" fill="#ffffff" stroke-width="0.5"/><path d="M342.81359,290.53193c0,-0.13807 0.11193,-0.25 0.25,-0.25c0.13807,0 0.25,0.11193 0.25,0.25c0,0.13807 -0.11193,0.25 -0.25,0.25c-0.13807,0 -0.25,-0.11193 -0.25,-0.25z" fill="#ffffff" stroke-width="0.5"/><path d="M294.76554,309.55096c0,-0.25 0.25,-0.25 0.25,-0.25c0.66667,0 1.3354,0 2.00206,0c0,0 0.25,0 0.25,0.25c0,0.25 -0.25,0.25 -0.25,0.25c-0.66667,0 -1.33333,0 -2,0h-0.00206c0,0 -0.25,0 -0.25,-0.25z" fill="#ffffff" stroke-width="0.5"/><path d="M275.74658,302.54393c0,-0.25 0.25,-0.25 0.25,-0.25c0.66667,0 1.3353,0 2.00197,0c0,0 0.25,0 0.25,0.25c0,0.25 -0.25,0.25 -0.25,0.25c-0.66667,0 -1.33333,0 -2,0h-0.00197c0,0 -0.25,0 -0.25,-0.25z" fill="#ffffff" stroke-width="0.5"/><path d="M294.76554,266.50789c0,-0.13807 0.11193,-0.25 0.25,-0.25c0.13807,0 0.25,0.11193 0.25,0.25c0,0.13807 -0.11193,0.25 -0.25,0.25c-0.13807,0 -0.25,-0.11193 -0.25,-0.25z" fill="#ffffff" stroke-width="0.5"/><path d="M323.0436,219.71088c-0.25,0 -0.25,-0.25 -0.25,-0.25c0,-0.66667 0,-1.3353 0,-2.00197c0,0 0,-0.25 0.25,-0.25c0.25,0 0.25,0.25 0.25,0.25c0,0.66667 0,1.33333 0,2v0.00197c0,0 0,0.25 -0.25,0.25z" fill="#ffffff" stroke-width="0.5"/><path d="M301.78541,141.30375c0.07906,-0.23717 0.31623,-0.15812 0.31623,-0.15812c0.94868,0.31622 2.05432,0.68476 3.003,1.00099c0,0 0.23717,0.07906 0.15812,0.31623c-0.07906,0.23717 -0.31623,0.15812 -0.31623,0.15812c-0.94868,-0.31622 -1.89737,-0.63245 -2.84605,-0.94867l-0.15695,-0.05232c0,0 -0.23717,-0.07906 -0.15812,-0.31623z" fill="#ffffff" stroke-width="0.5"/><path d="M293.7708,114.30044c0.05534,-0.2438 0.29913,-0.18846 0.29913,-0.18846l0.31965,0.07255c0.85107,0.19317 1.18664,0.37836 1.80376,0.99545c0,0 0.17678,0.17677 0.00001,0.35355c-0.17677,0.17678 -0.35355,0.00001 -0.35355,0.00001c-0.56421,-0.56418 -0.78278,-0.68481 -1.56088,-0.86142l-0.31965,-0.07255c0,0 -0.2438,-0.05534 -0.18846,-0.29913z" fill="#ffffff" stroke-width="0.5"/><path d="M289.12133,87.10513c0.22361,0.1118 0.11181,0.33541 0.11181,0.33541c-0.29813,0.59629 -0.70281,1.40568 -1.00094,2.00197c0,0 -0.1118,0.22361 -0.33541,0.11181c-0.22361,-0.1118 -0.11181,-0.33541 -0.11181,-0.33541c0.29813,-0.59629 0.59626,-1.19258 0.89439,-1.78887l0.10655,-0.2131c0,0 0.1118,-0.22361 0.33541,-0.11181z" fill="#ffffff" stroke-width="0.5"/><path d="M354.8256,66.30773c0,-0.13807 0.11193,-0.25 0.25,-0.25c0.13807,0 0.25,0.11193 0.25,0.25c0,0.13807 -0.11193,0.25 -0.25,0.25c-0.13807,0 -0.25,-0.11193 -0.25,-0.25z" fill="#ffffff" stroke-width="0.5"/><path d="M410.88172,58.2997c0,-0.13807 0.11193,-0.25 0.25,-0.25c0.13807,0 0.25,0.11193 0.25,0.25c0,0.13807 -0.11193,0.25 -0.25,0.25c-0.13807,0 -0.25,-0.11193 -0.25,-0.25z" fill="#ffffff" stroke-width="0.5"/><path d="M414.88566,137.37876c0,-0.13807 0.11193,-0.25 0.25,-0.25c0.13807,0 0.25,0.11193 0.25,0.25c0,0.13807 -0.11193,0.25 -0.25,0.25c-0.13807,0 -0.25,-0.11193 -0.25,-0.25z" fill="#ffffff" stroke-width="0.5"/><path d="M379.85066,170.4118c0,-0.25 0.25,-0.25 0.25,-0.25c0.66667,0 1.3353,0 2.00197,0c0,0 0.25,0 0.25,0.25c0,0.25 -0.25,0.25 -0.25,0.25c-0.66667,0 -1.33333,0 -2,0h-0.00197c0,0 -0.25,0 -0.25,-0.25z" fill="#ffffff" stroke-width="0.5"/><path d="M306.80395,210.56368c-0.1118,-0.22361 0.1118,-0.33541 0.1118,-0.33541c0.59628,-0.29814 1.40578,-0.70289 2.00206,-1.00103c0,0 0.22361,-0.1118 0.33541,0.1118c0.1118,0.22361 -0.1118,0.33541 -0.1118,0.33541c-0.59628,0.29814 -1.19257,0.59628 -1.78885,0.89443l-0.21321,0.1066c0,0 -0.22361,0.1118 -0.33541,-0.1118z" fill="#ffffff" stroke-width="0.5"/><path d="M256.72753,238.47992c0,-0.25 0.25,-0.25 0.25,-0.25c0.66667,0 1.3353,0 2.00197,0c0,0 0.25,0 0.25,0.25c0,0.25 -0.25,0.25 -0.25,0.25c-0.66667,0 -1.33333,0 -2,0h-0.00197c0,0 -0.25,0 -0.25,-0.25z" fill="#ffffff" stroke-width="0.5"/><path d="M205.74971,249.66769c-0.17678,-0.17677 -0.00001,-0.35355 -0.00001,-0.35355c0.2357,-0.23571 0.76529,-0.76532 1.00099,-1.00103c0,0 0.17677,-0.17678 0.35355,-0.00001c0.17678,0.17677 0.00001,0.35355 0.00001,0.35355c-0.2357,0.23571 -0.47139,0.47142 -0.70709,0.70712l-0.2939,0.29391c0,0 -0.17677,0.17678 -0.35355,0.00001z" fill="#ffffff" stroke-width="0.5"/><path d="M161.63242,244.48594c0,-0.13807 0.11193,-0.25 0.25,-0.25c0.13807,0 0.25,0.11193 0.25,0.25c0,0.13807 -0.11193,0.25 -0.25,0.25c-0.13807,0 -0.25,-0.11193 -0.25,-0.25z" fill="#ffffff" stroke-width="0.5"/><path d="M167.13744,210.45187c0,0.25 -0.25,0.25 -0.25,0.25c-1,0 -2.003,0 -3.003,0c0,0 -0.25,0 -0.25,-0.25c0,-0.25 0.25,-0.25 0.25,-0.25c1,0 2,0 3,0h0.003c0,0 0.25,0 0.25,0.25z" fill="#ffffff" stroke-width="0.5"/><path d="M202.67348,227.46885c0,-0.13807 0.11193,-0.25 0.25,-0.25c0.13807,0 0.25,0.11193 0.25,0.25c0,0.13807 -0.11193,0.25 -0.25,0.25c-0.13807,0 -0.25,-0.11193 -0.25,-0.25z" fill="#ffffff" stroke-width="0.5"/><path d="M252.7235,83.32471c0,-0.13807 0.11193,-0.25 0.25,-0.25c0.13807,0 0.25,0.11193 0.25,0.25c0,0.13807 -0.11193,0.25 -0.25,0.25c-0.13807,0 -0.25,-0.11193 -0.25,-0.25z" fill="#ffffff" stroke-width="0.5"/><path d="M207.67845,113.35474c0,-0.13807 0.11193,-0.25 0.25,-0.25c0.13807,0 0.25,0.11193 0.25,0.25c0,0.13807 -0.11193,0.25 -0.25,0.25c-0.13807,0 -0.25,-0.11193 -0.25,-0.25z" fill="#ffffff" stroke-width="0.5"/><path d="M306.77755,170.4118c0,-0.13807 0.11193,-0.25 0.25,-0.25c0.13807,0 0.25,0.11193 0.25,0.25c0,0.13807 -0.11193,0.25 -0.25,0.25c-0.13807,0 -0.25,-0.11193 -0.25,-0.25z" fill="#ffffff" stroke-width="0.5"/><path d="M390.86164,272.5139c0,-0.13807 0.11193,-0.25 0.25,-0.25c0.13807,0 0.25,0.11193 0.25,0.25c0,0.13807 -0.11193,0.25 -0.25,0.25c-0.13807,0 -0.25,-0.11193 -0.25,-0.25z" fill="#ffffff" stroke-width="0.5"/><path d="M357.8286,266.50789c0,-0.13807 0.11193,-0.25 0.25,-0.25c0.13807,0 0.25,0.11193 0.25,0.25c0,0.13807 -0.11193,0.25 -0.25,0.25c-0.13807,0 -0.25,-0.11193 -0.25,-0.25z" fill="#ffffff" stroke-width="0.5"/><path d="M381.85263,257.49888c0,-0.13807 0.11193,-0.25 0.25,-0.25c0.13807,0 0.25,0.11193 0.25,0.25c0,0.13807 -0.11193,0.25 -0.25,0.25c-0.13807,0 -0.25,-0.11193 -0.25,-0.25z" fill="#ffffff" stroke-width="0.5"/><path d="M315.78656,194.43583c0,-0.13807 0.11193,-0.25 0.25,-0.25c0.13807,0 0.25,0.11193 0.25,0.25c0,0.13807 -0.11193,0.25 -0.25,0.25c-0.13807,0 -0.25,-0.11193 -0.25,-0.25z" fill="#ffffff" stroke-width="0.5"/><path d="M239.20998,170.4118c0,-0.13807 0.11193,-0.25 0.25,-0.25c0.13807,0 0.25,0.11193 0.25,0.25c0,0.13807 -0.11193,0.25 -0.25,0.25c-0.13807,0 -0.25,-0.11193 -0.25,-0.25z" fill="#ffffff" stroke-width="0.5"/><path d="M183.65443,195.93733c0,-0.13807 0.11193,-0.25 0.25,-0.25c0.13807,0 0.25,0.11193 0.25,0.25c0,0.13807 -0.11193,0.25 -0.25,0.25c-0.13807,0 -0.25,-0.11193 -0.25,-0.25z" fill="#ffffff" stroke-width="0.5"/><path d="M150.6214,209.45084c0,-0.13807 0.11193,-0.25 0.25,-0.25c0.13807,0 0.25,0.11193 0.25,0.25c0,0.13807 -0.11193,0.25 -0.25,0.25c-0.13807,0 -0.25,-0.11193 -0.25,-0.25z" fill="#ffffff" stroke-width="0.5"/><path d="M147.61839,191.43282c0,-0.13807 0.11193,-0.25 0.25,-0.25c0.13807,0 0.25,0.11193 0.25,0.25c0,0.13807 -0.11193,0.25 -0.25,0.25c-0.13807,0 -0.25,-0.11193 -0.25,-0.25z" fill="#ffffff" stroke-width="0.5"/><path d="M161.13191,186.92832c0,-0.13807 0.11193,-0.25 0.25,-0.25c0.13807,0 0.25,0.11193 0.25,0.25c0,0.13807 -0.11193,0.25 -0.25,0.25c-0.13807,0 -0.25,-0.11193 -0.25,-0.25z" fill="#ffffff" stroke-width="0.5"/><path d="M215.18596,131.37276c0,-0.13807 0.11193,-0.25 0.25,-0.25c0.13807,0 0.25,0.11193 0.25,0.25c0,0.13807 -0.11193,0.25 -0.25,0.25c-0.13807,0 -0.25,-0.11193 -0.25,-0.25z" fill="#ffffff" stroke-width="0.5"/><path d="M180.65143,126.86825c0,-0.13807 0.11193,-0.25 0.25,-0.25c0.13807,0 0.25,0.11193 0.25,0.25c0,0.13807 -0.11193,0.25 -0.25,0.25c-0.13807,0 -0.25,-0.11193 -0.25,-0.25z" fill="#ffffff" stroke-width="0.5"/><path d="M162.63341,141.88328c0,-0.13807 0.11193,-0.25 0.25,-0.25c0.13807,0 0.25,0.11193 0.25,0.25c0,0.13807 -0.11193,0.25 -0.25,0.25c-0.13807,0 -0.25,-0.11193 -0.25,-0.25z" fill="#ffffff" stroke-width="0.5"/><path d="M207.67845,161.40279c0,-0.13807 0.11193,-0.25 0.25,-0.25c0.13807,0 0.25,0.11193 0.25,0.25c0,0.13807 -0.11193,0.25 -0.25,0.25c-0.13807,0 -0.25,-0.11193 -0.25,-0.25z" fill="#ffffff" stroke-width="0.5"/><path d="M261.73251,96.83822c0,-0.13807 0.11193,-0.25 0.25,-0.25c0.13807,0 0.25,0.11193 0.25,0.25c0,0.13807 -0.11193,0.25 -0.25,0.25c-0.13807,0 -0.25,-0.11193 -0.25,-0.25z" fill="#ffffff" stroke-width="0.5"/><path d="M143.11389,65.30669c0,-0.13807 0.11193,-0.25 0.25,-0.25c0.13807,0 0.25,0.11193 0.25,0.25c0,0.13807 -0.11193,0.25 -0.25,0.25c-0.13807,0 -0.25,-0.11193 -0.25,-0.25z" fill="#ffffff" stroke-width="0.5"/><path d="M108.57935,170.4118c0,-0.13807 0.11193,-0.25 0.25,-0.25c0.13807,0 0.25,0.11193 0.25,0.25c0,0.13807 -0.11193,0.25 -0.25,0.25c-0.13807,0 -0.25,-0.11193 -0.25,-0.25z" fill="#ffffff" stroke-width="0.5"/><path d="M405.87665,257.49888c0,-0.13807 0.11193,-0.25 0.25,-0.25c0.13807,0 0.25,0.11193 0.25,0.25c0,0.13807 -0.11193,0.25 -0.25,0.25c-0.13807,0 -0.25,-0.11193 -0.25,-0.25z" fill="#ffffff" stroke-width="0.5"/><path d="M452.4232,218.45984c0,-0.13807 0.11193,-0.25 0.25,-0.25c0.13807,0 0.25,0.11193 0.25,0.25c0,0.13807 -0.11193,0.25 -0.25,0.25c-0.13807,0 -0.25,-0.11193 -0.25,-0.25z" fill="#ffffff" stroke-width="0.5"/><path d="M455.4262,251.49289c0,-0.13807 0.11193,-0.25 0.25,-0.25c0.13807,0 0.25,0.11193 0.25,0.25c0,0.13807 -0.11193,0.25 -0.25,0.25c-0.13807,0 -0.25,-0.11193 -0.25,-0.25z" fill="#ffffff" stroke-width="0.5"/><path d="M455.4262,228.97036c0,-0.13807 0.11193,-0.25 0.25,-0.25c0.13807,0 0.25,0.11193 0.25,0.25c0,0.13807 -0.11193,0.25 -0.25,0.25c-0.13807,0 -0.25,-0.11193 -0.25,-0.25z" fill="#ffffff" stroke-width="0.5"/><path d="M134.03122,202.62064c-0.17675,0.17681 -0.35355,0.00006 -0.35355,0.00006l-0.17512,-0.17506c-1.06691,-1.06655 -2.12923,-2.75475 -3.65217,-2.75475c0,0 -0.25,0 -0.25,-0.25c0,-0.25 0.25,-0.25 0.25,-0.25c1.72614,0 2.82175,1.71763 4.00566,2.90113l0.17512,0.17506c0,0 0.17681,0.17675 0.00006,0.35355z" fill="#ffffff" stroke-width="0.5"/><path d="M172.1222,198.34137c0.09848,0.22979 -0.13131,0.32827 -0.13131,0.32827c-2.29786,0.9848 -4.70913,2.0182 -7.00699,3.003c0,0 -0.22979,0.09848 -0.32827,-0.13131c-0.09848,-0.22979 0.13131,-0.32827 0.13131,-0.32827c2.29786,-0.9848 4.59572,-1.9696 6.89359,-2.9544l0.11341,-0.0486c0,0 0.22979,-0.09848 0.32827,0.13131z" fill="#ffffff" stroke-width="0.5"/><path d="M241.18994,137.27724c0.10154,0.22845 -0.12692,0.32999 -0.12692,0.32999c-0.1523,0.06769 -0.63241,0.28107 -0.78472,0.34877c-2.74143,1.21842 -5.48286,2.43685 -8.22429,3.65527c0,0 -0.22845,0.10154 -0.32999,-0.12692c-0.10154,-0.22845 0.12692,-0.32999 0.12692,-0.32999c2.74143,-1.21842 5.48286,-2.43685 8.22429,-3.65527c0.1523,-0.06769 0.3046,-0.13538 0.45691,-0.20307l0.32781,-0.14569c0,0 0.22845,-0.10154 0.32999,0.12692z" fill="#ffffff" stroke-width="0.5"/><path d="M212.6963,141.46186c-0.07906,-0.23717 0.15811,-0.31623 0.15811,-0.31623c1.89737,-0.63246 4.10864,-1.36956 6.00601,-2.00202c0,0 0.23717,-0.07906 0.31623,0.15811c0.07906,0.23717 -0.15811,0.31623 -0.15811,0.31623c-1.89737,0.63246 -3.79473,1.26492 -5.6921,1.89738l-0.31391,0.10464c0,0 -0.23717,0.07906 -0.31623,-0.15811z" fill="#ffffff" stroke-width="0.5"/><path d="M114.58561,149.3795c0.01128,-0.24975 0.26103,-0.23846 0.26103,-0.23846l1.22577,0.0649c0.94868,0.31624 1.89736,0.63247 2.84604,0.94871c0,0 0.23717,0.07906 0.15811,0.31623c-0.07906,0.23717 -0.31623,0.15811 -0.31623,0.15811c-0.94868,-0.31624 -1.89736,-0.63247 -2.84604,-0.94871l-1.09022,-0.03975c0,0 -0.24975,-0.01128 -0.23846,-0.26103z" fill="#ffffff" stroke-width="0.5"/><path d="M188.02027,230.69547c-0.22361,0.11181 -0.33541,-0.1118 -0.33541,-0.1118c-0.5963,-1.19256 -1.40572,-2.81138 -2.00202,-4.00394c0,0 -0.11181,-0.22361 0.1118,-0.33541c0.22361,-0.11181 0.33541,0.1118 0.33541,0.1118c0.5963,1.19256 1.19259,2.38513 1.78889,3.57769l0.21313,0.42625c0,0 0.11181,0.22361 -0.1118,0.33541z" fill="#ffffff" stroke-width="0.5"/><path d="M284.75559,307.549c0,-0.13807 0.11193,-0.25 0.25,-0.25c0.13807,0 0.25,0.11193 0.25,0.25c0,0.13807 -0.11193,0.25 -0.25,0.25c-0.13807,0 -0.25,-0.11193 -0.25,-0.25z" fill="#ffffff" stroke-width="0.5"/><path d="M403.34726,247.37713c0.1118,0.22361 -0.11181,0.33541 -0.11181,0.33541c-0.59629,0.29813 -1.40568,0.70281 -2.00197,1.00094c0,0 -0.22361,0.1118 -0.33541,-0.11181c-0.1118,-0.22361 0.11181,-0.33541 0.11181,-0.33541c0.59629,-0.29813 1.19258,-0.59626 1.78887,-0.89439l0.2131,-0.10655c0,0 0.22361,-0.1118 0.33541,0.11181z" fill="#ffffff" stroke-width="0.5"/><path d="M421.08633,151.149c0.2438,-0.05534 0.29914,0.18846 0.29914,0.18846l0.07257,0.31972c0.17662,0.7781 0.29724,0.99667 0.86144,1.56086c0,0 0.17678,0.17678 0,0.35355c-0.17678,0.17678 -0.35355,0 -0.35355,0c-0.61711,-0.61711 -0.8023,-0.95267 -0.99548,-1.80374l-0.07257,-0.31972c0,0 -0.05534,-0.2438 0.18846,-0.29914z" fill="#ffffff" stroke-width="0.5"/><path d="M377.92654,96.15646c0.18129,-0.17215 0.35344,0.00914 0.35344,0.00914l2.20834,2.3343c0.94324,1.57207 1.88648,3.14414 2.82972,4.71621c0,0 0.12862,0.21437 -0.08575,0.343c-0.21437,0.12862 -0.343,-0.08575 -0.343,-0.08575c-0.94324,-1.57207 -1.88648,-3.14414 -2.82972,-4.71621l-2.14217,-2.24725c0,0 -0.17215,-0.18129 0.00914,-0.35344z" fill="#ffffff" stroke-width="0.5"/><path d="M300.78959,58.20644c0.09326,-0.23195 0.32521,-0.13869 0.32521,-0.13869c1.23709,0.49739 2.90117,1.16645 4.13826,1.66384c2.75385,1.10722 5.32732,2.88436 7.90453,4.35706c0,0 0.21706,0.12404 0.09303,0.3411c-0.12404,0.21706 -0.3411,0.09303 -0.3411,0.09303c-2.55687,-1.46108 -5.11102,-3.22885 -7.84298,-4.32727c-1.23709,-0.49739 -2.47417,-0.99477 -3.71126,-1.49216l-0.427,-0.17168c0,0 -0.23195,-0.09326 -0.13869,-0.32521z" fill="#ffffff" stroke-width="0.5"/><path d="M206.68661,55.36368c-0.06698,-0.24086 0.17388,-0.30784 0.17388,-0.30784l0.32584,-0.09062c2.0428,-0.5681 2.92506,-0.85856 4.85796,0.10787c0,0 0.22361,0.1118 0.11181,0.33541c-0.1118,0.22361 -0.33541,0.11181 -0.33541,0.11181c-1.83311,-0.91653 -2.53746,-0.61926 -4.50039,-0.07337l-0.32584,0.09062c0,0 -0.24086,0.06698 -0.30784,-0.17388z" fill="#ffffff" stroke-width="0.5"/><path d="M65.60955,-31.96717c0.17678,-0.17678 0.35355,0 0.35355,0c0.2357,0.2357 0.76528,0.76528 1.00099,1.00099c0,0 0.17678,0.17678 0,0.35355c-0.17678,0.17678 -0.35355,0 -0.35355,0c-0.2357,-0.2357 -0.4714,-0.4714 -0.70711,-0.70711l-0.29388,-0.29388c0,0 -0.17678,-0.17678 0,-0.35355z" fill="#ffffff" stroke-width="0.5"/><path d="M-18.51108,-64.95379c0.13036,-0.21332 0.34368,-0.08296 0.34368,-0.08296c0.42664,0.26073 0.95239,0.58202 1.37903,0.84274c2.98649,1.82508 5.97297,3.65015 8.95946,5.47523c2.55984,1.56435 5.11969,3.1287 7.67953,4.69305c0,0 0.21332,0.13036 0.08296,0.34368c-0.13036,0.21332 -0.34368,0.08296 -0.34368,0.08296c-2.55984,-1.56435 -5.11969,-3.1287 -7.67953,-4.69305c-2.98649,-1.82508 -5.97297,-3.65015 -8.95946,-5.47523c-0.42664,-0.26073 -0.85328,-0.52145 -1.27992,-0.78218l-0.09911,-0.06057c0,0 -0.21332,-0.13036 -0.08296,-0.34368z" fill="#ffffff" stroke-width="0.5"/><path d="M-65.34482,-23.53237c-0.25,0 -0.25,-0.25 -0.25,-0.25c0,-0.66667 0,-1.33535 0,-2.00202c0,0 0,-0.25 0.25,-0.25c0.25,0 0.25,0.25 0.25,0.25c0,0.66667 0,1.33333 0,2v0.00202c0,0 0,0.25 -0.25,0.25z" fill="#ffffff" stroke-width="0.5"/><path d="M-64.16701,97.51552c-0.17677,0.17678 -0.35355,0.00001 -0.35355,0.00001c-0.23571,-0.2357 -0.76532,-0.76529 -1.00103,-1.00099c0,0 -0.17678,-0.17677 -0.00001,-0.35355c0.17677,-0.17678 0.35355,-0.00001 0.35355,-0.00001c0.23571,0.2357 0.47142,0.47139 0.70712,0.70709l0.29391,0.2939c0,0 0.17678,0.17677 0.00001,0.35355z" fill="#ffffff" stroke-width="0.5"/><path d="M-66.45761,193.6585c-0.22361,-0.1118 -0.1118,-0.33541 -0.1118,-0.33541c0.59628,-1.19257 1.40573,-2.81146 2.00202,-4.00403c0,0 0.1118,-0.22361 0.33541,-0.1118c0.22361,0.1118 0.1118,0.33541 0.1118,0.33541c-0.59628,1.19257 -1.19257,2.38514 -1.78885,3.57771l-0.21316,0.42633c0,0 -0.1118,0.22361 -0.33541,0.1118z" fill="#ffffff" stroke-width="0.5"/><path d="M-70.34979,311.80294c-0.25,0 -0.25,-0.25 -0.25,-0.25c0,-0.66667 0,-1.3353 0,-2.00197c0,0 0,-0.25 0.25,-0.25c0.25,0 0.25,0.25 0.25,0.25c0,0.66667 0,1.33333 0,2v0.00197c0,0 0,0.25 -0.25,0.25z" fill="#ffffff" stroke-width="0.5"/><path d="M-66.31045,379.86856c-0.24749,0.03535 -0.28284,-0.21213 -0.28284,-0.21213c-0.32998,-2.30988 -0.67101,-4.69715 -1.00099,-7.00704c0,0 -0.03535,-0.24749 0.21213,-0.28284c0.24749,-0.03535 0.28284,0.21213 0.28284,0.21213c0.32998,2.30988 0.65995,4.61977 0.98993,6.92965l0.01106,0.07739c0,0 0.03535,0.24749 -0.21213,0.28284z" fill="#ffffff" stroke-width="0.5"/><path d="M-36.20397,410.87565c-0.22361,0.1118 -0.33541,-0.1118 -0.33541,-0.1118c-0.29814,-0.59628 -0.70284,-1.40569 -1.00099,-2.00197c0,0 -0.1118,-0.22361 0.1118,-0.33541c0.22361,-0.1118 0.33541,0.1118 0.33541,0.1118c0.29814,0.59628 0.59628,1.19257 0.89443,1.78885l0.10656,0.21312c0,0 0.1118,0.22361 -0.1118,0.33541z" fill="#ffffff" stroke-width="0.5"/><path d="M60.02692,412.69521c-0.0411,0.2466 -0.2877,0.2055 -0.2877,0.2055c-0.98639,-0.1644 -2.14808,-0.35802 -3.13447,-0.52243c-2.95918,-0.49321 -5.91836,-0.98642 -8.87754,-1.47963c0,0 -0.2466,-0.0411 -0.2055,-0.2877c0.0411,-0.2466 0.2877,-0.2055 0.2877,-0.2055c2.95918,0.49321 5.91836,0.98642 8.87754,1.47963c0.98639,0.1644 1.97279,0.32881 2.95918,0.49321l0.17529,0.02922c0,0 0.2466,0.0411 0.2055,0.2877z" fill="#ffffff" stroke-width="0.5"/><path d="M169.13893,408.63447c0.0156,0.24951 -0.23392,0.26511 -0.23392,0.26511c-2.32879,0.14555 -4.70474,0.29406 -7.03353,0.43961c-2.99416,0.18714 -5.98831,0.37428 -8.98247,0.56142c0,0 -0.24951,0.0156 -0.26511,-0.23392c-0.0156,-0.24951 0.23392,-0.26511 0.23392,-0.26511c2.99416,-0.18714 5.98831,-0.37428 8.98247,-0.56142c2.32879,-0.14555 4.65758,-0.29111 6.98637,-0.43666l0.04716,-0.00295c0,0 0.24951,-0.0156 0.26511,0.23392z" fill="#ffffff" stroke-width="0.5"/><path d="M270.23566,426.71741c-0.04931,0.24509 -0.2944,0.19577 -0.2944,0.19577l-0.22667,-0.04561c-2.95078,-0.59372 -5.8735,-1.22891 -8.79366,-1.95892c0,0 -0.24254,-0.06063 -0.1819,-0.30317c0.06063,-0.24254 0.30317,-0.1819 0.30317,-0.1819c2.91269,0.72814 5.82779,1.36162 8.77103,1.95381l0.22667,0.04561c0,0 0.24509,0.04931 0.19577,0.2944z" fill="#ffffff" stroke-width="0.5"/><path d="M351.32166,425.66706c0,0.25 -0.25,0.25 -0.25,0.25c-0.33333,0 -0.67671,0 -1.01004,0c-3,0 -6,0 -9,0c0,0 -0.25,0 -0.25,-0.25c0,-0.25 0.25,-0.25 0.25,-0.25c3,0 6,0 9,0c0.33333,0 0.66667,0 1,0h0.01004c0,0 0.25,0 0.25,0.25z" fill="#ffffff" stroke-width="0.5"/><path d="M449.41632,422.70516c-0.0411,0.2466 -0.2877,0.2055 -0.2877,0.2055c-0.98639,-0.1644 -2.14807,-0.35801 -3.13446,-0.5224c-2.95918,-0.49319 -5.91837,-0.98638 -8.87755,-1.47957c0,0 -0.2466,-0.0411 -0.2055,-0.2877c0.0411,-0.2466 0.2877,-0.2055 0.2877,-0.2055c2.95918,0.49319 5.91837,0.98638 8.87755,1.47957c0.98639,0.1644 1.97279,0.32879 2.95918,0.49319l0.17528,0.02921c0,0 0.2466,0.0411 0.2055,0.2877z" fill="#ffffff" stroke-width="0.5"/><path d="M499.97078,405.64707c0,-0.13807 0.11193,-0.25 0.25,-0.25c0.13807,0 0.25,0.11193 0.25,0.25c0,0.13807 -0.11193,0.25 -0.25,0.25c-0.13807,0 -0.25,-0.11193 -0.25,-0.25z" fill="#ffffff" stroke-width="0.5"/><path d="M547.01779,321.56298c0,-0.13807 0.11193,-0.25 0.25,-0.25c0.13807,0 0.25,0.11193 0.25,0.25c0,0.13807 -0.11193,0.25 -0.25,0.25c-0.13807,0 -0.25,-0.11193 -0.25,-0.25z" fill="#ffffff" stroke-width="0.5"/><path d="M560.45761,252.31714c0.17678,0.17678 0,0.35355 0,0.35355c-0.94281,0.94281 -2.06019,2.06019 -3.003,3.003c0,0 -0.17678,0.17678 -0.35355,0c-0.17678,-0.17678 0,-0.35355 0,-0.35355c0.94281,-0.94281 1.88562,-1.88562 2.82843,-2.82843l0.17458,-0.17458c0,0 0.17678,-0.17678 0.35355,0z" fill="#ffffff" stroke-width="0.5"/><path d="M541.20645,159.15702c0.2438,-0.05534 0.29914,0.18846 0.29914,0.18846l0.22688,1.17344c0.23571,0.2357 0.47142,0.47139 0.70712,0.70709c0,0 0.17678,0.17677 0.00001,0.35355c-0.17677,0.17678 -0.35355,0.00001 -0.35355,0.00001c-0.23571,-0.2357 -0.47142,-0.47139 -0.70712,-0.70709l-0.36093,-1.41632c0,0 -0.05534,-0.2438 0.18846,-0.29914z" fill="#ffffff" stroke-width="0.5"/><path d="M544.01479,76.31773c0,-0.13807 0.11193,-0.25 0.25,-0.25c0.13807,0 0.25,0.11193 0.25,0.25c0,0.13807 -0.11193,0.25 -0.25,0.25c-0.13807,0 -0.25,-0.11193 -0.25,-0.25z" fill="#ffffff" stroke-width="0.5"/><path d="M536.33587,-11.00654c0.23717,0.07906 0.15812,0.31623 0.15812,0.31623c-0.63245,1.89737 -1.36952,4.10864 -2.00197,6.00601c0,0 -0.07906,0.23717 -0.31623,0.15812c-0.23717,-0.07906 -0.15812,-0.31623 -0.15812,-0.31623c0.63245,-1.89737 1.26489,-3.79474 1.89734,-5.69211l0.10463,-0.3139c0,0 0.07906,-0.23717 0.31623,-0.15812z" fill="#ffffff" stroke-width="0.5"/><path d="M500.97927,-45.74378c-0.06063,-0.24254 0.1819,-0.30317 0.1819,-0.30317c1.29352,-0.32338 2.71042,-0.6776 4.00394,-1.00099c0,0 0.24254,-0.06063 0.30317,0.1819c0.06063,0.24254 -0.1819,0.30317 -0.1819,0.30317c-1.29352,0.32338 -2.58705,0.64676 -3.88057,0.97014l-0.12337,0.03084c0,0 -0.24254,0.06063 -0.30317,-0.1819z" fill="#ffffff" stroke-width="0.5"/><path d="M340.88093,-53.98517c0.17277,-0.18069 0.35346,-0.00791 0.35346,-0.00791l2.13323,2.05517c1.93793,0.96896 3.87585,1.93793 5.81378,2.90689c0,0 0.22361,0.1118 0.1118,0.33541c-0.1118,0.22361 -0.33541,0.1118 -0.33541,0.1118c-1.93793,-0.96896 -3.87585,-1.93793 -5.81378,-2.90689l-2.25517,-2.141c0,0 -0.18069,-0.17277 -0.00791,-0.35346z" fill="#ffffff" stroke-width="0.5"/><path d="M272.74358,-56.8154c0,-0.25 0.25,-0.25 0.25,-0.25c0.66667,0 1.3353,0 2.00197,0c0,0 0.25,0 0.25,0.25c0,0.25 -0.25,0.25 -0.25,0.25c-0.66667,0 -1.33333,0 -2,0h-0.00197c0,0 -0.25,0 -0.25,-0.25z" fill="#ffffff" stroke-width="0.5"/><path d="M177.67482,-51.92223c0.11181,-0.22361 0.33541,-0.1118 0.33541,-0.1118c0.59628,0.29815 1.40574,0.70288 2.00202,1.00103c0,0 0.22361,0.11181 0.1118,0.33541c-0.11181,0.22361 -0.33541,0.1118 -0.33541,0.1118c-0.59628,-0.29815 -1.19256,-0.5963 -1.78885,-0.89444l-0.21317,-0.10659c0,0 -0.22361,-0.11181 -0.1118,-0.33541z" fill="#ffffff" stroke-width="0.5"/><path d="M115.04324,-70.9683c0.13887,0.20788 -0.06902,0.34675 -0.06902,0.34675l-0.09262,0.06187c-0.63482,0.42406 -2.48584,1.21262 -2.82878,1.85411c-0.39676,0.74218 0.02953,3.00123 0.02953,3.88214c0,0 0,0.25 -0.25,0.25c-0.25,0 -0.25,-0.25 -0.25,-0.25c0,-0.99062 -0.43155,-3.25537 0.02953,-4.11786c0.40618,-0.75979 2.26703,-1.54988 2.99199,-2.03416l0.09262,-0.06187c0,0 0.20788,-0.13887 0.34675,0.06902z" fill="#ffffff" stroke-width="0.5"/><path d="M88.55936,-66.82544c0,-0.13807 0.11193,-0.25 0.25,-0.25c0.13807,0 0.25,0.11193 0.25,0.25c0,0.13807 -0.11193,0.25 -0.25,0.25c-0.13807,0 -0.25,-0.11193 -0.25,-0.25z" fill="#ffffff" stroke-width="0.5"/><path d="M183.65443,177.41884c0,-0.13807 0.11193,-0.25 0.25,-0.25c0.13807,0 0.25,0.11193 0.25,0.25c0,0.13807 -0.11193,0.25 -0.25,0.25c-0.13807,0 -0.25,-0.11193 -0.25,-0.25z" fill="#ffffff" stroke-width="0.5"/><path d="M235.70651,180.42184c0,-0.13807 0.11193,-0.25 0.25,-0.25c0.13807,0 0.25,0.11193 0.25,0.25c0,0.13807 -0.11193,0.25 -0.25,0.25c-0.13807,0 -0.25,-0.11193 -0.25,-0.25z" fill="#ffffff" stroke-width="0.5"/><path d="M110.77341,186.67103c-0.24319,-0.05796 -0.18523,-0.30115 -0.18523,-0.30115l0.09725,-0.40807c0.44051,-1.13862 1.39783,-0.18855 2.25976,0.24242c0,0 0.22361,0.11181 0.1118,0.33541c-0.11181,0.22361 -0.33541,0.1118 -0.33541,0.1118c-0.46583,-0.23292 -1.58536,-1.09836 -1.54977,-0.57371l-0.09725,0.40807c0,0 -0.05796,0.24319 -0.30115,0.18523z" fill="#ffffff" stroke-width="0.5"/><path d="M278.82282,197.26205c0.17678,-0.17677 0.35355,0.00002 0.35355,0.00002c0.23569,0.23571 0.76525,0.76532 1.00094,1.00103c0,0 0.17677,0.17678 -0.00002,0.35355c-0.17678,0.17677 -0.35355,-0.00002 -0.35355,-0.00002c-0.23569,-0.23571 -0.47138,-0.47143 -0.70707,-0.70714l-0.29387,-0.29389c0,0 -0.17677,-0.17678 0.00002,-0.35355z" fill="#ffffff" stroke-width="0.5"/><path d="M331.80261,274.51597c0,-0.25 0.25,-0.25 0.25,-0.25c0.33333,0 0.6677,0 1.00103,0c0,0 0.25,0 0.25,0.25c0,0.25 -0.25,0.25 -0.25,0.25c-0.33333,0 -0.66667,0 -1,0h-0.00103c0,0 -0.25,0 -0.25,-0.25z" fill="#ffffff" stroke-width="0.5"/><path d="M244.72299,227.40823c0.06064,-0.24254 0.30317,-0.1819 0.30317,-0.1819c1.29352,0.32339 2.71051,0.67764 4.00403,1.00103c0,0 0.24254,0.06064 0.1819,0.30317c-0.06064,0.24254 -0.30317,0.1819 -0.30317,0.1819c-1.29352,-0.32339 -2.58704,-0.64678 -3.88056,-0.97016l-0.12347,-0.03087c0,0 -0.24254,-0.06064 -0.1819,-0.30317z" fill="#ffffff" stroke-width="0.5"/><text transform="translate(37.0404,142.1196) scale(0.98803,0.98803)" font-size="40" xml:space="preserve" fill="#ff0000" fill-rule="nonzero" stroke="none" stroke-width="1" stroke-linecap="butt" stroke-linejoin="miter" stroke-miterlimit="10" stroke-dasharray="" stroke-dashoffset="0" font-family="Sans Serif" font-weight="normal" text-anchor="start" style="mix-blend-mode: normal"><tspan x="0" dy="0">Game Over</tspan><tspan x="0" dy="46.15px">Press r to play again</tspan></text></g></g></svg>