<svg version="1.1" xmlns="http://www.w3.org/2000/svg" xmlns:xlink="http://www.w3.org/1999/xlink" width="64.40346" height="25.95559" viewBox="0,0,64.40346,25.95559"><g transform="translate(-207.79824,-158.02218)"><g data-paper-data="{&quot;isPaintingLayer&quot;:true}" fill-rule="nonzero" stroke="none" stroke-linecap="butt" stroke-linejoin="miter" stroke-miterlimit="10" stroke-dasharray="" stroke-dashoffset="0" style="mix-blend-mode: normal"><g stroke-width="1"><path d="M231.74069,172.80914c0,0 -1.65102,0.7288 -1.79298,0.74785c-0.14196,0.01906 -2.59051,0.34194 -2.59051,0.34194c0,0 -5.14399,-0.33583 -5.24913,-0.35802c-0.10514,-0.02218 -7.64705,-1.42943 -7.64705,-1.42943l-6.155,-1.67058l1.35505,-0.35884l5.23179,-1.10908l4.94013,-0.77035l5.56165,-0.55498c0,0 1.90543,0.04561 2.15328,0.0279c0.24786,-0.01771 4.1165,0.42709 4.87474,1.91484c0.75823,1.48795 -0.09374,2.58097 -0.09374,2.58097z" fill="#f7ec1e"/><path d="M227.0692,172.10476c-0.85249,0.13498 -4.36964,-0.26388 -4.36964,-0.26388l-4.20351,-0.9485c0,0 2.63715,-0.65374 5.1616,-1.12144c2.52445,-0.4677 4.31115,-0.07032 4.69492,0.05946c0.38412,0.12978 0.93119,0.61552 0.93119,0.61552c0.0894,1.43777 -1.36205,1.52366 -2.21455,1.65884z" fill="#fbf5a8"/></g><g><path d="M270.66182,172.74004l-2.50525,1.88373l-2.04764,0.95275l-2.57109,0.7795l-3.0573,0.55312l-6.82569,0.80007l-8.15961,0.47974l-7.38226,0.03143l-0.72013,-0.5922l-1.59463,-2.76856l-0.65967,-2.25706l0.05443,-1.49852l0.05141,-1.41535l0.94622,-2.71553l1.36059,-2.45587l0.80851,-0.86876l6.78746,-0.18494l5.62027,-0.13695l5.21837,0.23271l5.62081,0.82068l4.03429,0.74596l3.9963,1.79194l1.65714,2.01986l0.43827,1.54625l-1.0708,2.256" fill="#c1b4d8" stroke-width="1"/><path d="M243.09787,178.07518l-4.84368,0.14699l-0.72089,-0.57136l-1.46854,-2.35072l-0.8624,-2.50946l0.00612,-2.11328l0.4096,-2.5263l1.26236,-2.66836l1.30051,-1.77407l4.7055,-0.23195l-1.05065,1.21521l-1.04029,1.90228l-0.86127,2.32122l-0.09827,2.70563l-0.06697,1.84391l0.71583,1.68303l1.24253,1.76686l1.37051,1.16037" fill="#897ab8" stroke-width="1"/><path d="M248.89753,172.0271l-1.77786,0.33159l-3.80938,-0.13166l-6.16769,-0.3488l-9.40623,-0.63964l-0.76526,-0.32209l6.23515,-0.53624l7.11003,-0.31494l6.81292,0.08628l1.82426,0.3355l0.6856,0.5707l-0.74153,0.96929" fill="#ef463c" stroke-width="1"/><path d="M250.94849,163.20402l-12.73072,0.46336l-1.30437,-1.0367l-2.69845,-0.57555l-4.63339,0.19116l-2.30661,0.30403l0.00756,-0.20824l3.38019,-1.66452l7.80178,-1.85836l3.47907,-0.49732l3.64196,-0.1205l3.12508,0.49774l2.35052,1.40385l0.5198,1.25596l-0.63243,1.84509" fill="#ef463c" stroke-width="1"/><path d="M251.19182,179.51027l-0.96929,1.73655l-2.22943,1.09622l-2.16843,0.389l-4.69492,-0.05946l-6.17729,-1.05692l-5.00105,-1.35421l0.29071,-0.2253l3.45488,0.16867l2.09178,-0.22355l1.46922,-0.58512l0.99618,-1.17399l12.22745,-0.2201c0.75543,0.59265 0.71017,1.5082 0.71017,1.5082z" fill="#ef463c" stroke-width="1"/><path d="M269.9745,173.1893l-1.07896,-1.4086l-0.33236,-1.54512l0.32775,-1.24501l0.75136,-1.23986l0.36433,-0.30757l1.49576,1.60115l0.22797,1.50209l-0.22109,1.22551l-0.99846,1.23673l-0.53631,0.18069" fill="#ef463c" stroke-width="1"/><g fill="#32419a" stroke-width="1"><path d="M253.29972,164.64667c0.00006,0.15391 -0.12836,0.26697 -0.31569,0.29067c-0.14866,0.01876 -0.31236,0.03379 -0.45795,0.01672c-0.22542,-0.02642 -0.29361,-0.19078 -0.06999,-0.27053c0.11377,-0.04027 0.20295,-0.10379 0.31232,-0.14911c0.10864,-0.04492 0.23886,-0.11021 0.36485,-0.04939c0.09267,0.04476 0.13311,0.12743 0.16647,0.16164z"/><path d="M251.11587,168.29977c0.17263,-0.05642 0.31425,-0.10508 0.4589,-0.14976c0.16572,-0.05087 0.36232,-0.02836 0.45489,0.0483c0.09496,0.07878 0.06096,0.17887 -0.09426,0.26157c-0.05798,0.03097 -0.12016,0.06063 -0.18671,0.08439c-0.20002,0.0715 -0.36592,0.0498 -0.4874,-0.06707c-0.05698,-0.05494 -0.09642,-0.11655 -0.14542,-0.17743z"/><path d="M253.32945,176.57563c0.24848,0.08197 0.39598,0.19228 0.34588,0.35619c-0.02485,0.08144 -0.30558,0.13877 -0.52587,0.1266c-0.17447,-0.00951 -0.25761,-0.07354 -0.28676,-0.16567c-0.04496,-0.143 0.05278,-0.2085 0.46675,-0.31712z"/><path d="M251.77898,173.39846c0.04917,0.09509 0.09374,0.18053 0.13631,0.26282c-0.23953,0.16776 -0.41361,0.2056 -0.62453,0.13995c-0.10931,-0.03392 -0.1827,-0.14266 -0.14544,-0.2254c0.09028,-0.20051 0.38265,-0.14092 0.63366,-0.17737z"/></g><path d="M251.35751,163.11494c0.49519,0.01795 0.94263,0.0476 1.38941,0.04679c0.54567,-0.00102 1.0802,0.04246 1.61715,0.087c0.33626,0.02782 0.67675,0.03652 1.01305,0.0633c0.53702,0.04288 1.06976,0.10614 1.60789,0.13777c0.55893,0.03273 1.07357,0.15687 1.61156,0.23124c0.68382,0.09458 1.37622,0.16695 2.05624,0.26878c0.39059,0.05854 0.81498,0.05203 1.16678,0.19642c0.06021,0.02454 0.15249,0.02154 0.22982,0.03169c0.43865,0.0579 0.88375,0.10337 1.31439,0.17743c0.48749,0.08396 0.97575,0.17606 1.43967,0.29664c0.59546,0.15498 1.17707,0.33126 1.74739,0.517c0.778,0.25343 1.50905,0.55465 2.13333,0.92729c0.48083,0.28699 0.95771,0.57561 1.36228,0.91044c0.46046,0.381 0.79974,0.80217 1.25277,1.18349c0.11172,0.09401 0.23466,0.20964 0.14512,0.35094c-0.02399,0.03828 0.0508,0.09866 0.08255,0.14827c0.12125,0.19131 0.24821,0.38102 0.36128,0.57389c0.01897,0.03194 -0.02783,0.07577 -0.031,0.11451c-0.0089,0.10895 -0.055,0.22119 0.12441,0.30855c0.05171,0.02505 0.06802,0.08157 0.0823,0.12596c0.04187,0.13066 0.0653,0.26359 0.11285,0.39328c0.04947,0.13534 0.04412,0.25352 -0.19291,0.3135c0.09365,0.38719 0.02808,0.7534 -0.11538,1.11528c-0.04352,0.10914 -0.12189,0.21513 -0.20504,0.31668c-0.29345,0.35894 -0.57818,0.72091 -0.90237,1.07049c-0.16025,0.17273 -0.39836,0.3207 -0.60121,0.47995c-0.01346,0.01088 -0.03289,0.02064 -0.03933,0.03266c-0.14823,0.28904 -0.60334,0.42196 -0.91524,0.62759c-0.29996,0.19786 -0.56014,0.41875 -0.8839,0.60088c-0.3461,0.19457 -0.6245,0.43065 -1.08239,0.56228c-0.30764,0.08849 -0.54683,0.25646 -0.83227,0.37547c-0.67521,0.2809 -1.37152,0.54966 -2.13567,0.73162c-0.7075,0.1683 -1.45793,0.27433 -2.18921,0.40708c-0.06506,0.0119 -0.14165,0.01072 -0.19642,0.03088c-0.52978,0.19537 -1.14712,0.21508 -1.73015,0.30154c-0.4932,0.07321 -0.99198,0.13467 -1.48843,0.19991c-0.69305,0.09153 -1.38354,0.19019 -2.08039,0.26957c-0.45464,0.0518 -0.9173,0.0912 -1.37907,0.10599c-0.47698,0.01544 -0.93592,0.07886 -1.4036,0.12028c-0.50028,0.04455 -1.00857,0.05667 -1.51343,0.08114c-0.36087,0.01774 -0.72227,0.03048 -1.08254,0.05115c-0.08175,0.00459 -0.15974,0.03218 -0.25834,0.05345c0.03877,0.04116 0.05156,0.06801 0.08133,0.08465c0.44308,0.24689 0.58013,0.57687 0.62388,0.90859c0.07722,0.58677 -0.10306,1.15526 -0.50873,1.69672c-0.38745,0.51624 -1.05731,0.88313 -1.81695,1.20363c-0.0391,0.0166 -0.08766,0.05082 -0.08319,0.0734c0.01689,0.08926 -0.08397,0.13387 -0.17339,0.18445c-0.33208,0.18765 -0.73643,0.30369 -1.15644,0.40369c-0.18738,0.04455 -0.39832,0.0667 -0.56242,0.13135c-0.32818,0.12889 -0.70722,0.1414 -1.06812,0.18896c-0.81122,0.10693 -1.63826,0.12461 -2.4648,0.08953c-0.51905,-0.02221 -1.03466,-0.07108 -1.55218,-0.1062c-0.13493,-0.00922 -0.27079,-0.01198 -0.40657,-0.01724c-0.91947,-0.03375 -1.80473,-0.18302 -2.70485,-0.28284c-0.36688,-0.04051 -0.73397,-0.08479 -1.09423,-0.14232c-0.33744,-0.0537 -0.66457,-0.12875 -0.99815,-0.19136c-0.45249,-0.08498 -0.9129,-0.15629 -1.35827,-0.25286c-0.67698,-0.14684 -1.35012,-0.30217 -2.01329,-0.46948c-0.56903,-0.14359 -1.11238,-0.32315 -1.68444,-0.46115c-0.66869,-0.16112 -1.28955,-0.37502 -1.92992,-0.56728c-0.39023,-0.11714 -0.76365,-0.25951 -1.11689,-0.41287c-0.1648,-0.07153 -0.28235,-0.1898 -0.38539,-0.29893c-0.09696,-0.10154 0.05416,-0.25624 0.25675,-0.27223c0.12857,-0.01026 0.27185,-0.0074 0.39425,0.01626c0.20236,0.03906 0.39742,0.09408 0.58638,0.15215c0.59902,0.18318 1.22826,0.30272 1.90416,0.33338c0.2923,0.01309 0.58459,0.05558 0.87541,0.05092c0.39328,-0.00586 0.78942,-0.03192 1.17722,-0.07163c0.50728,-0.05238 1.02019,-0.10428 1.50912,-0.1959c0.93199,-0.17484 1.66303,-0.51489 2.16959,-1.01419c0.05787,-0.05704 0.13352,-0.10758 0.19103,-0.16441c0.05166,-0.05127 0.09007,-0.1073 0.11706,-0.14053c-0.17073,-0.23886 -0.32143,-0.46536 -0.49423,-0.6861c-0.14647,-0.18725 -0.32504,-0.36594 -0.47721,-0.55201c-0.20017,-0.24507 -0.41276,-0.48863 -0.4503,-0.76772c-0.00251,-0.01838 -0.02409,-0.0368 -0.0415,-0.05329c-0.29727,-0.28446 -0.33848,-0.61823 -0.5127,-0.92637c-0.08564,-0.15082 -0.18085,-0.30072 -0.2434,-0.45499c-0.06618,-0.16142 -0.09865,-0.32741 -0.14566,-0.49171c-0.01916,-0.06552 -0.04362,-0.1311 -0.05429,-0.19713c-0.02706,-0.16905 -0.0482,-0.33553 -0.4051,-0.38843c-0.03724,-0.00547 -0.08144,-0.08153 -0.06269,-0.11174c0.03486,-0.05545 0.11421,-0.10116 0.2005,-0.17222c-0.02236,-0.56084 -0.31672,-1.14911 -0.06925,-1.7689c-0.39099,-0.0281 -0.74683,-0.06139 -1.10508,-0.07698c-0.34663,-0.01461 -0.69534,-0.01089 -1.07058,-0.01564c-0.06252,0.10723 -0.14432,0.23007 -0.20543,0.35671c-0.08668,0.17929 -0.12921,0.36811 -0.24669,0.53971c-0.07571,0.11061 -0.23774,0.20595 -0.3864,0.2929c-0.39689,0.23146 -0.84399,0.42579 -1.33086,0.58729c-0.27203,0.09019 -0.53366,0.19532 -0.82013,0.26489c-0.33244,0.08087 -0.68076,0.16134 -1.03347,0.18774c-1.06342,0.07891 -2.13024,0.10565 -3.19722,-0.00879c-0.37466,-0.0402 -0.76202,-0.04197 -1.14368,-0.05453c-0.48325,-0.01613 -0.96233,-0.04013 -1.43557,-0.10806c-0.71847,-0.10315 -1.44273,-0.19282 -2.16313,-0.29162c-0.13108,-0.01793 -0.25439,-0.05515 -0.38386,-0.07868c-0.28876,-0.05204 -0.58019,-0.09869 -0.86858,-0.15156c-0.32275,-0.05935 -0.64661,-0.11747 -0.96371,-0.18676c-0.3595,-0.07838 -0.70965,-0.17103 -1.06765,-0.25188c-0.14677,-0.03314 -0.30664,-0.04601 -0.45451,-0.07812c-0.6861,-0.14862 -1.35311,-0.32682 -2.07403,-0.42083c-0.2457,-0.0321 -0.46572,-0.12935 -0.70225,-0.18991c-0.68269,-0.17444 -1.37096,-0.34102 -2.05031,-0.51958c-0.66921,-0.17593 -1.32916,-0.36385 -1.99431,-0.54473c-0.26404,-0.07154 -0.52917,-0.14226 -0.79881,-0.20552c-0.38835,-0.09105 -0.78376,-0.17259 -1.17174,-0.26405c-0.13518,-0.03153 -0.26641,-0.07428 -0.38505,-0.12354c-0.18892,-0.07851 -0.1986,-0.21064 -0.0355,-0.30597c0.03211,-0.01878 0.06709,-0.03857 0.10703,-0.04911c0.30632,-0.0812 0.60866,-0.16955 0.92264,-0.23815c0.75256,-0.16439 1.51081,-0.32016 2.26771,-0.47762c0.14838,-0.03065 0.29888,-0.06128 0.45277,-0.07831c0.52196,-0.05783 1.01796,-0.15957 1.50926,-0.27743c0.79448,-0.19077 1.6139,-0.33867 2.44655,-0.46201c0.71156,-0.10527 1.43558,-0.19369 2.12152,-0.34225c0.82334,-0.1783 1.68667,-0.25162 2.52251,-0.39494c0.52667,-0.0903 1.08562,-0.11659 1.63001,-0.16976c0.62271,-0.06073 1.24454,-0.12605 1.86935,-0.17652c0.33188,-0.02666 0.67106,-0.0209 1.00549,-0.03982c0.20773,-0.01176 0.41164,-0.04442 0.6182,-0.06286c0.15626,-0.01408 0.3155,-0.0325 0.47144,-0.02823c0.49816,0.01402 0.99699,0.02889 1.49243,0.05936c0.73119,0.04471 1.45014,0.12493 2.1262,0.307c0.13395,0.0361 0.27605,0.06189 0.41036,0.09758c0.55508,0.14842 1.11013,0.29767 1.66226,0.4496c0.07937,0.02186 0.16017,0.05333 0.2149,0.09239c0.53523,0.38382 1.02539,0.78334 1.19897,1.28416c0.04028,0.11625 0.06069,0.23496 0.09471,0.36781c0.61341,-0.02831 1.2063,-0.05542 1.84341,-0.08468c0.0041,-0.11298 0.00354,-0.21413 0.01391,-0.31493c0.00484,-0.04561 0.03048,-0.09054 0.05013,-0.13554c0.0162,-0.03754 0.06212,-0.07679 0.05313,-0.11131c-0.05254,-0.2065 0.04538,-0.40337 0.09817,-0.6027c0.05308,-0.19744 0.12236,-0.39343 0.18248,-0.59015c0.04802,-0.15538 0.07181,-0.3144 0.14371,-0.46594c0.19658,-0.41439 0.34783,-0.83519 0.61188,-1.24037c0.23375,-0.35844 0.37432,-0.73808 0.5608,-1.10776c0.03426,-0.06818 0.09273,-0.13188 0.13822,-0.19824c0.16854,-0.2454 0.33395,-0.49189 0.50494,-0.73664c0.06443,-0.09177 0.14007,-0.18091 0.21255,-0.27071c0.09136,-0.11354 0.18865,-0.22534 0.2744,-0.3402c0.02636,-0.03533 0.04392,-0.08119 0.02933,-0.11725c-0.19222,-0.47374 -0.53706,-0.89748 -1.26629,-1.16135c-0.27433,-0.0994 -0.60685,-0.14261 -0.91155,-0.213c-0.26407,-0.06111 -0.5336,-0.0981 -0.81896,-0.10776c-0.23598,-0.00778 -0.46968,-0.03952 -0.70497,-0.05668c-0.14582,-0.01061 -0.29474,-0.02354 -0.44008,-0.01829c-0.54102,0.0188 -1.08251,0.06971 -1.62148,0.06121c-0.57285,-0.00934 -1.11422,0.08724 -1.67495,0.11392c-0.8901,0.04232 -1.77352,0.12456 -2.64398,0.24846c-0.28365,0.04041 -0.5719,0.07159 -0.86029,0.09692c-0.06058,0.00528 -0.16123,-0.02394 -0.19154,-0.05498c-0.03882,-0.0397 -0.05245,-0.10201 -0.02966,-0.14615c0.06384,-0.12411 0.16488,-0.24191 0.22662,-0.36646c0.07852,-0.15875 0.3383,-0.20343 0.50968,-0.30323c0.06206,-0.03633 0.16463,-0.05026 0.22042,-0.08876c0.38033,-0.26191 0.90216,-0.42317 1.32656,-0.65366c0.24103,-0.13104 0.49424,-0.24754 0.82771,-0.29858c0.15626,-0.02388 0.30875,-0.08973 0.42743,-0.15829c0.34303,-0.19731 0.79135,-0.27943 1.19927,-0.40627c0.1686,-0.0525 0.32637,-0.11786 0.49666,-0.16826c0.73794,-0.2188 1.47115,-0.4437 2.22125,-0.64734c0.53289,-0.14486 1.08142,-0.27305 1.63707,-0.38342c0.60935,-0.12074 1.23528,-0.21166 1.85293,-0.3175c0.84721,-0.14505 1.69083,-0.29807 2.5413,-0.43579c0.60003,-0.0973 1.20547,-0.18806 1.81644,-0.25603c0.38651,-0.04286 0.79622,-0.01494 1.18073,-0.06116c0.55441,-0.0666 1.10336,-0.00208 1.65323,-0.02139c0.43,-0.0152 0.85623,-0.01418 1.28601,0.01545c0.66758,0.04578 1.31379,0.12591 1.91818,0.30708c0.23162,0.06946 0.49263,0.1078 0.71116,0.18794c0.5559,0.2037 1.08986,0.42797 1.64355,0.63393c0.3617,0.1345 0.53594,0.34483 0.75926,0.54578c0.23427,0.21046 0.39609,0.43211 0.5353,0.66389c0.12688,0.2114 0.23311,0.42712 0.34789,0.64108c0.00695,0.01281 0.01317,0.02644 0.01199,0.03936c-0.02061,0.21746 -0.0201,0.43685 -0.071,0.65184c-0.05224,0.22289 -0.18654,0.43954 -0.22572,0.6626c-0.04246,0.24533 -0.05772,0.49038 -0.30708,0.73414zM256.23622,163.73437c-0.19499,0.06927 -0.33928,0.11374 -0.47089,0.16859c-0.22195,0.09208 -0.37643,0.22254 -0.55485,0.34103c-0.29672,0.19623 -0.47364,0.42923 -0.61269,0.65999c-0.23902,0.39675 -0.48408,0.79425 -0.6043,1.21649c-0.15102,0.53112 -0.39177,1.05318 -0.35506,1.59835c0.0014,0.01983 -0.00604,0.03975 -0.00959,0.05994c-0.06862,0.41142 -0.16124,0.82211 -0.19988,1.23454c-0.05155,0.55386 -0.0597,1.10889 -0.09114,1.66343c-0.00657,0.11274 -0.03854,0.22494 -0.05006,0.33783c-0.01782,0.17953 -0.0523,0.36053 -0.03654,0.53924c0.0367,0.41901 0.09602,0.83726 0.15252,1.25548c0.03346,0.24567 0.07682,0.49084 0.11842,0.73598c0.0299,0.17826 0.06192,0.35656 0.09854,0.53449c0.0213,0.10392 0.0518,0.20732 0.08195,0.31072c0.03082,0.10425 0.06306,0.2085 0.09885,0.31219c0.04884,0.14305 0.09484,0.28628 0.15469,0.4278c0.03512,0.08324 0.1082,0.16153 0.14013,0.24514c0.14443,0.37971 0.36339,0.73929 0.76373,1.05467c0.07381,0.05828 0.14521,0.12488 0.17413,0.19385c0.04813,0.11405 0.177,0.18284 0.32195,0.24682c0.29511,0.13012 0.61014,0.24651 0.8832,0.39073c0.12197,0.06452 0.20909,0.07731 0.35215,0.05701c0.60241,-0.08517 1.20643,-0.16594 1.81048,-0.24755c0.0653,-0.00877 0.14082,-0.02658 0.19727,-0.01544c0.1606,0.03164 0.28363,-0.0108 0.41844,-0.04704c0.10165,-0.02749 0.21311,-0.04318 0.32247,-0.05932c0.30643,-0.04533 0.61516,-0.08605 0.92128,-0.13264c0.31713,-0.04833 0.65465,-0.07471 0.94272,-0.15907c0.30091,-0.08795 0.61383,-0.12715 0.92855,-0.17738c0.12929,-0.02047 0.25335,-0.05226 0.37904,-0.08028c0.33715,-0.07456 0.66406,-0.17803 1.01268,-0.21824c0.63589,-0.07349 1.18089,-0.25031 1.69711,-0.46149c0.36602,-0.14968 0.68369,-0.3394 1.14689,-0.39359c0.10214,-0.01185 0.1973,-0.06486 0.28082,-0.10843c0.64154,-0.33597 1.30967,-0.65533 1.86728,-1.04325c0.39927,-0.27773 0.79508,-0.55716 1.15785,-0.812c-0.10015,-0.13056 -0.18447,-0.23006 -0.25419,-0.33313c-0.24501,-0.36221 -0.52307,-0.71859 -0.71545,-1.09056c-0.15612,-0.30082 -0.2173,-0.61941 -0.30024,-0.93202c-0.0537,-0.20359 -0.07269,-0.41008 -0.10408,-0.61547c-0.01911,-0.12537 -0.08175,-0.25775 -0.03756,-0.37585c0.08679,-0.23101 0.03388,-0.46608 0.18653,-0.70167c0.20277,-0.31274 0.22124,-0.66557 0.38452,-0.98967c0.11795,-0.23312 0.32757,-0.45256 0.52788,-0.66816c0.0985,-0.10594 0.26891,-0.18887 0.40397,-0.28059c-0.24521,-0.19142 -0.45097,-0.37984 -0.70392,-0.54278c-0.32784,-0.21103 -0.68374,-0.40801 -1.04622,-0.59863c-0.29526,-0.15514 -0.6162,-0.29351 -0.92886,-0.43657c-0.48704,-0.22284 -1.03237,-0.38699 -1.60481,-0.51436c-0.3668,-0.08159 -0.66303,-0.23904 -1.07183,-0.28259c-0.44819,-0.0478 -0.87484,-0.16373 -1.31526,-0.24084c-0.44321,-0.07797 -0.89057,-0.14871 -1.33879,-0.21548c-0.21602,-0.03235 -0.43871,-0.06582 -0.65901,-0.06778c-0.22489,-0.00201 -0.42259,-0.03309 -0.61681,-0.09206c-0.0999,-0.03046 -0.20101,-0.06636 -0.30856,-0.08065c-0.5293,-0.07072 -1.0652,-0.12485 -1.56495,-0.26027c-0.10946,-0.02975 -0.24192,-0.02913 -0.36355,-0.04464c-0.09949,-0.01252 -0.20119,-0.02257 -0.29652,-0.04275c-0.57757,-0.12222 -1.17287,-0.19399 -1.71043,-0.22207zM255.10168,163.63221c-0.1517,-0.01423 -0.27163,-0.02784 -0.39281,-0.03626c-0.3146,-0.02129 -0.62971,-0.03842 -0.94426,-0.06118c-0.4477,-0.03237 -0.88818,-0.10759 -1.34877,-0.05733c-0.15353,0.01682 -0.32127,0.01658 -0.47501,0.00003c-0.63885,-0.06857 -1.28179,-0.05398 -1.92354,-0.04292c-0.90466,0.01545 -1.80853,0.03841 -2.71222,0.06596c-0.39456,0.01189 -0.78684,0.05802 -1.18115,0.06304c-0.97164,0.01209 -1.94438,-0.00377 -2.91485,0.04421c-0.13373,0.00644 -0.17996,0.03463 -0.21337,0.11825c-0.05169,0.12989 -0.1263,0.26867 -0.2604,0.3727c-0.46839,0.36235 -0.70253,0.79002 -0.99359,1.19988c-0.20808,0.29349 -0.34864,0.60473 -0.49858,0.91148c-0.18695,0.3826 -0.36758,0.76653 -0.52292,1.15391c-0.12773,0.31766 -0.23053,0.63939 -0.31217,0.96201c-0.04941,0.19353 -0.03686,0.39263 -0.05353,0.58908c-0.02436,0.29144 -0.05084,0.58306 -0.07239,0.87475c-0.00276,0.03708 0.02058,0.07513 0.03794,0.13207c0.88464,-0.00882 1.75657,-0.01758 2.62848,-0.02593c0.34763,-0.00331 0.69468,-0.00997 1.04212,-0.00787c0.46324,0.00295 0.92673,0.00882 1.3893,0.02072c0.68556,0.01765 1.37153,0.03343 2.05478,0.06606c0.33527,0.01613 0.67142,0.05688 0.99728,0.10856c0.22227,0.03535 0.46278,0.06446 0.63324,0.17465c0.1884,0.12188 0.3912,0.23623 0.56703,0.36399c0.11906,0.08638 0.26347,0.18435 0.28802,0.28643c0.04202,0.17529 0.05486,0.36627 -0.02049,0.53486c-0.1249,0.2787 -0.37815,0.52261 -0.80661,0.69007c-0.1845,0.07211 -0.34402,0.16623 -0.51895,0.24722c-0.0607,0.02801 -0.12998,0.05883 -0.2027,0.06771c-0.31925,0.03871 -0.64067,0.09803 -0.96134,0.09793c-0.77343,0.00001 -1.55053,0.00393 -2.31491,-0.08958c-0.03129,-0.00394 -0.06576,0.00188 -0.09859,0.00146c-0.35129,-0.00299 -0.70321,0.00173 -1.05342,-0.01146c-0.87854,-0.03281 -1.7568,-0.07334 -2.63515,-0.11137c-0.24682,-0.01084 -0.49388,-0.02481 -0.74113,-0.03358c-0.17566,-0.00598 -0.35192,-0.00508 -0.56407,-0.00777c0.0091,0.12857 0.01354,0.23979 0.02541,0.35067c0.01597,0.15348 0.05561,0.30663 0.05218,0.45945c-0.00585,0.2777 -0.01203,0.55478 0.09818,0.82644c0.05477,0.13521 0.15992,0.26416 0.20053,0.40044c0.07841,0.2623 0.22836,0.50944 0.39426,0.75491c0.12938,0.1912 0.247,0.38517 0.36925,0.57796c0.11792,0.18585 0.20082,0.38271 0.3602,0.55511c0.25351,0.2739 0.44959,0.56354 0.71019,0.8369c0.33102,0.34724 0.73618,0.63661 1.29675,0.84788c0.16305,0.0615 0.38854,0.11503 0.56987,0.10106c0.67147,-0.05156 1.35373,0.04717 2.01738,-0.06141c0.02167,-0.00348 0.04618,-0.00734 0.06727,-0.00457c0.56347,0.07303 1.11931,-0.05235 1.68735,-0.01763c0.37212,0.02265 0.75693,-0.02211 1.13489,-0.0436c0.27001,-0.01514 0.53828,-0.04052 0.80682,-0.06381c0.52362,-0.0453 1.04573,-0.09749 1.57091,-0.13714c0.28791,-0.02159 0.58101,-0.021 0.87078,-0.03568c0.46208,-0.02334 0.92484,-0.04605 1.3848,-0.07901c0.39126,-0.028 0.77952,-0.07042 1.16926,-0.10531c0.22039,-0.01994 0.44141,-0.03758 0.69965,-0.05933c-0.08208,-0.05443 -0.1247,-0.09626 -0.18736,-0.12124c-0.50297,-0.2024 -0.74135,-0.53303 -1.08418,-0.80786c-0.28551,-0.22905 -0.55681,-0.48962 -0.58374,-0.79839c-0.00318,-0.03883 -0.02421,-0.08226 -0.06049,-0.11401c-0.22864,-0.20018 -0.24154,-0.43808 -0.3235,-0.66121c-0.10668,-0.29101 -0.1424,-0.59093 -0.24199,-0.8829c-0.06033,-0.17677 -0.10214,-0.34789 -0.07118,-0.52934c0.01972,-0.11508 -0.02363,-0.23429 -0.04552,-0.35113c-0.02844,-0.15051 -0.07633,-0.30023 -0.09239,-0.451c-0.02079,-0.19567 -0.00303,-0.39293 -0.02984,-0.58826c-0.04655,-0.34218 -0.08798,-0.68909 -0.01888,-1.02626c0.08544,-0.41746 0.03767,-0.83285 0.07007,-1.24849c0.02206,-0.28647 0.01836,-0.57347 0.04887,-0.85941c0.03903,-0.36487 0.10064,-0.72904 0.15344,-1.09373c0.02401,-0.16507 0.04767,-0.33035 0.07732,-0.49514c0.04251,-0.23699 0.08432,-0.4742 0.13775,-0.71022c0.0249,-0.11188 0.07235,-0.22222 0.11555,-0.33241c0.15456,-0.39531 0.29649,-0.79266 0.47282,-1.18458c0.10105,-0.22478 0.25828,-0.44092 0.39057,-0.66051c0.01915,-0.03125 0.04006,-0.06247 0.06584,-0.09176c0.10385,-0.11734 0.20841,-0.23447 0.31541,-0.35094c0.0364,-0.03958 0.06794,-0.10091 0.12303,-0.11064c0.23211,-0.04127 0.2767,-0.16041 0.38121,-0.29568zM227.77363,162.27802c0.00786,0.01699 0.01572,0.03398 0.02358,0.05076c0.09623,-0.00462 0.19404,-0.00422 0.28803,-0.01533c0.34332,-0.04007 0.68237,-0.09875 1.02832,-0.12399c0.93024,-0.0683 1.86091,-0.13868 2.79539,-0.17773c0.76329,-0.03204 1.5228,-0.11564 2.29825,-0.05452c0.57049,0.04497 1.16027,0.02575 1.70286,0.15816c0.58914,0.14406 1.22959,0.23684 1.66103,0.55156c0.17512,0.12776 0.43802,0.21117 0.55696,0.36887c0.06873,0.09117 0.12963,0.18432 0.1923,0.27708c0.04693,0.06921 0.09877,0.11011 0.25303,0.13146c0.45084,0.06243 0.87636,-0.02394 1.31211,-0.04177c0.39154,-0.0161 0.78149,-0.04703 1.17358,-0.05896c0.48365,-0.01431 0.96922,0.02541 1.45338,-0.03227c0.27561,-0.033 0.56223,-0.03876 0.84464,-0.04519c0.28064,-0.00625 0.56271,0.00629 0.84395,0.00297c0.41479,-0.00476 0.82951,-0.01744 1.24439,-0.0247c0.16964,-0.00327 0.34027,0.00494 0.509,-0.00252c0.67599,-0.03002 1.35116,-0.06693 2.02743,-0.09507c0.21257,-0.00877 0.42808,0.00834 0.64158,0.00312c0.56486,-0.01391 1.129,-0.03721 1.69416,-0.04945c0.37112,-0.00823 0.37994,-0.00791 0.43644,-0.23137c0.05642,-0.22118 0.1153,-0.44232 0.17348,-0.66326c0.07324,-0.27602 0.15917,-0.55125 0.21655,-0.82829c0.03517,-0.17098 0.03749,-0.34195 -0.03989,-0.51581c-0.1293,-0.29046 -0.28552,-0.56918 -0.52403,-0.83809c-0.24595,-0.27776 -0.56565,-0.51851 -0.95687,-0.71553c-0.3305,-0.16685 -0.72188,-0.3011 -1.11619,-0.41266c-0.52786,-0.14912 -1.07432,-0.28221 -1.63285,-0.38416c-0.44836,-0.082 -0.92384,-0.13724 -1.39197,-0.1513c-0.85691,-0.02545 -1.71505,0.01227 -2.57318,0.03978c-1.06038,0.03412 -2.07017,0.19234 -3.07867,0.3637c-0.56502,0.09607 -1.12442,0.20285 -1.68944,0.29893c-0.40084,0.06812 -0.80597,0.12785 -1.21043,0.18862c-0.42826,0.06443 -0.82557,0.1814 -1.24029,0.26186c-1.03679,0.20146 -2.01968,0.46491 -2.97043,0.77715c-0.87892,0.28875 -1.7538,0.58319 -2.65002,0.85232c-0.557,0.16708 -0.96212,0.44035 -1.45295,0.65248c-0.31321,0.13492 -0.56433,0.32026 -0.84324,0.48315zM217.41963,170.77488c0.16959,-0.19638 0.48989,-0.23487 0.76738,-0.30017c0.26075,-0.06155 0.54426,-0.08841 0.81442,-0.13671c0.68854,-0.12287 1.37344,-0.25246 2.06332,-0.37323c0.62626,-0.10968 1.26176,-0.20153 1.88404,-0.31835c1.03335,-0.1942 2.08639,-0.28889 3.1705,-0.26682c0.79579,0.01633 1.57685,0.07836 2.3063,0.278c0.25038,0.06844 0.4942,0.15224 0.71455,0.24992c0.29369,0.1303 0.45867,0.32321 0.61572,0.52081c0.90049,-0.07577 1.8003,-0.15196 2.7132,-0.22902c0.00114,-0.03127 0.01817,-0.07255 0.00147,-0.10842c-0.07038,-0.15271 -0.1734,-0.30145 -0.22182,-0.45597c-0.05794,-0.18404 -0.19834,-0.33451 -0.39337,-0.47795c-0.14723,-0.10801 -0.2234,-0.23744 -0.43329,-0.33185c-0.147,-0.06588 -0.28449,-0.14061 -0.45245,-0.19321c-0.09988,-0.03108 -0.18799,-0.07474 -0.2864,-0.10748c-0.51922,-0.17299 -1.04949,-0.33361 -1.62107,-0.43615c-0.39895,-0.07158 -0.80693,-0.12784 -1.21465,-0.18138c-0.15851,-0.02099 -0.29454,-0.06796 -0.48384,-0.05826c-0.3333,0.01705 -0.67442,-0.02293 -1.01233,-0.0343c-0.1672,-0.00546 -0.33658,-0.00926 -0.50225,0.00136c-0.41132,0.02586 -0.82124,0.06217 -1.23264,0.09033c-0.17702,0.01215 -0.35732,0.00757 -0.53303,0.02244c-0.58806,0.04969 -1.17551,0.1021 -1.76168,0.15829c-0.39905,0.03832 -0.79559,0.08523 -1.19338,0.12753c-0.06523,0.00689 -0.14427,0.02445 -0.19531,0.01004c-0.18318,-0.05175 -0.35789,-0.01558 -0.52801,0.01062c-0.18433,0.02853 -0.35757,0.08243 -0.54132,0.11451c-0.43254,0.07544 -0.86972,0.14247 -1.30293,0.21707c-0.26085,0.04487 -0.51575,0.10087 -0.77626,0.14616c-0.34581,0.06006 -0.69428,0.11571 -1.04274,0.17073c-0.35804,0.05657 -0.71703,0.11 -1.07537,0.16489c-0.30293,0.04621 -0.60781,0.08803 -0.90741,0.13991c-0.40125,0.06958 -0.79886,0.14608 -1.19646,0.22217c-0.18244,0.03481 -0.36426,0.07213 -0.5417,0.11513c-0.48814,0.11852 -0.97127,0.24504 -1.46209,0.35957c-0.38789,0.09081 -0.78419,0.16983 -1.17779,0.25244c-0.26478,0.05567 -0.53458,0.10396 -0.79635,0.16446c-0.17203,0.03995 -0.33334,0.09588 -0.54752,0.15886c0.3024,0.07515 0.5339,0.13835 0.77216,0.19058c0.39206,0.08609 0.76728,0.18865 1.12744,0.31687c0.32739,0.11634 0.68069,0.21007 1.0316,0.30127c0.57798,0.14996 1.16227,0.29146 1.74621,0.43294c0.48978,0.1184 0.98177,0.23391 1.47492,0.34692c0.41085,0.09404 0.8243,0.18436 1.23853,0.27261c0.41248,0.08801 0.82608,0.17417 1.24195,0.25639c0.32154,0.06371 0.65653,0.10696 0.96804,0.1841c0.238,0.05911 0.46642,0.11977 0.72059,0.16157c0.61754,0.10104 1.22165,0.23173 1.85769,0.29046c0.45933,0.04252 0.86666,0.19449 1.33561,0.21545c0.12306,0.00531 0.24857,0.01128 0.36655,0.03009c0.67272,0.10841 1.36156,0.15238 2.05403,0.18388c0.41181,0.01877 0.82238,0.05233 1.23486,0.06256c0.63406,0.01575 1.26934,0.02733 1.90383,0.0214c0.40698,-0.00381 0.79645,-0.06978 1.1613,-0.18758c0.38594,-0.12441 0.78854,-0.2313 1.17856,-0.35148c0.11358,-0.03506 0.20173,-0.09922 0.31563,-0.13343c0.23637,-0.07083 0.4297,-0.17224 0.58485,-0.29206c0.37022,-0.28477 0.55498,-0.61693 0.67757,-0.97803c-0.99044,-0.07302 -1.958,-0.14429 -2.9273,-0.21579c-0.16661,0.23104 -0.18185,0.22292 -0.48492,0.41887c-0.16744,0.1082 -0.39361,0.12181 -0.58629,0.18569c-0.47399,0.15687 -0.99705,0.20613 -1.5294,0.20982c-0.40588,0.00257 -0.81303,-0.01822 -1.21859,-0.03399c-0.23945,-0.0095 -0.4937,0.00918 -0.68968,-0.10842c-0.03387,-0.02045 -0.10646,-0.02491 -0.16153,-0.02561c-0.58561,-0.00784 -1.14021,-0.1112 -1.68259,-0.22047c-0.50802,-0.10216 -1.05951,-0.11623 -1.53449,-0.29179c-0.25058,-0.09222 -0.56077,-0.12785 -0.84279,-0.19065c-0.41022,-0.09174 -0.81591,-0.19156 -1.23066,-0.27543c-0.31904,-0.06452 -0.645,-0.12308 -0.97602,-0.15897c-0.23358,-0.02527 -0.44183,-0.03833 -0.53539,-0.19467c-0.02492,-0.04328 -0.13026,-0.06964 -0.2097,-0.10901zM231.00776,180.37722c-0.00711,0.01097 -0.0142,0.02151 -0.02166,0.03226c0.15247,0.05136 0.29975,0.10932 0.45818,0.1522c0.31756,0.08556 0.64476,0.15873 0.96158,0.24533c0.43851,0.11984 0.86329,0.25805 1.30813,0.36921c0.85186,0.21307 1.68573,0.4547 2.59064,0.58816c0.27365,0.04038 0.54666,0.08867 0.80712,0.15162c0.46107,0.11136 0.92704,0.20464 1.41981,0.2601c0.86523,0.09771 1.72411,0.21495 2.5873,0.32014c0.28797,0.03493 0.57974,0.082 0.87006,0.08151c0.52199,-0.00048 1.0178,0.09777 1.5431,0.10338c0.50872,0.00519 1.01717,0.01789 1.52595,0.00201c0.19058,-0.00614 0.38312,-0.00808 0.56963,-0.02844c0.25423,-0.02785 0.50505,-0.06889 0.75447,-0.10994c0.17374,-0.02866 0.34558,-0.0634 0.51368,-0.10214c0.28349,-0.06544 0.56263,-0.13718 0.84511,-0.20389c0.12574,-0.02948 0.23586,-0.05686 0.28645,-0.14673c0.03171,-0.05632 0.12225,-0.10856 0.20731,-0.14586c0.14283,-0.06263 0.31833,-0.10086 0.45182,-0.16862c0.43461,-0.21993 0.90015,-0.42612 1.2717,-0.67959c0.41644,-0.28376 0.62425,-0.64754 0.7618,-1.012c0.11133,-0.29409 0.18256,-0.59245 0.15989,-0.90179c-0.01994,-0.26781 -0.03261,-0.52177 -0.26471,-0.76286c-0.18923,-0.19634 -0.47051,-0.30855 -0.84665,-0.2885c-0.46993,0.02554 -0.9387,0.05797 -1.40895,0.08288c-0.24662,0.01293 -0.49472,0.01771 -0.74248,0.02292c-0.35944,0.00754 -0.71956,0.00465 -1.07784,0.01909c-0.77666,0.03062 -1.55154,0.08024 -2.32894,0.1021c-0.73356,0.02053 -1.46937,0.01538 -2.20418,0.02193c-0.32749,0.00294 -0.6554,0.00776 -0.98284,0.00945c-0.27057,0.00137 -0.54108,0.00086 -0.81152,-0.00131c-0.13521,-0.00129 -0.27044,-0.01198 -0.40538,-0.01118c-0.26987,0.00138 -0.54051,0.01443 -0.80981,0.00997c-0.36425,-0.00586 -0.41859,0.00262 -0.55954,0.20771c-0.24458,0.35518 -0.56411,0.68355 -1.05155,0.93847c-0.36144,0.18895 -0.74663,0.37071 -1.16525,0.51014c-0.30638,0.10227 -0.67905,0.14364 -1.03036,0.18966c-0.54078,0.07052 -1.08739,0.12637 -1.63424,0.17929c-0.50327,0.04889 -1.00766,0.08004 -1.52032,0.02788c-0.33885,-0.03432 -0.68461,-0.0437 -1.02748,-0.06452zM227.61334,170.95966c-0.00221,0.01228 -0.00442,0.02455 -0.00664,0.03704c0.07291,0.0151 0.14385,0.03581 0.21876,0.04448c0.36471,0.04195 0.73025,0.08036 1.09538,0.12044c0.52237,0.05729 1.04354,0.11832 1.56714,0.17083c0.31072,0.03105 0.6241,0.05671 0.93826,0.07069c0.35647,0.01598 0.71636,0.00573 1.07162,0.02588c0.39262,0.02207 0.77987,0.07536 1.17283,0.09806c0.75384,0.04354 1.51118,0.06836 2.26459,0.11376c0.60682,0.03667 1.20879,0.09977 1.8152,0.13769c0.67337,0.0419 1.34949,0.06651 2.02413,0.10279c0.20233,0.01069 0.40103,0.04345 0.60375,0.05311c0.5972,0.02925 1.19577,0.04976 1.79337,0.07756c0.59726,0.02758 1.19387,0.0633 1.79121,0.08837c0.34558,0.01438 0.6927,0.01545 1.03927,0.02192c0.26821,0.00527 0.53652,0.00784 0.80504,0.01437c0.55081,0.01323 1.10106,0.03209 1.65244,0.03928c0.12919,0.00184 0.26775,-0.0208 0.38823,-0.05139c0.44947,-0.1138 0.84537,-0.25977 1.11408,-0.5208c0.33313,-0.32361 0.29043,-0.49953 -0.01597,-0.75637c-0.41025,-0.34387 -1.0057,-0.52804 -1.74946,-0.49888c-0.0679,0.00269 -0.13903,0.00658 -0.20368,-0.00258c-0.56673,-0.08038 -1.14547,-0.06351 -1.72026,-0.07767c-0.16865,-0.00443 -0.33786,-0.00324 -0.50658,-0.00579c-0.55276,-0.00804 -1.10526,-0.02338 -1.65796,-0.0235c-0.73563,-0.00014 -1.47096,0.01056 -2.20653,0.01856c-0.39641,0.00436 -0.79222,0.01186 -1.18876,0.01977c-0.38135,0.00789 -0.7629,0.02141 -1.14449,0.02617c-0.4936,0.00647 -0.98868,-0.00481 -1.48125,0.01211c-0.74364,0.02583 -1.48574,0.06752 -2.22807,0.10588c-0.77524,0.04002 -1.55203,0.0744 -2.32393,0.12948c-0.97585,0.0696 -1.94878,0.15633 -2.92225,0.23827c-0.24478,0.02047 -0.48585,0.05558 -0.73098,0.07604c-0.42189,0.0349 -0.84565,0.06332 -1.26846,0.09446zM228.88655,170.54014c0.10942,-0.18317 0.01966,-0.28837 -0.18176,-0.38248c-0.36116,-0.1687 -0.78043,-0.2545 -1.20658,-0.34519c-0.48994,-0.10422 -0.9853,-0.11737 -1.49128,-0.11043c-0.31623,0.00413 -0.63652,-0.0064 -0.9479,0.01969c-0.78145,0.06518 -1.54602,0.18104 -2.3023,0.31181c-0.33513,0.05769 -0.65678,0.14308 -0.982,0.21967c-0.21836,0.05146 -0.42741,0.11888 -0.6501,0.1634c-0.47918,0.09549 -0.96435,0.1809 -1.44722,0.27092c-0.05368,0.00975 -0.10674,0.03139 -0.15969,0.03092c-0.16627,-0.0019 -0.26641,0.0521 -0.37296,0.13667c0.6257,0.1489 1.23019,0.29815 1.84214,0.43645c0.32437,0.07335 0.66371,0.1231 0.99178,0.1917c0.80897,0.16895 1.6256,0.32131 2.47393,0.40775c0.1981,0.02024 0.39815,0.03507 0.59782,0.05095c0.13453,0.01046 0.26943,0.0203 0.4048,0.02702c0.1893,0.00949 0.37905,0.01648 0.56846,0.02305c0.07689,0.00264 0.15461,0.00196 0.23165,0.00064c0.17775,-0.00296 0.36102,0.00728 0.53238,-0.01432c0.28704,-0.03661 0.56221,-0.10612 0.84984,-0.13981c0.3802,-0.0444 0.65229,-0.18464 1.01629,-0.33706c-0.24212,-0.02371 -0.40647,-0.03935 -0.57044,-0.05623c-0.12174,-0.0126 -0.24499,-0.02229 -0.36438,-0.04132c-0.42277,-0.06708 -0.83967,-0.15015 -1.26758,-0.20207c-0.21801,-0.02632 -0.39112,-0.05375 -0.50242,-0.17862c-0.07364,-0.08247 -0.08895,-0.15691 0.0395,-0.20262c0.10983,-0.03885 0.23704,-0.06978 0.36253,-0.08279c0.34528,-0.03588 0.69275,-0.0638 1.04081,-0.08859c0.26733,-0.01893 0.53733,-0.02406 0.8043,-0.04299c0.23228,-0.01666 0.46248,-0.04399 0.69036,-0.06612zM270.07536,167.64107c-0.10434,0.07229 -0.18948,0.13149 -0.27392,0.19068c-0.28706,0.20261 -0.32769,0.46549 -0.46764,0.70145c-0.16254,0.27447 -0.24342,0.56644 -0.34142,0.8532c-0.05608,0.16341 -0.11342,0.33202 -0.1035,0.49648c0.02075,0.33289 0.08109,0.66502 0.13685,0.99669c0.02204,0.13208 0.09575,0.26147 0.11213,0.39369c0.032,0.2567 0.14401,0.49815 0.31485,0.73389c0.13215,0.18289 0.22471,0.37655 0.37115,0.55484c0.0876,0.10643 0.09255,0.25225 0.34904,0.31786c0.07293,-0.0729 0.15192,-0.1378 0.20678,-0.20926c0.17125,-0.22264 0.30827,-0.45572 0.50463,-0.66991c0.22653,-0.24738 0.30656,-0.506 0.34059,-0.78168c0.03102,-0.25132 0.12939,-0.49949 0.20165,-0.74861c0.00725,-0.02472 0.03227,-0.05215 0.06361,-0.06927c0.1308,-0.07154 0.09958,-0.15515 0.06564,-0.2417c-0.09185,-0.23264 -0.18334,-0.46529 -0.27023,-0.69849c-0.0743,-0.20051 -0.09733,-0.41227 -0.22257,-0.60071c-0.2414,-0.36425 -0.53729,-0.71605 -0.81537,-1.07201c-0.03645,-0.04655 -0.09966,-0.08572 -0.1723,-0.14712zM240.03346,167.55486c0.03018,-0.1018 0.08235,-0.18644 0.07404,-0.26892c-0.01055,-0.10816 0.04562,-0.19607 0.1353,-0.28315c0.02856,-0.02779 0.06594,-0.05547 0.07693,-0.08599c0.13252,-0.37182 0.33553,-0.73002 0.5768,-1.0817c0.0541,-0.0796 0.06792,-0.16847 0.10558,-0.25225c0.03805,-0.08502 0.08243,-0.16934 0.1156,-0.23648c-1.33253,-0.03773 -2.60636,0.07815 -3.90171,0.18374c-0.20287,0.38344 -0.40248,0.76463 -0.60665,1.14514c-0.06405,0.12014 -0.14949,0.23626 -0.20792,0.35731c-0.08703,0.17929 -0.26872,0.34903 -0.19648,0.53826c1.28148,-0.00546 2.54317,-0.01075 3.82852,-0.01596zM235.5984,169.97679c0.40383,0.00511 0.7817,0.03472 1.14921,0.00934c0.82493,-0.05671 1.65073,-0.03039 2.47573,-0.04038c0.2505,-0.00308 0.28773,-0.01679 0.30631,-0.16859c0.01798,-0.14492 0.0282,-0.29035 0.0497,-0.43481c0.01646,-0.11282 0.04772,-0.22483 0.06665,-0.33762c0.04583,-0.2701 0.00038,-0.54533 0.1442,-0.81002c0.03974,-0.07311 0.05352,-0.15114 0.07959,-0.22713c-0.47258,-0.11547 -0.95467,-0.04671 -1.42076,-0.07826c-0.2776,-0.01895 -0.56145,-0.02171 -0.84077,-0.01273c-0.40449,0.01302 -0.80721,0.04525 -1.21124,0.06495c-0.36795,0.01807 -0.40051,0.02976 -0.47192,0.23593c-0.20521,0.59383 -0.33468,1.19258 -0.32669,1.79933zM236.63334,175.9325c0.3004,0.0038 0.60416,0.01265 0.90796,0.01046c0.54402,-0.00416 1.08836,-0.02667 1.63161,-0.01917c0.40805,0.00579 0.80101,-0.0593 1.20606,-0.05855c0.13561,0.00005 0.19732,-0.06549 0.1613,-0.14331c-0.05043,-0.10887 -0.1108,-0.21641 -0.1751,-0.32275c-0.13596,-0.22382 -0.27974,-0.44628 -0.41428,-0.67028c-0.02565,-0.04245 -0.0338,-0.09031 -0.03427,-0.13578c-0.00134,-0.19646 -0.06555,-0.38308 -0.19775,-0.56453c-0.11943,-0.16376 -0.19678,-0.19268 -0.47928,-0.16435c-0.24459,0.02485 -0.49205,0.04152 -0.73908,0.05591c-0.40276,0.02368 -0.80694,0.03795 -1.20911,0.06477c-0.3565,0.02384 -0.70996,0.06108 -1.06588,0.08848c-0.12927,0.01004 -0.26095,0.00858 -0.44302,0.01399c0.02995,0.10882 0.04805,0.20352 0.08389,0.29615c0.03969,0.10311 0.09855,0.20374 0.14249,0.30649c0.03027,0.07087 0.03886,0.14543 0.07554,0.21492c0.17601,0.33652 0.35807,0.67187 0.54893,1.02756zM242.45978,178.01475c-0.0744,-0.07143 -0.10859,-0.1217 -0.16768,-0.1577c-0.20626,-0.12607 -0.36822,-0.26597 -0.48166,-0.42923c-0.10638,-0.15338 -0.23485,-0.30161 -0.36119,-0.45002c-0.1409,-0.1657 -0.2925,-0.3284 -0.43446,-0.49391c-0.09419,-0.10984 -0.18016,-0.22229 -0.23661,-0.29204c-0.28981,-0.00367 -0.5005,-0.0176 -0.7068,-0.00645c-0.47133,0.0251 -0.94006,0.06629 -1.41111,0.0937c-0.40311,0.02347 -0.80813,0.05108 -1.21174,0.04972c-0.22,-0.0007 -0.38773,0.02804 -0.56199,0.11968c0.17732,0.24227 0.34449,0.48192 0.52806,0.71719c0.13666,0.17545 0.28543,0.34813 0.44744,0.51576c0.12149,0.12625 0.24377,0.26981 0.5081,0.30423c0.31635,0.04113 0.64363,0.08281 0.96349,0.07601c0.39161,-0.00839 0.77487,-0.03982 1.17406,-0.0137c0.48165,0.03092 0.97281,0.01399 1.45995,0.01056c0.15086,-0.00164 0.30185,-0.02641 0.49214,-0.04381zM235.37819,171.98497c0.03131,0.56721 0.12472,1.10706 0.30383,1.66947c0.54297,-0.00439 1.09417,-0.00178 1.64383,-0.01547c0.55214,-0.01365 1.10231,-0.05111 1.65409,-0.06455c0.58924,-0.01423 0.59552,-0.01206 0.41614,-0.27542c0.03403,-0.1591 0.08171,-0.26611 0.07388,-0.37131c-0.01455,-0.19267 -0.07011,-0.38398 -0.09312,-0.57675c-0.01214,-0.10338 -0.09948,-0.13932 -0.2593,-0.14363c-0.2258,-0.00619 -0.45351,-0.00846 -0.67712,-0.0263c-0.82686,-0.06532 -1.65163,-0.13937 -2.47891,-0.20261c-0.18172,-0.01398 -0.37023,0.00324 -0.58331,0.00658zM242.57995,163.66048c-0.19134,0.00759 -0.31437,0.01124 -0.43714,0.0174c-0.20131,0.00996 -0.4027,0.03181 -0.60361,0.03073c-0.57484,-0.00311 -1.15483,-0.05884 -1.71051,0.08157c-0.0392,0.00972 -0.08949,0.00387 -0.13477,0.0058c-0.39331,0.01629 -0.78657,0.03112 -1.17928,0.05034c-0.07253,0.00367 -0.1422,0.02573 -0.22044,0.04058c0.02303,0.05639 0.07757,0.11046 0.05207,0.14164c-0.08754,0.10566 -0.20164,0.20369 -0.30909,0.30347c-0.04678,0.04341 -0.11979,0.0796 -0.15008,0.12594c-0.10778,0.16713 -0.20329,0.33672 -0.30092,0.50628c-0.02299,0.03996 -0.03442,0.08236 -0.04721,0.11368c0.37115,0.00074 0.71794,0.00117 1.06438,0.00159c0.36868,0.00071 0.74155,0.02211 1.10551,-0.00289c0.44008,-0.0303 0.87719,-0.04666 1.31977,-0.03897c0.29895,0.00504 0.3625,-0.02377 0.44739,-0.18285c0.22849,-0.42774 0.5687,-0.81967 1.10393,-1.19431z" fill="#32419a" stroke-width="1"/><path d="M241.98216,178.06451c-0.48714,0.00342 -0.98455,0.02363 -1.4662,-0.00729c-0.39919,-0.02612 -0.79442,0.00629 -1.18603,0.01467c-0.31986,0.00679 -0.65517,-0.0373 -0.97153,-0.07843c-0.26433,-0.03442 -0.3905,-0.18093 -0.51199,-0.30718c-0.16202,-0.16764 -0.31279,-0.3448 -0.44944,-0.52024c-0.18358,-0.23527 -0.34945,-0.4792 -0.52677,-0.72148c0.17426,-0.09164 0.34322,-0.12181 0.56321,-0.12111c0.40362,0.00136 0.81351,-0.02937 1.21662,-0.05283c0.47106,-0.0274 0.9543,-0.07023 1.42563,-0.09533c0.2063,-0.01115 0.42284,0.00435 0.71266,0.00802c0.05645,0.06974 0.14604,0.18419 0.24023,0.29403c0.14196,0.1655 0.29731,0.33334 0.43821,0.49904c0.12634,0.14842 0.25446,0.30053 0.36085,0.4539c0.11344,0.16327 0.27419,0.30518 0.48045,0.43125c0.05908,0.03599 0.09285,0.08676 0.16725,0.15819c-0.19028,0.0174 -0.34228,0.04314 -0.49314,0.04478z" data-paper-data="{&quot;noHover&quot;:false,&quot;origItem&quot;:[&quot;Path&quot;,{&quot;applyMatrix&quot;:true,&quot;selected&quot;:true,&quot;segments&quot;:[[[187.904,151.31666],[-0.19028,0.02947],[-0.0744,-0.12096],7],[[187.73633,151.0496],[0.05908,0.06095],[-0.20626,-0.2135],7],[[187.25466,150.3227],[0.11344,0.27649],[-0.10638,-0.25974],7],[[186.89348,149.5606],[0.12634,0.25134],[-0.1409,-0.28061],7],[[186.45901,148.72417],[0.14196,0.28028],[-0.09419,-0.18602],7],[[186.22241,148.22961],[0.05645,0.11811],[-0.28981,-0.00622],7],[[185.51561,148.21869],[0.2063,-0.01888],[-0.47133,0.04251],7],[[184.10449,148.37737],[0.47106,-0.0464],[-0.40311,0.03974],7],[[182.89275,148.46157],[0.40362,0.0023],[-0.22,-0.00119],7],[[182.33076,148.66424],[0.17426,-0.15519],[0.17732,0.41029],7],[[182.85882,149.87879],[-0.18358,-0.39842],[0.13666,0.29712],7],[[183.30626,150.75223],[-0.16202,-0.28389],[0.12149,0.2138],7],[[183.81437,151.26744],[-0.26433,-0.05829],[0.31635,0.06965],7],[[184.77786,151.39617],[-0.31986,0.0115],[0.39161,-0.0142],7],[[185.95192,151.37297],[-0.39919,-0.04423],[0.48165,0.05236],7],[[187.41187,151.39086],[-0.48714,0.0058],[0.15086,-0.00277],7]],&quot;closed&quot;:true,&quot;fillColor&quot;:[0,0,0,1]}]}" fill="#8c0000" stroke-width="0.5"/><path d="M235.94892,171.97107c0.82728,0.06324 1.6765,0.13688 2.50336,0.2022c0.22361,0.01784 0.45438,0.02226 0.68018,0.02845c0.15983,0.00432 0.2485,0.04177 0.26064,0.14514c0.02302,0.19277 0.07992,0.38894 0.09446,0.58161c0.00783,0.1052 -0.04106,0.21528 -0.07509,0.37439c0.17938,0.26337 0.17043,0.26389 -0.41881,0.27811c-0.55178,0.01345 -1.11708,0.05473 -1.66922,0.06838c-0.54967,0.01368 -1.11329,0.00716 -1.65626,0.01154c-0.17911,-0.56241 -0.27314,-1.1147 -0.30445,-1.68192c0.21308,-0.00335 0.40347,-0.0219 0.5852,-0.00792z" data-paper-data="{&quot;noHover&quot;:false,&quot;origItem&quot;:[&quot;Path&quot;,{&quot;applyMatrix&quot;:true,&quot;selected&quot;:true,&quot;segments&quot;:[[[180.82241,141.10527],[0.21308,-0.00567],[0.03131,0.96057],7],[[181.12624,143.9325],[-0.17911,-0.95244],[0.54297,-0.00743],7],[[182.77007,143.90631],[-0.54967,0.02317],[0.55214,-0.02312],7],[[184.42416,143.79699],[-0.55178,0.02278],[0.58924,-0.02409],7],[[184.8403,143.33055],[0.17938,0.44601],[0.03403,-0.26944],7],[[184.91418,142.70174],[0.00783,0.17816],[-0.01455,-0.32628],7],[[184.82106,141.72501],[0.02302,0.32646],[-0.01214,-0.17508],7],[[184.56176,141.48177],[0.15983,0.00731],[-0.2258,-0.01049],7],[[183.88464,141.43723],[0.22361,0.03022],[-0.82686,-0.11062],7],[[181.40572,141.09412],[0.82728,0.10709],[-0.18172,-0.02367],7]],&quot;closed&quot;:true,&quot;fillColor&quot;:[0,0,0,1]}]}" fill="#8c0000" stroke-width="0.5"/><path d="M235.91074,168.17139c0.07141,-0.20618 0.1074,-0.21998 0.47534,-0.23805c0.40403,-0.0197 0.81647,-0.05414 1.22096,-0.06716c0.27933,-0.00898 0.57097,-0.00549 0.84858,0.01346c0.46609,0.03156 0.95557,-0.0339 1.42815,0.08157c-0.02607,0.076 -0.03879,0.15493 -0.07852,0.22805c-0.14382,0.2647 -0.09578,0.54596 -0.14162,0.81607c-0.01893,0.11279 -0.05125,0.22781 -0.06771,0.34063c-0.02149,0.14445 -0.03442,0.29274 -0.0524,0.43766c-0.01858,0.15179 -0.05804,0.16689 -0.30855,0.16997c-0.825,0.00999 -1.67102,-0.01505 -2.49595,0.04165c-0.36751,0.02537 -0.75043,-0.00671 -1.15426,-0.01183c-0.00798,-0.60675 0.12076,-1.21819 0.32598,-1.81201z" data-paper-data="{&quot;noHover&quot;:false,&quot;origItem&quot;:[&quot;Path&quot;,{&quot;applyMatrix&quot;:true,&quot;selected&quot;:true,&quot;segments&quot;:[[[181.04262,137.70443],[-0.00798,-1.02752],[0.40383,0.00866],7],[[182.19183,137.72025],[-0.36751,0.04297],[0.82493,-0.09603],7],[[184.66756,137.65186],[-0.825,0.01692],[0.2505,-0.00522],7],[[184.97387,137.36637],[-0.01858,0.25706],[0.01798,-0.24542],7],[[185.02357,136.63003],[-0.02149,0.24463],[0.01646,-0.19106],7],[[185.09022,136.05827],[-0.01893,0.19101],[0.04583,-0.45742],7],[[185.23442,134.6865],[-0.14382,0.44826],[0.03974,-0.12381],7],[[185.314,134.30184],[-0.02607,0.1287],[-0.47258,-0.19555],7],[[183.89324,134.16931],[0.46609,0.05344],[-0.2776,-0.03209],7],[[183.05247,134.14774],[0.27933,-0.0152],[-0.40449,0.02205],7],[[181.84123,134.25773],[0.40403,-0.03336],[-0.36795,0.0306],7],[[181.36931,134.65728],[0.07141,-0.34916],[-0.20521,1.00565],7]],&quot;closed&quot;:true,&quot;fillColor&quot;:[0,0,0,1]}]}" fill="#8c0000" stroke-width="0.5"/><path d="M241.49129,164.86002c-0.08489,0.15909 -0.15223,0.19058 -0.45118,0.18554c-0.44259,-0.00769 -0.89613,0.01076 -1.33621,0.04105c-0.36396,0.025 -0.74548,0.00023 -1.11416,-0.00047c-0.34644,-0.00043 -0.69556,-0.00301 -1.06671,-0.00375c0.01279,-0.03133 0.02381,-0.07427 0.04681,-0.11423c0.09763,-0.16956 0.19187,-0.34236 0.29966,-0.5095c0.03029,-0.04633 0.10326,-0.08357 0.15004,-0.12698c0.10745,-0.09978 0.22247,-0.20082 0.31001,-0.30648c0.0255,-0.03117 -0.02833,-0.0863 -0.05136,-0.14268c0.07824,-0.01486 0.14861,-0.03772 0.22114,-0.04139c0.39271,-0.01921 0.79506,-0.03862 1.18837,-0.05491c0.04528,-0.00193 0.09774,0.00353 0.13694,-0.00619c0.55568,-0.1404 1.1538,-0.08082 1.72864,-0.0777c0.20091,0.00109 0.40361,-0.01959 0.60492,-0.02955c0.12277,-0.00616 0.24635,-0.00919 0.43769,-0.01678c-0.53523,0.37465 -0.87611,0.77628 -1.1046,1.20403z" data-paper-data="{&quot;noHover&quot;:false,&quot;origItem&quot;:[&quot;Path&quot;,{&quot;applyMatrix&quot;:true,&quot;selected&quot;:true,&quot;segments&quot;:[[[188.02417,127.00781],[-0.53523,0.63446],[-0.19134,0.01285],7],[[187.58702,127.03728],[0.12277,-0.01043],[-0.20131,0.01687],7],[[186.98341,127.08932],[0.20091,0.00184],[-0.57484,-0.00527],7],[[185.2729,127.22745],[0.55568,-0.23777],[-0.0392,0.01646],7],[[185.13814,127.23727],[0.04528,-0.00327],[-0.39331,0.02759],7],[[183.95886,127.32252],[0.39271,-0.03254],[-0.07253,0.00621],7],[[183.73843,127.39125],[0.07824,-0.02516],[0.02303,0.09549],7],[[183.79049,127.63111],[0.0255,-0.05278],[-0.08754,0.17894],7],[[183.4814,128.14504],[0.10745,-0.16898],[-0.04678,0.07351],7],[[183.33132,128.35831],[0.03029,-0.07846],[-0.10778,0.28304],7],[[183.03041,129.2157],[0.09763,-0.28715],[-0.02299,0.06767],7],[[182.98319,129.40822],[0.01279,-0.05305],[0.37115,0.00125],7],[[184.04757,129.41091],[-0.34644,-0.00072],[0.36868,0.0012],7],[[185.15307,129.40602],[-0.36396,0.04234],[0.44008,-0.05131],7],[[186.47285,129.34003],[-0.44259,-0.01302],[0.29895,0.00853],7],[[186.92024,129.03036],[-0.08489,0.26941],[0.22849,-0.72438],7]],&quot;closed&quot;:true,&quot;fillColor&quot;:[0,0,0,1]}]}" fill="#8c0000" stroke-width="0.5"/><path d="M228.86417,170.86473c0.24513,-0.02046 0.48622,-0.05576 0.731,-0.07623c0.97347,-0.08193 1.9466,-0.1697 2.92245,-0.23929c0.7719,-0.05508 1.54937,-0.09107 2.3246,-0.13109c0.74233,-0.03835 1.48892,-0.08425 2.23256,-0.11007c0.49257,-0.01691 1.00204,-0.00849 1.49565,-0.01495c0.38159,-0.00476 0.77297,-0.0156 1.15432,-0.02349c0.39654,-0.00791 0.79564,-0.01299 1.19205,-0.01735c0.73558,-0.008 1.47248,-0.01659 2.20811,-0.01646c0.5527,0.00012 1.10558,0.01629 1.65834,0.02433c0.16872,0.00255 0.33799,0.00154 0.50664,0.00597c0.57479,0.01416 1.1537,-0.00213 1.72044,0.07825c0.06465,0.00916 0.13579,0.0053 0.20369,0.00262c0.74376,-0.02916 1.33939,0.15609 1.74964,0.49996c0.3064,0.25684 0.34906,0.43403 0.01593,0.75764c-0.2687,0.26103 -0.66483,0.40804 -1.1143,0.52184c-0.12048,0.03059 -0.25909,0.0534 -0.38828,0.05156c-0.55138,-0.00719 -1.10176,-0.0257 -1.65256,-0.03894c-0.26852,-0.00653 -0.53693,-0.00886 -0.80514,-0.01413c-0.34657,-0.00647 -0.69387,-0.00715 -1.03945,-0.02154c-0.59735,-0.02508 -1.19449,-0.05989 -1.79174,-0.08748c-0.5976,-0.02779 -1.19809,-0.04622 -1.79528,-0.07547c-0.20272,-0.00966 -0.40303,-0.04124 -0.60535,-0.05194c-0.67464,-0.03628 -1.3725,-0.05903 -2.04587,-0.10092c-0.60642,-0.03792 -1.21613,-0.10651 -1.82295,-0.14318c-0.75341,-0.04541 -1.51161,-0.07224 -2.26544,-0.11578c-0.39295,-0.0227 -0.78032,-0.07657 -1.17294,-0.09864c-0.35526,-0.02014 -0.71518,-0.0101 -1.07165,-0.02608c-0.31416,-0.01399 -0.62757,-0.03989 -0.93828,-0.07093c-0.5236,-0.05251 -1.04479,-0.11394 -1.56716,-0.17123c-0.36513,-0.04008 -0.73067,-0.0787 -1.09538,-0.12064c-0.07491,-0.00866 -0.14585,-0.02944 -0.21876,-0.04455c0.00222,-0.01248 0.00443,-0.02482 0.00664,-0.03709c0.42281,-0.03114 0.84659,-0.05976 1.26848,-0.09467z" data-paper-data="{&quot;noHover&quot;:false,&quot;origItem&quot;:[&quot;Path&quot;,{&quot;applyMatrix&quot;:true,&quot;selected&quot;:true,&quot;segments&quot;:[[[173.05756,139.36892],[0.42281,-0.05274],[-0.00221,0.02079],7],[[173.05092,139.43164],[0.00222,-0.02114],[0.07291,0.02558],7],[[173.26968,139.50697],[-0.07491,-0.01467],[0.36471,0.07104],7],[[174.36506,139.71093],[-0.36513,-0.06787],[0.52237,0.09702],7],[[175.9322,140.00023],[-0.5236,-0.08893],[0.31072,0.05258],7],[[176.87046,140.11994],[-0.31416,-0.02369],[0.35647,0.02707],7],[[177.94207,140.16376],[-0.35526,-0.03411],[0.39262,0.03738],7],[[179.1149,140.32983],[-0.39295,-0.03845],[0.75384,0.07373],7],[[181.37949,140.52249],[-0.75341,-0.0769],[0.60682,0.0621],7],[[183.19469,140.75566],[-0.60642,-0.06421],[0.67337,0.07095],7],[[185.21883,140.92974],[-0.67464,-0.06144],[0.20233,0.01811],7],[[185.82257,141.01968],[-0.20272,-0.01636],[0.5972,0.04954],7],[[187.61594,141.15102],[-0.5976,-0.04707],[0.59726,0.04671],7],[[189.40716,141.30069],[-0.59735,-0.04248],[0.34558,0.02436],7],[[190.44643,141.33781],[-0.34657,-0.01096],[0.26821,0.00893],7],[[191.25147,141.36214],[-0.26852,-0.01106],[0.55081,0.02241],7],[[192.90391,141.42866],[-0.55138,-0.01218],[0.12919,0.00312],7],[[193.29214,141.34163],[-0.12048,0.0518],[0.44947,-0.19272],7],[[194.40621,140.45966],[-0.2687,0.44205],[0.33313,-0.54803],7],[[194.39025,139.17875],[0.3064,0.43496],[-0.41025,-0.58234],7],[[192.64078,138.33389],[0.74376,-0.04938],[-0.0679,0.00455],7],[[192.4371,138.32953],[0.06465,0.01551],[-0.56673,-0.13612],7],[[190.71684,138.19798],[0.57479,0.02398],[-0.16865,-0.0075],7],[[190.21026,138.18818],[0.16872,0.00432],[-0.55276,-0.01362],7],[[188.5523,138.14838],[0.5527,0.0002],[-0.73563,-0.00024],7],[[186.34577,138.17981],[0.73558,-0.01354],[-0.39641,0.00739],7],[[185.15701,138.21329],[0.39654,-0.01339],[-0.38135,0.01336],7],[[184.01252,138.25762],[0.38159,-0.00806],[-0.4936,0.01096],7],[[182.53126,138.27811],[0.49257,-0.02864],[-0.74364,0.04374],7],[[180.30319,138.45741],[0.74233,-0.06495],[-0.77524,0.06778],7],[[177.97926,138.67668],[0.7719,-0.09328],[-0.97585,0.11786],7],[[175.05701,139.08018],[0.97347,-0.13875],[-0.24478,0.03466],7],[[174.32603,139.20895],[0.24513,-0.03465],[-0.42189,0.05911],7]],&quot;closed&quot;:true,&quot;fillColor&quot;:[0,0,0,1]}]}" fill="#8c0000" stroke-width="0.5"/><path d="M232.05289,180.44152c0.51266,0.05216 0.98175,0.02142 1.48502,-0.02746c0.54685,-0.05293 1.09346,-0.10927 1.63425,-0.17979c0.3513,-0.04602 0.72407,-0.08816 1.03044,-0.19043c0.41862,-0.13943 0.80488,-0.32384 1.16632,-0.51279c0.48744,-0.25492 0.81208,-0.58753 1.05665,-0.94271c0.14094,-0.20509 0.19777,-0.21461 0.56202,-0.20875c0.2693,0.00445 0.54322,-0.00947 0.81309,-0.01085c0.13494,-0.00079 0.27208,0.00958 0.4073,0.01087c0.27044,0.00217 0.54522,0.00245 0.81579,0.00108c0.32744,-0.00169 0.66031,-0.00599 0.9878,-0.00893c0.73482,-0.00654 1.47749,0.00108 2.21105,-0.01945c0.7774,-0.02185 1.55486,-0.06957 2.33152,-0.1002c0.35828,-0.01444 0.71903,-0.0109 1.07848,-0.01844c0.24776,-0.0052 0.49615,-0.00963 0.74278,-0.02257c0.47026,-0.02491 0.93939,-0.05686 1.40932,-0.0824c0.37614,-0.02005 0.6579,0.0929 0.84712,0.28924c0.2321,0.24109 0.24535,0.49635 0.26529,0.76417c0.02267,0.30934 -0.04825,0.60926 -0.15958,0.90335c-0.13755,0.36446 -0.34552,0.73015 -0.76196,1.01392c-0.37155,0.25347 -0.83773,0.46131 -1.27234,0.68124c-0.13348,0.06775 -0.30928,0.1065 -0.45212,0.16914c-0.08505,0.0373 -0.17585,0.08991 -0.20756,0.14624c-0.05059,0.08987 -0.16103,0.11768 -0.28677,0.14716c-0.28248,0.0667 -0.56242,0.13934 -0.84591,0.20478c-0.1681,0.03874 -0.34053,0.07402 -0.51427,0.10269c-0.24941,0.04105 -0.50125,0.08287 -0.75547,0.11072c-0.1865,0.02037 -0.37987,0.02285 -0.57045,0.02899c-0.50878,0.01587 -1.02026,0.00466 -1.52898,-0.00053c-0.5253,-0.00561 -1.02602,-0.10253 -1.54801,-0.10206c-0.29032,0.0005 -0.58591,-0.0462 -0.87388,-0.08113c-0.8632,-0.10519 -1.73376,-0.22455 -2.59899,-0.32226c-0.49277,-0.05546 -0.96244,-0.15101 -1.42352,-0.26238c-0.26047,-0.06294 -0.53467,-0.11239 -0.80832,-0.15277c-0.9049,-0.13346 -1.74046,-0.37791 -2.59232,-0.59098c-0.44483,-0.11115 -0.86987,-0.25042 -1.30839,-0.37026c-0.31682,-0.0866 -0.64408,-0.16032 -0.96165,-0.24588c-0.15843,-0.04288 -0.30572,-0.10113 -0.45819,-0.15249c0.00745,-0.01075 0.04985,-0.02151 0.05696,-0.03248c0.34287,0.02081 0.68863,0.03006 1.02748,0.06439z" data-paper-data="{&quot;noHover&quot;:false,&quot;origItem&quot;:[&quot;Path&quot;,{&quot;applyMatrix&quot;:true,&quot;selected&quot;:true,&quot;segments&quot;:[[[176.45198,155.31748],[0.34287,0.03525],[-0.00711,0.01857],7],[[176.43033,155.37211],[0.00745,-0.0182],[0.15247,0.08697],7],[[176.8885,155.62986],[-0.15843,-0.07262],[0.31756,0.1449],7],[[177.85008,156.04532],[-0.31682,-0.14665],[0.43851,0.20294],7],[[179.15821,156.67057],[-0.44483,-0.18824],[0.85186,0.36084],7],[[181.74885,157.66661],[-0.9049,-0.22601],[0.27365,0.06838],7],[[182.55597,157.92337],[-0.26047,-0.10659],[0.46107,0.18859],7],[[183.97578,158.36384],[-0.49277,-0.09392],[0.86523,0.16547],7],[[186.56308,158.90599],[-0.8632,-0.17814],[0.28797,0.05915],7],[[187.43314,159.04402],[-0.29032,0.00084],[0.52199,-0.00081],7],[[188.97624,159.21909],[-0.5253,-0.0095],[0.50872,0.00879],7],[[190.50219,159.2225],[-0.50878,0.02688],[0.19058,-0.01039],7],[[191.07181,159.17433],[-0.1865,0.03449],[0.25423,-0.04717],7],[[191.82628,158.98815],[-0.24941,0.06952],[0.17374,-0.04854],7],[[192.33996,158.81517],[-0.1681,0.06561],[0.28349,-0.11082],7],[[193.18507,158.46988],[-0.28248,0.11296],[0.12574,-0.04992],7],[[193.47151,158.2214],[-0.05059,0.15219],[0.03171,-0.09538],7],[[193.67882,157.97439],[-0.08505,0.06316],[0.14283,-0.10606],7],[[194.13064,157.68884],[-0.13348,0.11474],[0.43461,-0.37245],7],[[195.40234,156.53796],[-0.37155,0.42925],[0.41644,-0.48055],7],[[196.16414,154.82415],[-0.13755,0.61721],[0.11133,-0.49804],7],[[196.32404,153.29697],[0.02267,0.52387],[-0.01994,-0.45354],7],[[196.05932,152.00507],[0.2321,0.40829],[-0.18923,-0.3325],7],[[195.21267,151.5165],[0.37614,-0.03396],[-0.46993,0.04325],7],[[193.80372,151.65686],[0.47026,-0.04218],[-0.24662,0.0219],7],[[193.06124,151.69567],[0.24776,-0.00881],[-0.35944,0.01277],7],[[191.9834,151.728],[0.35828,-0.02445],[-0.77666,0.05186],7],[[189.65447,151.9009],[0.7774,-0.03701],[-0.73356,0.03477],7],[[187.45028,151.93803],[0.73482,-0.01108],[-0.32749,0.00498],7],[[186.46744,151.95403],[0.32744,-0.00287],[-0.27057,0.00232],7],[[185.65591,151.95181],[0.27044,0.00368],[-0.13521,-0.00219],7],[[185.25054,151.93288],[0.13494,-0.00134],[-0.26987,0.00233],7],[[184.44072,151.94977],[0.2693,0.00754],[-0.36425,-0.00993],7],[[183.88118,152.30153],[0.14094,-0.34732],[-0.24458,0.60149],7],[[182.82963,153.89081],[0.48744,-0.43171],[-0.36144,0.31998],7],[[181.66438,154.75473],[0.41862,-0.23612],[-0.30638,0.17319],7],[[180.63403,155.07591],[0.3513,-0.07793],[-0.54078,0.11943],7],[[178.99978,155.37954],[0.54685,-0.08963],[-0.50327,0.08279],7],[[177.47946,155.42675],[0.51266,0.08834],[-0.33885,-0.05812],7]],&quot;closed&quot;:true,&quot;fillColor&quot;:[0,0,0,1]}]}" fill="#caff00" stroke-width="0.5"/><path d="M228.5994,161.79635c0.49083,-0.21213 0.89579,-0.48638 1.45279,-0.65345c0.89622,-0.26914 1.77127,-0.56558 2.65019,-0.85433c0.95076,-0.31224 1.93602,-0.57958 2.9728,-0.78104c0.41471,-0.08046 0.81508,-0.19964 1.24334,-0.26408c0.40446,-0.06078 0.81449,-0.12242 1.21533,-0.19054c0.56502,-0.09607 1.13318,-0.2037 1.6982,-0.29977c1.0085,-0.17137 2.02781,-0.3273 3.08818,-0.36141c0.85813,-0.02751 1.71952,-0.06318 2.57643,-0.03773c0.46814,0.01406 0.94474,0.07037 1.39311,0.15238c0.55853,0.10196 1.10602,0.23639 1.63388,0.38551c0.39432,0.11156 0.78622,0.2468 1.11673,0.41365c0.39121,0.19702 0.71134,0.43906 0.9573,0.71683c0.23851,0.26891 0.39487,0.54895 0.52418,0.83942c0.07738,0.17386 0.07501,0.34562 0.03984,0.51659c-0.05739,0.27705 -0.1436,0.55354 -0.21684,0.82955c-0.05817,0.22095 -0.11747,0.44307 -0.17389,0.66424c-0.0565,0.22347 -0.06556,0.22358 -0.43668,0.23181c-0.56515,0.01224 -1.1297,0.03616 -1.69456,0.05007c-0.2135,0.00522 -0.4292,-0.01164 -0.64177,-0.00287c-0.67627,0.02814 -1.35253,0.06624 -2.02851,0.09626c-0.16873,0.00746 -0.33973,-0.00042 -0.50936,0.00285c-0.41488,0.00726 -0.83086,0.02092 -1.24565,0.02567c-0.28124,0.00332 -0.56451,-0.00848 -0.84515,-0.00223c-0.28241,0.00643 -0.5708,0.01306 -0.84641,0.04606c-0.48416,0.05768 -0.97398,0.01931 -1.45763,0.03362c-0.39209,0.01193 -0.78664,0.04347 -1.17818,0.05958c-0.43575,0.01784 -0.86653,0.10402 -1.31737,0.04159c-0.15426,-0.02135 -0.20728,-0.06243 -0.25421,-0.13163c-0.06267,-0.09276 -0.12491,-0.18618 -0.19365,-0.27735c-0.11894,-0.1577 -0.38512,-0.24208 -0.56024,-0.36984c-0.43144,-0.31473 -1.07764,-0.41105 -1.66679,-0.5551c-0.54259,-0.13241 -1.13381,-0.11504 -1.7043,-0.16001c-0.77545,-0.06112 -1.53539,0.02163 -2.29868,0.05367c-0.93448,0.03905 -1.86529,0.10905 -2.79554,0.17735c-0.34596,0.02523 -0.68501,0.08391 -1.02833,0.12398c-0.09399,0.01111 -0.19181,0.01068 -0.28804,0.0153c-0.00787,-0.01678 -0.01575,-0.03385 -0.02361,-0.05084c0.27891,-0.16288 0.52986,-0.34882 0.84307,-0.48374z" data-paper-data="{&quot;noHover&quot;:false,&quot;origItem&quot;:[&quot;Path&quot;,{&quot;applyMatrix&quot;:true,&quot;selected&quot;:true,&quot;segments&quot;:[[[173.21785,124.66663],[0.27891,-0.27584],[0.00786,0.02877],7],[[173.24143,124.7526],[-0.00787,-0.02842],[0.09623,-0.00782],7],[[173.52946,124.72664],[-0.09399,0.01882],[0.34332,-0.06786],7],[[174.55779,124.51667],[-0.34596,0.04273],[0.93024,-0.11566],7],[[177.35318,124.21569],[-0.93448,0.06613],[0.76329,-0.05426],7],[[179.65143,124.12336],[-0.77545,-0.10351],[0.57049,0.07616],7],[[181.35429,124.3912],[-0.54259,-0.22424],[0.58914,0.24396],7],[[183.01531,125.32528],[-0.43144,-0.53299],[0.17512,0.21636],7],[[183.57227,125.94996],[-0.11894,-0.26707],[0.06873,0.15439],7],[[183.76457,126.4192],[-0.06267,-0.15709],[0.04693,0.1172],7],[[184.01761,126.64182],[-0.15426,-0.03615],[0.45084,0.10573],7],[[185.32971,126.57108],[-0.43575,0.03021],[0.39154,-0.02727],7],[[186.5033,126.47123],[-0.39209,0.0202],[0.48365,-0.02424],7],[[187.95668,126.41658],[-0.48416,0.09768],[0.27561,-0.05589],7],[[188.80132,126.34005],[-0.28241,0.01089],[0.28064,-0.01058],7],[[189.64528,126.34508],[-0.28124,0.00562],[0.41479,-0.00806],7],[[190.88966,126.30326],[-0.41488,0.01229],[0.16964,-0.00554],7],[[191.39866,126.29899],[-0.16873,0.01263],[0.67599,-0.05084],7],[[193.42609,126.13799],[-0.67627,0.04765],[0.21257,-0.01486],7],[[194.06768,126.14327],[-0.2135,0.00884],[0.56486,-0.02355],7],[[195.76183,126.05953],[-0.56515,0.02072],[0.37112,-0.01394],7],[[196.19827,125.6677],[-0.0565,0.37844],[0.05642,-0.37456],7],[[196.37175,124.54447],[-0.05817,0.37417],[0.07324,-0.46743],7],[[196.58831,123.14176],[-0.05739,0.46918],[0.03517,-0.28955],7],[[196.54842,122.26824],[0.07738,0.29443],[-0.1293,-0.4919],7],[[196.02439,120.84894],[0.23851,0.4554],[-0.24595,-0.47039],7],[[195.06752,119.63719],[0.39121,0.33365],[-0.3305,-0.28256],7],[[193.95133,118.93836],[0.39432,0.18892],[-0.52786,-0.25253],7],[[192.31848,118.28778],[0.55853,0.17267],[-0.44836,-0.13887],7],[[190.92651,118.03154],[0.46814,0.02381],[-0.85691,-0.0431],7],[[188.35333,118.0989],[0.85813,-0.04658],[-1.06038,0.05778],7],[[185.27466,118.71483],[1.0085,-0.29021],[-0.56502,0.1627],7],[[183.58521,119.22106],[0.56502,-0.1627],[-0.40084,0.11536],7],[[182.37478,119.54049],[0.40446,-0.10293],[-0.42826,0.10912],7],[[181.13449,119.98395],[0.41471,-0.13626],[-1.03679,0.34117],7],[[178.16406,121.30005],[0.95076,-0.52878],[-0.87892,0.489],7],[[175.51404,122.74346],[0.89622,-0.45578],[-0.557,0.28295],7],[[174.06109,123.84842],[0.49083,-0.35924],[-0.31321,0.22849],7]],&quot;closed&quot;:true,&quot;fillColor&quot;:[0,0,0,1]}]}" fill="#caff00" stroke-width="0.5"/><path d="M236.06676,174.90502c-0.03668,-0.06949 -0.04504,-0.14579 -0.07531,-0.21666c-0.04395,-0.10274 -0.10189,-0.20539 -0.14158,-0.3085c-0.03584,-0.09263 -0.05273,-0.18884 -0.08268,-0.29766c0.18208,-0.00541 0.31472,-0.00484 0.44399,-0.01488c0.35592,-0.0274 0.71501,-0.06762 1.07151,-0.09147c0.40217,-0.02681 0.81855,-0.04224 1.22131,-0.06592c0.24703,-0.01439 0.50024,-0.02973 0.74483,-0.05458c0.2825,-0.02833 0.36344,0.00231 0.48286,0.16607c0.1322,0.18144 0.20053,0.37229 0.20187,0.56875c0.00047,0.04547 0.00911,0.09463 0.03477,0.13708c0.13454,0.22401 0.27735,0.45187 0.41331,0.67569c0.0643,0.10634 0.12342,0.2154 0.17385,0.32427c0.03602,0.07783 -0.02672,0.14428 -0.16234,0.14423c-0.40505,-0.00075 -0.80336,0.06716 -1.21141,0.06136c-0.54325,-0.00751 -1.1023,0.01581 -1.64632,0.01997c-0.3038,0.0022 -0.61329,-0.00863 -0.9137,-0.01244c-0.19086,-0.35569 -0.37895,-0.69881 -0.55496,-1.03533z" data-paper-data="{&quot;noHover&quot;:false,&quot;origItem&quot;:[&quot;Path&quot;,{&quot;applyMatrix&quot;:true,&quot;selected&quot;:true,&quot;segments&quot;:[[[182.07756,147.79038],[-0.19086,-0.60235],[0.3004,0.00644],7],[[182.98552,147.80809],[-0.3038,0.00373],[0.54402,-0.00705],7],[[184.61713,147.77563],[-0.54325,-0.01271],[0.40805,0.00981],7],[[185.82319,147.67647],[-0.40505,-0.00127],[0.13561,0.00008],7],[[185.98449,147.43378],[0.03602,0.1318],[-0.05043,-0.18437],7],[[185.80939,146.88721],[0.0643,0.18008],[-0.13596,-0.37904],7],[[185.3951,145.75209],[0.13454,0.37936],[-0.02565,-0.07189],7],[[185.36084,145.52215],[0.00047,0.077],[-0.00134,-0.33271],7],[[185.16308,144.56613],[0.1322,0.30726],[-0.11943,-0.27732],7],[[184.68381,144.2878],[0.2825,-0.04798],[-0.24459,0.04208],7],[[183.94472,144.38249],[0.24703,-0.02437],[-0.40276,0.0401],7],[[182.73561,144.49217],[0.40217,-0.04541],[-0.3565,0.04038],7],[[181.66973,144.64201],[0.35592,-0.0464],[-0.12927,0.017],7],[[181.22671,144.6657],[0.18208,-0.00916],[0.02995,0.18429],7],[[181.3106,145.16723],[-0.03584,-0.15687],[0.03969,0.17461],7],[[181.45309,145.68626],[-0.04395,-0.17399],[0.03027,0.12002],7],[[181.52863,146.05022],[-0.03668,-0.11768],[0.17601,0.5699],7]],&quot;closed&quot;:true,&quot;fillColor&quot;:[0,0,0,1]}]}" fill="#caff00" stroke-width="0.5"/><path d="M236.19095,167.57718c-0.07224,-0.18923 0.10723,-0.36119 0.19427,-0.54048c0.05843,-0.12105 0.1427,-0.23945 0.20675,-0.3596c0.20418,-0.3805 0.40925,-0.77124 0.61212,-1.15469c1.29535,-0.10559 2.59513,-0.2201 3.92766,-0.18236c-0.03316,0.06715 -0.07665,0.15223 -0.1147,0.23725c-0.03765,0.08377 -0.05043,0.17377 -0.10453,0.25338c-0.24127,0.35168 -0.44426,0.71872 -0.57678,1.09053c-0.011,0.03052 -0.04911,0.05902 -0.07767,0.08681c-0.08969,0.08707 -0.14841,0.177 -0.13786,0.28516c0.00831,0.08248 -0.04604,0.16824 -0.07622,0.27005c-1.28535,0.0052 -2.57156,0.00849 -3.85304,0.01395z" data-paper-data="{&quot;noHover&quot;:false,&quot;origItem&quot;:[&quot;Path&quot;,{&quot;applyMatrix&quot;:true,&quot;selected&quot;:true,&quot;segments&quot;:[[[185.47768,133.60291],[-1.28535,0.00881],[0.03018,-0.1724],7],[[185.55172,133.14751],[0.00831,0.13968],[-0.01055,-0.18317],7],[[185.68702,132.66799],[-0.08969,0.14746],[0.02856,-0.04706],7],[[185.76396,132.52237],[-0.011,0.05168],[0.13252,-0.62967],7],[[186.34076,130.69052],[-0.24127,0.59556],[0.0541,-0.13481],7],[[186.44634,130.26334],[-0.03765,0.14187],[0.03805,-0.14398],7],[[186.56193,129.86286],[-0.03316,0.11371],[-1.33253,-0.0639],7],[[182.66022,130.17401],[1.29535,-0.17882],[-0.20287,0.64935],7],[[182.05357,132.11329],[0.20418,-0.64438],[-0.06405,0.20346],7],[[181.84564,132.71839],[0.05843,-0.20499],[-0.08703,0.30362],7],[[181.64916,133.62993],[-0.07224,-0.32046],[1.28148,-0.00924],7]],&quot;closed&quot;:true,&quot;fillColor&quot;:[0,0,0,1]}]}" fill="#caff00" stroke-width="0.5"/><path d="M254.71147,163.93685c-0.05509,0.00973 -0.06863,0.05312 -0.10503,0.0927c-0.107,0.11647 -0.21152,0.23361 -0.31537,0.35096c-0.02579,0.02929 -0.04667,0.06052 -0.06581,0.09177c-0.13229,0.21959 -0.28921,0.43584 -0.39025,0.66063c-0.17634,0.39191 -0.31721,0.78968 -0.47177,1.185c-0.0432,0.11019 -0.09026,0.2207 -0.11516,0.33258c-0.05342,0.23602 -0.09413,0.47377 -0.13665,0.71077c-0.02965,0.16479 -0.0524,0.3306 -0.07641,0.49567c-0.0528,0.3647 -0.11211,0.73065 -0.15115,1.09552c-0.03052,0.28594 -0.02509,0.57521 -0.04715,0.86168c-0.0324,0.41563 0.01605,0.83536 -0.0694,1.25283c-0.06911,0.33717 -0.02926,0.68733 0.01729,1.02951c0.02681,0.19532 0.00773,0.39395 0.02853,0.58962c0.01607,0.15077 0.06301,0.30124 0.09144,0.45175c0.02189,0.11685 0.06451,0.23655 0.04479,0.35163c-0.03096,0.18145 0.00985,0.35316 0.07017,0.52994c0.09958,0.29197 0.13403,0.59252 0.24071,0.88353c0.08195,0.22314 0.09425,0.4613 0.3229,0.66147c0.03628,0.03174 0.05722,0.07521 0.0604,0.11404c0.02693,0.30878 0.29787,0.56948 0.58338,0.79853c0.34283,0.27482 0.5618,0.58805 1.06477,0.79044c0.06266,0.02498 0.12493,0.08414 0.20701,0.13857c-0.25825,0.02175 -0.47997,0.03966 -0.70036,0.0596c-0.38975,0.0349 -0.77931,0.07774 -1.17058,0.10573c-0.45996,0.03296 -0.92441,0.0561 -1.38649,0.07945c-0.28977,0.01468 -0.58402,0.01432 -0.87193,0.03591c-0.52518,0.03965 -1.04952,0.09214 -1.57314,0.13743c-0.26854,0.0233 -0.53798,0.04876 -0.808,0.0639c-0.37796,0.02149 -0.76441,0.06629 -1.13653,0.04364c-0.56804,-0.03472 -1.12629,0.09056 -1.68976,0.01753c-0.02109,-0.00277 -0.04569,0.00108 -0.06736,0.00456c-0.66365,0.10859 -1.34856,0.0095 -2.02003,0.06106c-0.18133,0.01397 -0.40759,-0.03972 -0.57064,-0.10121c-0.56057,-0.21126 -0.96801,-0.50123 -1.29902,-0.84847c-0.26059,-0.27336 -0.4584,-0.56362 -0.71192,-0.83752c-0.15937,-0.1724 -0.24337,-0.36975 -0.36129,-0.55559c-0.12226,-0.19278 -0.24104,-0.38736 -0.37042,-0.57856c-0.1659,-0.24547 -0.31729,-0.49354 -0.39571,-0.75584c-0.04061,-0.13627 -0.1465,-0.26581 -0.20127,-0.40101c-0.11021,-0.27166 -0.10528,-0.54996 -0.09943,-0.82766c0.00343,-0.15282 -0.03684,-0.30677 -0.0528,-0.46025c-0.01186,-0.11088 -0.01672,-0.22275 -0.02582,-0.35133c0.21215,0.00269 0.42173,-0.00512 0.59738,0.00086c0.24725,0.00876 0.49403,0.02231 0.74085,0.03316c0.87835,0.03803 1.7545,0.07635 2.63304,0.10916c0.35021,0.01319 0.70033,0.00725 1.05162,0.01024c0.03283,0.00041 0.06708,-0.00553 0.09837,-0.00158c0.76438,0.09352 1.53204,0.08684 2.30547,0.08683c0.32067,0.0001 0.63651,-0.05922 0.95576,-0.09793c0.07272,-0.00888 0.14069,-0.03955 0.20139,-0.06755c0.17493,-0.08099 0.33069,-0.1743 0.51519,-0.24641c0.42847,-0.16745 0.67455,-0.40748 0.79945,-0.68617c0.07534,-0.16859 0.06013,-0.35575 0.01812,-0.53104c-0.02455,-0.10208 -0.16909,-0.19743 -0.28815,-0.28381c-0.17583,-0.12777 -0.37571,-0.23731 -0.56411,-0.35919c-0.17046,-0.11018 -0.40416,-0.13577 -0.62643,-0.17111c-0.32586,-0.05167 -0.64811,-0.09197 -0.98338,-0.1081c-0.68325,-0.03264 -1.35978,-0.0532 -2.04534,-0.07085c-0.46256,-0.0119 -0.92494,-0.01924 -1.38818,-0.02218c-0.34744,-0.00211 -0.6941,0.00384 -1.04173,0.00716c-0.87191,0.00835 -1.74345,0.01612 -2.62809,0.02494c-0.01736,-0.05694 -0.07536,-0.09894 -0.0726,-0.13602c0.02154,-0.29169 0.04895,-0.58511 0.07331,-0.87656c0.01667,-0.19645 0.00496,-0.3966 0.05437,-0.59012c0.08164,-0.32262 0.18613,-0.64586 0.31386,-0.96352c0.15534,-0.38738 0.33822,-0.7727 0.52516,-1.1553c0.14993,-0.30674 0.29226,-0.61878 0.50034,-0.91227c0.29106,-0.40985 0.52765,-0.83833 0.99604,-1.20069c0.1341,-0.10403 0.20934,-0.24297 0.26103,-0.37286c0.03341,-0.08362 0.07999,-0.11189 0.21371,-0.11834c0.97047,-0.04798 1.94706,-0.03271 2.9187,-0.04481c0.39431,-0.00501 0.78829,-0.05124 1.18285,-0.06314c0.90369,-0.02755 1.8114,-0.05038 2.71606,-0.06582c0.64175,-0.01106 1.28722,-0.02527 1.92607,0.0433c0.15373,0.01655 0.32205,0.01691 0.47558,0.00009c0.46059,-0.05026 0.90264,0.02536 1.35033,0.05772c0.31455,0.02275 0.63067,0.0402 0.94527,0.06149c0.12118,0.00841 0.24152,0.02217 0.39322,0.0364c-0.10451,0.13527 -0.16719,0.27231 -0.3993,0.31358z" data-paper-data="{&quot;noHover&quot;:false,&quot;origItem&quot;:[&quot;Path&quot;,{&quot;applyMatrix&quot;:true,&quot;selected&quot;:true,&quot;segments&quot;:[[[200.5459,126.95993],[-0.10451,0.22908],[-0.1517,-0.02409],7],[[200.15309,126.89853],[0.12118,0.01425],[-0.3146,-0.03606],7],[[199.20883,126.79494],[0.31455,0.03853],[-0.4477,-0.05481],7],[[197.86006,126.69785],[0.46059,-0.08512],[-0.15353,0.02849],7],[[197.38506,126.6979],[0.15373,0.02802],[-0.63885,-0.11612],7],[[195.46152,126.62522],[0.64175,-0.01873],[-0.90466,0.02616],7],[[192.7493,126.73692],[0.90369,-0.04666],[-0.39456,0.02014],7],[[191.56815,126.84367],[0.39431,-0.00849],[-0.97164,0.02048],7],[[188.6533,126.91853],[0.97047,-0.08125],[-0.13373,0.01091],7],[[188.43993,127.11879],[0.03341,-0.14161],[-0.05169,0.21997],7],[[188.17953,127.74996],[0.1341,-0.17618],[-0.46839,0.61364],7],[[187.18594,129.78194],[0.29106,-0.69408],[-0.20808,0.49703],7],[[186.68737,131.32552],[0.14993,-0.51947],[-0.18695,0.64793],7],[[186.16445,133.27966],[0.15534,-0.65602],[-0.12773,0.53795],7],[[185.85227,134.90882],[0.08164,-0.54636],[-0.04941,0.32774],7],[[185.79874,135.90642],[0.01667,-0.33268],[-0.02436,0.49355],7],[[185.72636,137.3878],[0.02154,-0.49397],[-0.00276,0.0628],7],[[185.76429,137.61146],[-0.01736,-0.09643],[0.88464,-0.01493],7],[[188.39277,137.56754],[-0.87191,0.01414],[0.34763,-0.00561],7],[[189.43489,137.55422],[-0.34744,-0.00357],[0.46324,0.00499],7],[[190.82419,137.58931],[-0.46256,-0.02016],[0.68556,0.02989],7],[[192.87897,137.70119],[-0.68325,-0.05527],[0.33527,0.02732],7],[[193.87624,137.88503],[-0.32586,-0.08751],[0.22227,0.05986],7],[[194.50948,138.18079],[-0.17046,-0.18659],[0.1884,0.2064],7],[[195.0765,138.79722],[-0.17583,-0.21638],[0.11906,0.14629],7],[[195.36452,139.28228],[-0.02455,-0.17287],[0.04202,0.29685],7],[[195.34404,140.18806],[0.07534,-0.28551],[-0.1249,0.47197],7],[[194.53742,141.35668],[0.42847,-0.28358],[-0.1845,0.12212],7],[[194.01848,141.77535],[0.17493,-0.13716],[-0.0607,0.04743],7],[[193.81577,141.89002],[0.07272,-0.01504],[-0.31925,0.06555],7],[[192.85444,142.05588],[0.32067,0.00017],[-0.77343,0.00001],7],[[190.53953,141.90416],[0.76438,0.15837],[-0.03129,-0.00667],7],[[190.44094,141.90664],[0.03283,0.0007],[-0.35129,-0.00506],7],[[189.38752,141.88722],[0.35021,0.02234],[-0.87854,-0.05557],7],[[186.75237,141.69862],[0.87835,0.0644],[-0.24682,-0.01836],7],[[186.01124,141.64176],[0.24725,0.01484],[-0.17566,-0.01012],7],[[185.44717,141.62861],[0.21215,0.00455],[0.0091,0.21774],7],[[185.47257,142.22246],[-0.01186,-0.18778],[0.01597,0.25992],7],[[185.52475,143.00054],[0.00343,-0.2588],[-0.00585,0.47029],7],[[185.62293,144.40012],[-0.11021,-0.46006],[0.05477,0.22897],7],[[185.82346,145.07825],[-0.04061,-0.23078],[0.07841,0.4442],7],[[186.21772,146.35669],[-0.1659,-0.4157],[0.12938,0.3238],7],[[186.58698,147.33545],[-0.12226,-0.32647],[0.11792,0.31473],7],[[186.94717,148.27553],[-0.15937,-0.29195],[0.25351,0.46384],7],[[187.65736,149.69282],[-0.26059,-0.46294],[0.33102,0.58805],7],[[188.9541,151.12869],[-0.56057,-0.35777],[0.16305,0.10415],7],[[189.52397,151.29984],[-0.18133,0.02366],[0.67147,-0.08731],7],[[191.54135,151.19584],[-0.66365,0.18389],[0.02167,-0.00589],7],[[191.60862,151.1881],[-0.02109,-0.00469],[0.56347,0.12368],7],[[193.29597,151.15825],[-0.56804,-0.0588],[0.37212,0.03835],7],[[194.43086,151.08441],[-0.37796,0.03639],[0.27001,-0.02564],7],[[195.23768,150.97634],[-0.26854,0.03945],[0.52362,-0.07671],7],[[196.80859,150.7441],[-0.52518,0.06714],[0.28791,-0.03656],7],[[197.67937,150.68367],[-0.28977,0.02486],[0.46208,-0.03953],7],[[199.06417,150.54985],[-0.45996,0.05582],[0.39126,-0.04741],7],[[200.23344,150.37151],[-0.38975,0.0591],[0.22039,-0.03377],7],[[200.93309,150.27103],[-0.25825,0.03684],[-0.08208,-0.09217],7],[[200.74572,150.06571],[0.06266,0.04231],[-0.50297,-0.34276],7],[[199.66154,148.69761],[0.34283,0.46541],[-0.28551,-0.38789],7],[[199.0778,147.34554],[0.02693,0.52291],[-0.00318,-0.06576],7],[[199.01731,147.15247],[0.03628,0.05375],[-0.22864,-0.339],7],[[198.69382,146.03272],[0.08195,0.37788],[-0.10668,-0.49283],7],[[198.45183,144.53753],[0.09958,0.49445],[-0.06033,-0.29936],7],[[198.38065,143.64109],[-0.03096,0.30729],[0.01972,-0.19488],7],[[198.33513,143.04644],[0.02189,0.19789],[-0.02844,-0.25489],7],[[198.24273,142.28269],[0.01607,0.25533],[-0.02079,-0.33136],7],[[198.21289,141.28648],[0.02681,0.33078],[-0.04655,-0.57948],7],[[198.19401,139.54851],[-0.06911,0.571],[0.08544,-0.70697],7],[[198.26408,137.43421],[-0.0324,0.70387],[0.02206,-0.48513],7],[[198.31295,135.97881],[-0.03052,0.48424],[0.03903,-0.61791],7],[[198.4664,134.12658],[-0.0528,0.61761],[0.02401,-0.27954],7],[[198.54371,133.28806],[-0.02965,0.27907],[0.04251,-0.40134],7],[[198.68146,132.08532],[-0.05342,0.39969],[0.0249,-0.18947],7],[[198.79701,131.52238],[-0.0432,0.1866],[0.15456,-0.66946],7],[[199.26983,129.51631],[-0.17634,0.6637],[0.10105,-0.38066],7],[[199.66041,128.39774],[-0.13229,0.37187],[0.01915,-0.05292],7],[[199.72625,128.24235],[-0.02579,0.0496],[0.10385,-0.19872],7],[[200.04166,127.64803],[-0.107,0.19724],[0.0364,-0.06703],7],[[200.16469,127.46067],[-0.05509,0.01648],[0.23211,-0.06989],7]],&quot;closed&quot;:true,&quot;fillColor&quot;:[0,0,0,1]}]}" fill="#caff00" stroke-width="0.5"/><path d="M257.94129,163.94651c0.09533,0.02018 0.1974,0.03016 0.2969,0.04269c0.12163,0.01551 0.25458,0.01482 0.36404,0.04456c0.49975,0.13542 1.03792,0.18928 1.56722,0.26001c0.10755,0.01429 0.20914,0.05016 0.30904,0.08062c0.19422,0.05897 0.39294,0.09 0.61783,0.09202c0.2203,0.00195 0.44412,0.03542 0.66014,0.06777c0.44821,0.06678 0.89794,0.13764 1.34116,0.21561c0.44042,0.07711 0.86944,0.19336 1.31764,0.24116c0.40879,0.04355 0.707,0.20142 1.07379,0.28302c0.57244,0.12737 1.12063,0.29245 1.60768,0.5153c0.31265,0.14306 0.63528,0.28219 0.93054,0.43733c0.36249,0.19061 0.72021,0.3887 1.04805,0.59973c0.25295,0.16295 0.45995,0.35234 0.70516,0.54376c-0.13506,0.09172 -0.30529,0.1748 -0.40379,0.28075c-0.2003,0.2156 -0.40921,0.43577 -0.52716,0.66889c-0.16328,0.32409 -0.18052,0.67866 -0.38329,0.9914c-0.15265,0.2356 -0.09911,0.47228 -0.1859,0.70329c-0.0442,0.1181 0.01861,0.25146 0.03772,0.37682c0.03139,0.20539 0.05031,0.41347 0.10401,0.61706c0.08294,0.31261 0.14339,0.6333 0.29951,0.93412c0.19238,0.37197 0.46927,0.73002 0.71427,1.09223c0.06971,0.10307 0.15369,0.20294 0.25384,0.33351c-0.36277,0.25483 -0.76054,0.5359 -1.15982,0.81363c-0.55761,0.38791 -1.22941,0.70917 -1.87095,1.04514c-0.08352,0.04357 -0.17921,0.09678 -0.28135,0.10863c-0.4632,0.0542 -0.78309,0.24458 -1.14911,0.39426c-0.51623,0.21118 -1.06449,0.38861 -1.70038,0.4621c-0.34862,0.04021 -0.67741,0.14385 -1.01456,0.21841c-0.12568,0.02802 -0.25043,0.05985 -0.37972,0.08032c-0.31473,0.05023 -0.62927,0.08945 -0.93018,0.1774c-0.28807,0.08436 -0.62714,0.11067 -0.94427,0.159c-0.30612,0.04659 -0.61626,0.08717 -0.92269,0.13251c-0.10936,0.01613 -0.22128,0.03176 -0.32293,0.05926c-0.13481,0.03624 -0.25843,0.07861 -0.41903,0.04696c-0.05645,-0.01114 -0.13225,0.00663 -0.19755,0.01539c-0.60405,0.08161 -1.21025,0.16192 -1.81266,0.24709c-0.14306,0.0203 -0.23065,0.00739 -0.35262,-0.05714c-0.27305,-0.14422 -0.58946,-0.26104 -0.88457,-0.39116c-0.14495,-0.06398 -0.27443,-0.13298 -0.32256,-0.24704c-0.02893,-0.06898 -0.10072,-0.13573 -0.17453,-0.19401c-0.40033,-0.31538 -0.62137,-0.67593 -0.76579,-1.05564c-0.03193,-0.08361 -0.10547,-0.16216 -0.14059,-0.2454c-0.05984,-0.14152 -0.10657,-0.2852 -0.15541,-0.42825c-0.03579,-0.10368 -0.06855,-0.2083 -0.09937,-0.31254c-0.03015,-0.1034 -0.06116,-0.20719 -0.08246,-0.3111c-0.03662,-0.17793 -0.06947,-0.35694 -0.09937,-0.53521c-0.0416,-0.24514 -0.08601,-0.49146 -0.11947,-0.73713c-0.0565,-0.41822 -0.11712,-0.83883 -0.15382,-1.25784c-0.01576,-0.17871 0.01845,-0.36082 0.03627,-0.54036c0.01152,-0.11289 0.04343,-0.22581 0.05,-0.33855c0.03144,-0.55453 0.04049,-1.11301 0.09203,-1.66688c0.03864,-0.41243 0.1329,-0.82524 0.20153,-1.23665c0.00356,-0.02018 0.01108,-0.0402 0.00968,-0.06002c-0.0367,-0.54518 0.20662,-1.06915 0.35764,-1.60027c0.12023,-0.42223 0.36742,-0.82081 0.60644,-1.21756c0.13905,-0.23077 0.31734,-0.46428 0.61406,-0.66052c0.17841,-0.11849 0.33383,-0.24925 0.55579,-0.34133c0.1316,-0.05485 0.27658,-0.09951 0.47157,-0.16878c0.53755,0.02808 1.13481,0.0994 1.71239,0.22162z" data-paper-data="{&quot;noHover&quot;:false,&quot;origItem&quot;:[&quot;Path&quot;,{&quot;applyMatrix&quot;:true,&quot;selected&quot;:true,&quot;segments&quot;:[[[201.68044,127.13295],[0.53755,0.04755],[-0.19499,0.11731],7],[[201.20955,127.41845],[0.1316,-0.09288],[-0.22195,0.15593],7],[[200.6547,127.99598],[0.17841,-0.20066],[-0.29672,0.33232],7],[[200.04201,129.11367],[0.13905,-0.3908],[-0.23902,0.67189],7],[[199.43771,131.17377],[0.12023,-0.71505],[-0.15102,0.89945],7],[[199.08264,133.88057],[-0.0367,-0.92325],[0.0014,0.03358],7],[[199.07305,133.98208],[0.00356,-0.03418],[-0.06862,0.69673],7],[[198.87317,136.07276],[0.03864,-0.69844],[-0.05155,0.93796],7],[[198.78203,138.88976],[0.03144,-0.93909],[-0.00657,0.19092],7],[[198.73197,139.46187],[0.01152,-0.19117],[-0.01782,0.30404],7],[[198.69543,140.37507],[-0.01576,-0.30265],[0.0367,0.70959],7],[[198.84796,142.50121],[-0.0565,-0.70825],[0.03346,0.41604],7],[[198.96638,143.74759],[-0.0416,-0.41515],[0.0299,0.30189],7],[[199.06492,144.65274],[-0.03662,-0.30133],[0.0213,0.17598],7],[[199.14687,145.17895],[-0.03015,-0.17511],[0.03082,0.17654],7],[[199.24572,145.70763],[-0.03579,-0.17558],[0.04884,0.24226],7],[[199.40041,146.43211],[-0.05984,-0.23967],[0.03512,0.14096],7],[[199.54054,146.84726],[-0.03193,-0.1416],[0.14443,0.64303],7],[[200.30427,148.63334],[-0.40033,-0.53409],[0.07381,0.0987],7],[[200.4784,148.96163],[-0.02893,-0.11681],[0.04813,0.19315],7],[[200.80035,149.37962],[-0.14495,-0.10835],[0.29511,0.22035],7],[[201.68354,150.04132],[-0.27305,-0.24424],[0.12197,0.10927],7],[[202.0357,150.13787],[-0.14306,0.03437],[0.60241,-0.14424],7],[[203.84617,149.71865],[-0.60405,0.1382],[0.0653,-0.01485],7],[[204.04345,149.69251],[-0.05645,-0.01887],[0.1606,0.05359],7],[[204.46189,149.61284],[-0.13481,0.06138],[0.10165,-0.04656],7],[[204.78436,149.51239],[-0.10936,0.02732],[0.30643,-0.07677],7],[[205.70564,149.28776],[-0.30612,0.0789],[0.31713,-0.08184],7],[[206.64836,149.01839],[-0.28807,0.14286],[0.30091,-0.14894],7],[[207.57691,148.71798],[-0.31473,0.08507],[0.12929,-0.03466],7],[[207.95595,148.58202],[-0.12568,0.04745],[0.33715,-0.12626],7],[[208.96862,148.21243],[-0.34862,0.0681],[0.63589,-0.12445],7],[[210.66574,147.4309],[-0.51623,0.35763],[0.36602,-0.25349],7],[[211.81263,146.76436],[-0.4632,0.09178],[0.10214,-0.02006],7],[[212.09345,146.58074],[-0.08352,0.07379],[0.64154,-0.56896],7],[[213.96073,144.814],[-0.55761,0.65693],[0.39927,-0.47033],7],[[215.11858,143.43889],[-0.36277,0.43155],[-0.10015,-0.22111],7],[[214.86439,142.87473],[0.06971,0.17455],[-0.24501,-0.6134],7],[[214.14894,141.02788],[0.19238,0.62993],[-0.15612,-0.50943],7],[[213.8487,139.44951],[0.08294,0.52941],[-0.0537,-0.34478],7],[[213.74462,138.40722],[0.03139,0.34783],[-0.01911,-0.21231],7],[[213.70706,137.77072],[-0.0442,0.2],[0.08679,-0.39121],7],[[213.89359,136.58244],[-0.15265,0.39898],[0.20277,-0.52963],7],[[214.27811,134.90645],[-0.16328,0.54885],[0.11795,-0.39478],7],[[214.80599,133.77493],[-0.2003,0.36511],[0.0985,-0.17941],7],[[215.20995,133.29976],[-0.13506,0.15532],[-0.24521,-0.32417],7],[[214.50604,132.38056],[0.25295,0.27595],[-0.32784,-0.35737],7],[[213.45981,131.3668],[0.36249,0.3228],[-0.29526,-0.26273],7],[[212.53096,130.62748],[0.31265,0.24227],[-0.48704,-0.37738],7],[[210.92614,129.75642],[0.57244,0.2157],[-0.3668,-0.13818],7],[[209.85432,129.27785],[0.40879,0.07375],[-0.44819,-0.08095],7],[[208.53905,128.86999],[0.44042,0.13058],[-0.44321,-0.13205],7],[[207.20027,128.50506],[0.44821,0.11309],[-0.21602,-0.05478],7],[[206.54125,128.39028],[0.2203,0.00331],[-0.22489,-0.00341],7],[[205.92444,128.23437],[0.19422,0.09987],[-0.0999,-0.05159],7],[[205.61588,128.09779],[0.10755,0.0242],[-0.5293,-0.11977],7],[[204.05093,127.65703],[0.49975,0.22933],[-0.10946,-0.05038],7],[[203.68738,127.58142],[0.12163,0.02627],[-0.09949,-0.0212],7],[[203.39086,127.50902],[0.09533,0.03418],[-0.57757,-0.20698],7]],&quot;closed&quot;:true,&quot;fillColor&quot;:[0,0,0,1]}]}" fill="#8c0000" stroke-width="0.5"/></g><g stroke-width="1"><g><path d="M214.28307,160.48096l0.65634,0.41372l0.19442,0.48127l-0.58783,0.61714l-0.96293,0.25849l-1.67746,-0.02125l-0.74162,-0.46735l-0.92728,0.25894l-0.94781,-0.15777l-0.6514,-0.54962l0.20595,-0.79882l0.65469,-0.52287l1.20968,-0.25537l0.16574,-0.66419l0.68523,-0.39151c0,0 0.58786,0.0821 1.16474,0.01934c0.57652,-0.06277 1.32922,0.68313 1.32922,0.68313l0.13316,0.85524z" fill="#ffffff"/><path d="M211.12581,162.01671c-0.51111,0.24524 -1.04571,0.20406 -1.57437,0.09643c-0.39509,-0.0805 -0.69697,-0.24803 -0.96425,-0.43451c-0.14465,-0.10131 -0.21102,-0.21872 -0.20297,-0.35271c0.01165,-0.19442 0.02047,-0.38867 0.02117,-0.58281c0.00137,-0.53364 0.59113,-0.83439 1.36943,-0.96843c0.18302,-0.03147 0.37528,-0.04488 0.56075,-0.06609c0.03422,-0.17411 0.06424,-0.33932 0.09989,-0.50403c0.05914,-0.27661 0.31255,-0.48611 0.68075,-0.64724c0.37825,-0.16559 0.8195,-0.16 1.24357,-0.09958c0.8506,0.1213 1.52071,0.40881 2.02129,0.83245c0.12849,0.10861 0.16956,0.23217 0.16483,0.36245c-0.00775,0.21345 -0.01551,0.42711 -0.02389,0.65765c0.35903,0.1303 0.62,0.35445 0.83904,0.58558c0.20746,0.21951 0.14496,0.4721 0.02383,0.70517c-0.24641,0.47381 -1.15051,0.91135 -2.09514,0.89939c-0.40666,-0.00515 -0.81334,-0.03887 -1.218,-0.06965c-0.32225,-0.02452 -0.55006,-0.15044 -0.76605,-0.2808c-0.06289,-0.03813 -0.11282,-0.08318 -0.17987,-0.13324zM214.30564,160.60825c-0.10145,0.03166 -0.15173,0.045 -0.19791,0.06214c-0.10635,0.04015 -0.21291,0.04735 -0.31461,-0.00169c-0.10933,-0.0529 -0.13728,-0.11956 -0.08076,-0.19768c0.02265,-0.03058 0.03241,-0.06591 0.06341,-0.09283c0.14555,-0.12766 0.15408,-0.27499 0.20277,-0.41952c0.10577,-0.31606 -0.06618,-0.56014 -0.46369,-0.76851c-0.39889,-0.20921 -0.84501,-0.36293 -1.36787,-0.42585c-0.58194,-0.07014 -1.06757,0.13496 -1.16309,0.47972c-0.01663,0.05922 -0.0294,0.11912 -0.04322,0.1788c-0.0504,0.22083 -0.02048,0.24311 0.34266,0.2988c0.09518,0.01455 0.19231,0.04331 0.26654,0.08054c0.1051,0.05242 0.13599,0.13561 0.06476,0.2006c-0.05298,0.04875 -0.16643,0.08027 -0.26405,0.10364c-0.05594,0.01368 -0.14078,0.00614 -0.1992,-0.00941c-0.41279,-0.10846 -0.83274,-0.06852 -1.23567,-0.00126c-0.65733,0.1095 -0.95924,0.31234 -0.96793,0.69762c-0.00372,0.16074 -0.01909,0.32133 -0.01291,0.48177c0.00226,0.06405 0.0196,0.14102 0.08215,0.18852c0.22509,0.17156 0.49827,0.32204 0.86636,0.368c0.225,0.02829 0.48335,0.03281 0.70083,-0.00426c0.22991,-0.039 0.25793,-0.18817 0.2687,-0.31921c0.00081,-0.0125 0.01169,-0.03009 0.02778,-0.03552c0.09225,-0.03115 0.18769,-0.08229 0.28089,-0.08132c0.0752,0.00074 0.1617,0.05981 0.21729,0.10431c0.03535,0.02818 0.01123,0.07981 0.03498,0.11619c0.15015,0.23172 0.35951,0.4475 0.80228,0.49877c0.38649,0.04494 0.79017,0.06402 1.18389,0.05587c0.64289,-0.01334 1.27806,-0.31978 1.46178,-0.68156c0.07459,-0.14775 0.1226,-0.31251 -0.00907,-0.45035c-0.14291,-0.14925 -0.35055,-0.27617 -0.54711,-0.42631z" fill="#32419a"/></g><g><path d="M216.17525,183.75127l-1.64146,-0.02079l-0.83586,-0.32298l-0.15912,-0.48083l0.3384,-0.56587l0.50374,-0.25638l0.01285,-0.35373l0.37235,-0.41153l0.67595,-0.26233l0.56818,-0.07601l0.7413,0.00939l0.34317,0.27504l0.19517,0.46064l-0.22541,0.37189l1.02714,-0.09126l0.80585,0.17683l-0.01843,0.50735l-0.33405,0.44601l-0.63994,0.11681l-0.88215,-0.01117c-0.15783,0.45596 -0.84769,0.48893 -0.84769,0.48893z" fill="#ffffff"/><path d="M217.55726,181.86249c0.24251,0.00307 0.44558,0.00314 0.64773,0.00883c0.46357,0.01338 0.9133,0.16464 1.04248,0.45865c0.10113,0.23005 0.09542,0.4844 -0.13911,0.67954c-0.34122,0.28367 -0.78407,0.50705 -1.44832,0.46673c-0.08951,-0.0053 -0.18001,-0.00291 -0.29756,-0.00439c-0.13937,0.17133 -0.36277,0.31322 -0.64755,0.41388c-0.13201,0.04671 -0.29262,0.09306 -0.4395,0.09203c-0.61224,-0.004 -1.22425,-0.02406 -1.83598,-0.04223c-0.64029,-0.01937 -1.20708,-0.42882 -1.24157,-0.79171c-0.03664,-0.39148 0.16921,-0.74026 0.64316,-1.02226c0.10433,-0.06229 0.1531,-0.12172 0.16118,-0.20796c0.03222,-0.34264 0.31609,-0.59326 0.76725,-0.81194c0.48243,-0.23371 0.99618,-0.32793 1.60586,-0.29247c0.68722,0.03998 1.14164,0.31496 1.16601,0.72318c0.00592,0.09955 0.00973,0.19886 0.01591,0.33012zM214.57469,181.93337c0.08646,0.02112 0.14914,0.03609 0.21107,0.05189c0.12774,0.03206 0.20799,0.08814 0.18697,0.17087c-0.02277,0.09209 -0.14077,0.13231 -0.28811,0.14379c-0.04462,0.0034 -0.09129,0.00468 -0.13568,0.00182c-0.20646,-0.01367 -0.34427,0.04673 -0.45539,0.14063c-0.20656,0.17402 -0.32027,0.36819 -0.35296,0.57778c-0.03731,0.23976 0.32104,0.58298 0.81711,0.59614c0.46397,0.01213 0.92868,0.02323 1.39116,0.04723c0.39198,0.0204 0.63482,-0.09248 0.83771,-0.27238c-0.04466,-0.03435 -0.07868,-0.06043 -0.1127,-0.08651c-0.08243,-0.06423 -0.10887,-0.13359 -0.03494,-0.20481c0.07465,-0.07163 0.19899,-0.09195 0.32697,-0.07615c0.1315,0.01606 0.2634,0.04067 0.38399,0.07493c0.66171,0.18814 1.44356,-0.17024 1.39195,-0.55795c-0.02167,-0.1619 -0.17809,-0.31819 -0.44675,-0.33057c-0.30147,-0.01341 -0.62345,-0.08422 -0.91275,0.0535c-0.10566,0.05038 -0.36731,0.01016 -0.47103,-0.05122c-0.10198,-0.06073 -0.12097,-0.14063 -0.04281,-0.20199c0.20902,-0.16397 0.11887,-0.34592 0.11323,-0.52138c-0.00523,-0.15751 -0.16418,-0.26359 -0.40779,-0.31422c-0.41712,-0.08661 -0.82687,-0.0747 -1.20311,0.07444c-0.15013,0.05941 -0.28658,0.13088 -0.42643,0.19897c-0.25131,0.12236 -0.37497,0.27949 -0.36973,0.48518z" fill="#32419a"/></g></g></g></g></svg>